<svg width="527" height="403" viewBox="0 0 527 403" fill="none" xmlns="http://www.w3.org/2000/svg">
<path d="M88.5936 20.582L88.7879 20.1213L88.5936 20.582ZM0.606512 8.56372C0.436137 8.78104 0.47419 9.09533 0.691508 9.2657L4.2329 12.0421C4.45021 12.2125 4.7645 12.1745 4.93488 11.9571C5.10525 11.7398 5.0672 11.4255 4.84988 11.2552L1.70198 8.78722L4.16992 5.63932C4.34029 5.422 4.30224 5.10771 4.08492 4.93734C3.86761 4.76696 3.55332 4.80502 3.38294 5.02233L0.606512 8.56372ZM1 8.87221C1.0601 9.36859 1.06009 9.36859 1.06008 9.36859C1.06008 9.36859 1.06007 9.36859 1.06008 9.36859C1.06008 9.36859 1.0601 9.36859 1.06013 9.36859C1.0602 9.36858 1.06031 9.36856 1.06048 9.36854C1.06081 9.3685 1.06136 9.36844 1.06211 9.36835C1.06361 9.36817 1.06594 9.36789 1.06911 9.36751C1.07543 9.36676 1.08507 9.36562 1.09799 9.36411C1.12383 9.36108 1.1628 9.35658 1.21463 9.35073C1.31831 9.33904 1.47346 9.32198 1.67808 9.30067C2.08732 9.25805 2.69437 9.19843 3.48304 9.13075L3.39753 8.13441C2.60258 8.20263 1.9895 8.26283 1.5745 8.30605C1.36699 8.32766 1.20901 8.34503 1.10257 8.35703C1.04935 8.36304 1.00901 8.3677 0.981816 8.37088C0.968218 8.37247 0.957905 8.37369 0.950908 8.37452C0.94741 8.37494 0.944741 8.37526 0.942905 8.37548C0.941986 8.37559 0.941277 8.37567 0.940776 8.37573C0.940525 8.37576 0.940327 8.37579 0.940181 8.37581C0.940108 8.37581 0.940048 8.37582 0.940001 8.37583C0.939977 8.37583 0.939952 8.37583 0.93994 8.37584C0.939918 8.37584 0.939899 8.37584 1 8.87221ZM8.41738 8.79014C9.88061 8.7109 11.5377 8.63888 13.3662 8.58642L13.3375 7.58683C11.5001 7.63955 9.83455 7.71193 8.3633 7.7916L8.41738 8.79014ZM18.3095 8.50299C19.8786 8.49474 21.5328 8.50316 23.2629 8.53341L23.2804 7.53356C21.5424 7.50318 19.8806 7.49471 18.3043 7.503L18.3095 8.50299ZM28.1928 8.67506C29.7933 8.73909 31.4435 8.82273 33.1376 8.92924L33.2003 7.93121C31.4984 7.8242 29.8406 7.74018 28.2328 7.67586L28.1928 8.67506ZM38.0651 9.29631C39.678 9.4354 41.3225 9.596 42.9942 9.78058L43.104 8.78662C41.4241 8.60113 39.7716 8.43976 38.151 8.30001L38.0651 9.29631ZM47.8942 10.3826C49.5063 10.601 51.1384 10.8426 52.7868 11.1093L52.9466 10.1222C51.2893 9.85403 49.6487 9.6112 48.0285 9.39165L47.8942 10.3826ZM57.6601 11.9648C59.2622 12.2685 60.876 12.5969 62.4982 12.9519L62.712 11.975C61.0803 11.618 59.4574 11.2876 57.8463 10.9823L57.6601 11.9648ZM67.3093 14.0788C68.8974 14.4758 70.4905 14.8995 72.0855 15.3515L72.3581 14.3893C70.7528 13.9345 69.1497 13.5081 67.5518 13.1087L67.3093 14.0788ZM76.8185 16.7761C78.3792 17.2741 79.9389 17.8007 81.495 18.3573L81.8318 17.4157C80.2645 16.8551 78.6938 16.3248 77.1226 15.8234L76.8185 16.7761ZM86.1129 20.104C86.8767 20.4092 87.6389 20.722 88.3993 21.0427L88.7879 20.1213C88.0216 19.7981 87.2534 19.4828 86.4838 19.1754L86.1129 20.104ZM88.3993 21.0427C89.167 21.3665 89.9408 21.7028 90.7198 22.0508L91.1277 21.1377C90.3426 20.787 89.5624 20.4479 88.7879 20.1213L88.3993 21.0427ZM95.3236 24.2104C96.8217 24.9449 98.3335 25.7156 99.8544 26.5174L100.321 25.6328C98.7919 24.8268 97.2714 24.0517 95.7638 23.3125L95.3236 24.2104ZM104.332 28.9508C105.8 29.7717 107.272 30.6165 108.744 31.4809L109.25 30.6185C107.773 29.7508 106.294 28.9025 104.82 28.078L104.332 28.9508ZM113.112 34.1004C114.558 34.9856 116 35.8853 117.434 36.7955L117.97 35.9512C116.531 35.0383 115.085 34.1356 113.634 33.2475L113.112 34.1004ZM121.716 39.5575C123.144 40.4929 124.56 41.4345 125.96 42.378L126.519 41.5488C125.116 40.603 123.696 39.6589 122.264 38.721L121.716 39.5575ZM130.164 45.2493C131.581 46.2292 132.976 47.2063 134.345 48.1758L134.923 47.3598C133.551 46.3882 132.153 45.409 130.733 44.4269L130.164 45.2493ZM138.484 51.1396C139.895 52.1609 141.27 53.1674 142.604 54.1531L143.198 53.3489C141.862 52.3613 140.484 51.3529 139.07 50.3296L138.484 51.1396ZM146.678 57.1941C148.099 58.2645 149.457 59.2992 150.746 60.289L151.355 59.496C150.064 58.5044 148.703 57.4678 147.28 56.3954L146.678 57.1941ZM154.777 63.4152C156.25 64.5689 157.586 65.6276 158.766 66.5704L159.391 65.7891C158.208 64.8444 156.869 63.7837 155.393 62.6278L154.777 63.4152ZM162.72 69.7655C163.356 70.2855 163.846 70.6902 164.176 70.9647C164.342 71.1019 164.468 71.2066 164.552 71.2769C164.594 71.3121 164.626 71.3386 164.647 71.3564C164.657 71.3652 164.665 71.3719 164.671 71.3763C164.673 71.3785 164.675 71.3802 164.677 71.3813C164.677 71.3818 164.678 71.3822 164.678 71.3825C164.678 71.3826 164.678 71.3827 164.678 71.3828C164.678 71.3828 164.678 71.3828 164.678 71.3828C164.678 71.3828 164.678 71.3828 164.678 71.3829C164.678 71.3829 164.678 71.3829 165 71C165.322 70.6171 165.322 70.6171 165.322 70.6171C165.322 70.6171 165.322 70.6171 165.322 70.6171C165.322 70.6171 165.321 70.6171 165.321 70.617C165.321 70.6169 165.321 70.6168 165.321 70.6167C165.321 70.6164 165.32 70.6159 165.319 70.6153C165.318 70.6142 165.316 70.6124 165.313 70.6101C165.308 70.6056 165.3 70.5987 165.289 70.5897C165.267 70.5717 165.235 70.5448 165.193 70.5093C165.108 70.4383 164.981 70.333 164.815 70.195C164.482 69.9192 163.991 69.5131 163.354 68.9916L162.72 69.7655ZM88.5936 20.582L88.9822 19.6606L88.5936 20.582ZM0.213025 8.25523C-0.127726 8.68986 -0.0516191 9.31844 0.383015 9.65919L7.46579 15.2121C7.90043 15.5528 8.529 15.4767 8.86975 15.0421C9.2105 14.6074 9.1344 13.9789 8.69976 13.6381L2.40396 8.70222L7.33984 2.40642C7.68059 1.97179 7.60448 1.34321 7.16985 1.00246C6.73521 0.661712 6.10664 0.737819 5.76589 1.17245L0.213025 8.25523ZM1 8.87221C1.1202 9.86496 1.12017 9.86497 1.12015 9.86497C1.12015 9.86497 1.12012 9.86497 1.12012 9.86497C1.1201 9.86498 1.1201 9.86498 1.12011 9.86498C1.12013 9.86497 1.1202 9.86496 1.12033 9.86495C1.12058 9.86492 1.12104 9.86486 1.12171 9.86478C1.12304 9.86462 1.12521 9.86436 1.12821 9.86401C1.1342 9.86329 1.1435 9.86219 1.15608 9.86072C1.18124 9.85778 1.21952 9.85335 1.27066 9.84758C1.37295 9.83605 1.5267 9.81914 1.72987 9.79798C2.13623 9.75566 2.74027 9.69633 3.52579 9.62891L3.35477 7.63624C2.55669 7.70474 1.94059 7.76522 1.5227 7.80874C1.31376 7.8305 1.15436 7.84802 1.04653 7.86018C0.992621 7.86626 0.951602 7.871 0.923728 7.87426C0.909791 7.87589 0.899141 7.87715 0.891809 7.87803C0.888143 7.87846 0.885306 7.8788 0.883303 7.87904C0.882302 7.87916 0.881509 7.87926 0.880924 7.87933C0.880632 7.87936 0.880392 7.87939 0.880205 7.87942C0.880111 7.87943 0.88003 7.87944 0.879962 7.87945C0.879929 7.87945 0.879888 7.87945 0.879871 7.87946C0.879833 7.87946 0.879799 7.87947 1 8.87221ZM8.44442 9.28941C9.90363 9.21039 11.5565 9.13855 13.3805 9.08622L13.3232 7.08704C11.4813 7.13988 9.81153 7.21244 8.33626 7.29234L8.44442 9.28941ZM18.3122 9.00298C19.8776 8.99475 21.528 9.00315 23.2542 9.03333L23.2892 7.03364C21.5472 7.00318 19.8816 6.9947 18.3016 7.00301L18.3122 9.00298ZM28.1728 9.17466C29.7696 9.23854 31.4161 9.32199 33.1062 9.42825L33.2317 7.4322C31.5258 7.32494 29.8642 7.24073 28.2528 7.17626L28.1728 9.17466ZM38.0221 9.79446C39.6312 9.93322 41.2718 10.0934 42.9394 10.2776L43.1589 8.28964C41.4748 8.1037 39.8184 7.94194 38.194 7.80186L38.0221 9.79446ZM47.8271 10.8781C49.435 11.0959 51.0629 11.3369 52.707 11.6029L53.0264 9.62861C51.3648 9.35974 49.72 9.11628 48.0956 8.89618L47.8271 10.8781ZM57.567 12.456C59.1647 12.7589 60.7739 13.0864 62.3913 13.4403L62.8189 11.4866C61.1825 11.1285 59.5549 10.7972 57.9394 10.491L57.567 12.456ZM67.188 14.5639C68.7713 14.9597 70.3593 15.382 71.9492 15.8325L72.4944 13.9083C70.8839 13.452 69.2758 13.0243 67.6731 12.6236L67.188 14.5639ZM76.6665 17.2524C78.2218 17.7487 79.7761 18.2735 81.3266 18.8281L82.0002 16.9449C80.4273 16.3823 78.8512 15.8502 77.2746 15.3471L76.6665 17.2524ZM85.9274 20.5683C86.6883 20.8723 87.4476 21.1839 88.205 21.5034L88.9822 19.6606C88.2129 19.3361 87.4418 19.0197 86.6693 18.7111L85.9274 20.5683ZM88.205 21.5034C88.9694 21.8258 89.7399 22.1606 90.5159 22.5073L91.3316 20.6812C90.5435 20.3291 89.7601 19.9886 88.9822 19.6606L88.205 21.5034ZM95.1035 24.6593C96.5969 25.3916 98.1043 26.16 99.6212 26.9597L100.554 25.1905C99.0211 24.3824 97.4963 23.6051 95.984 22.8636L95.1035 24.6593ZM104.088 29.3872C105.553 30.2063 107.022 31.0494 108.491 31.912L109.504 30.1873C108.023 29.318 106.542 28.4679 105.064 27.6416L104.088 29.3872ZM112.851 34.5269C114.294 35.4105 115.734 36.3089 117.166 37.2177L118.238 35.529C116.797 34.6147 115.348 33.7107 113.895 32.8211L112.851 34.5269ZM121.442 39.9757C122.868 40.9098 124.282 41.8503 125.68 42.7926L126.798 41.1342C125.393 40.1872 123.972 39.2419 122.538 38.3027L121.442 39.9757ZM129.88 45.6606C131.295 46.6393 132.689 47.6154 134.056 48.5839L135.212 46.9517C133.839 45.9792 132.439 44.9988 131.018 44.0157L129.88 45.6606ZM138.191 51.5447C139.6 52.5649 140.974 53.5705 142.307 54.5553L143.495 52.9468C142.158 51.9583 140.778 50.9488 139.364 49.9246L138.191 51.5447ZM146.377 57.5934C147.797 58.6628 149.154 59.6966 150.441 60.6855L151.66 59.0995C150.368 58.107 149.005 57.0695 147.581 55.9961L146.377 57.5934ZM154.468 63.8088C155.94 64.9615 157.275 66.0192 158.454 66.961L159.703 65.3985C158.519 64.4528 157.179 63.3911 155.701 62.2342L154.468 63.8088ZM162.404 70.1525C163.038 70.6717 163.527 71.0757 163.857 71.3495C164.022 71.4864 164.148 71.5907 164.231 71.6607C164.273 71.6957 164.305 71.7221 164.326 71.7397C164.336 71.7485 164.344 71.7551 164.349 71.7594C164.352 71.7616 164.354 71.7632 164.355 71.7642C164.356 71.7648 164.356 71.7651 164.356 71.7654C164.357 71.7655 164.357 71.7656 164.357 71.7657C164.357 71.7657 164.357 71.7657 164.357 71.7657C164.357 71.7657 164.357 71.7657 164.357 71.7657C164.357 71.7657 164.357 71.7657 165 71C165.643 70.2343 165.643 70.2343 165.643 70.2343C165.643 70.2343 165.643 70.2343 165.643 70.2342C165.643 70.2342 165.643 70.2342 165.643 70.2341C165.643 70.234 165.643 70.2339 165.643 70.2338C165.642 70.2334 165.642 70.233 165.641 70.2324C165.639 70.2312 165.637 70.2294 165.635 70.2271C165.629 70.2224 165.621 70.2155 165.61 70.2064C165.588 70.1882 165.556 70.1611 165.513 70.1255C165.428 70.0542 165.301 69.9485 165.134 69.8102C164.801 69.5337 164.308 69.1269 163.67 68.6047L162.404 70.1525Z" fill="url(#paint0_linear)"/>
<path d="M80.2736 187.241V186.741V187.241ZM0.569357 197.746C0.429043 197.984 0.508102 198.29 0.745939 198.431L4.62172 200.717C4.85956 200.858 5.16611 200.778 5.30643 200.541C5.44674 200.303 5.36768 199.996 5.12984 199.856L1.6847 197.823L3.71719 194.378C3.85751 194.14 3.77845 193.834 3.54061 193.694C3.30277 193.553 2.99622 193.632 2.85591 193.87L0.569357 197.746ZM1 198C1.12486 198.484 1.12486 198.484 1.12486 198.484C1.12486 198.484 1.12486 198.484 1.12487 198.484C1.12489 198.484 1.12492 198.484 1.12496 198.484C1.12504 198.484 1.12518 198.484 1.12536 198.484C1.12574 198.484 1.12632 198.484 1.1271 198.484C1.12867 198.483 1.13107 198.483 1.13428 198.482C1.1407 198.48 1.1504 198.478 1.16334 198.474C1.18922 198.468 1.22807 198.458 1.27963 198.445C1.38274 198.419 1.53668 198.38 1.73939 198.329C2.14479 198.228 2.74522 198.08 3.5241 197.893L3.29077 196.921C2.50891 197.109 1.90563 197.257 1.4975 197.359C1.29343 197.41 1.13816 197.449 1.03374 197.475C0.98153 197.489 0.942036 197.499 0.915516 197.505C0.902256 197.509 0.89224 197.511 0.8855 197.513C0.882129 197.514 0.879578 197.515 0.87785 197.515C0.876986 197.515 0.876327 197.516 0.875875 197.516C0.875649 197.516 0.875475 197.516 0.875352 197.516C0.87529 197.516 0.875242 197.516 0.875206 197.516C0.875188 197.516 0.875171 197.516 0.875162 197.516C0.875149 197.516 0.875138 197.516 1 198ZM8.41492 196.762C9.86031 196.439 11.4955 196.082 13.2975 195.702L13.0914 194.724C11.2851 195.104 9.64588 195.462 8.19663 195.786L8.41492 196.762ZM18.2078 194.699C19.7654 194.39 21.4065 194.073 23.1215 193.754L22.9382 192.771C21.2193 193.091 19.5744 193.408 18.0133 193.718L18.2078 194.699ZM28.0461 192.865C29.647 192.586 31.2967 192.308 32.9887 192.033L32.8286 191.046C31.1325 191.321 29.4789 191.6 27.8743 191.88L28.0461 192.865ZM37.932 191.263C39.5549 191.02 41.2084 190.783 42.8874 190.554L42.7523 189.563C41.0689 189.793 39.4111 190.03 37.7841 190.274L37.932 191.263ZM47.8513 189.912C49.4915 189.711 51.1505 189.52 52.8238 189.34L52.7169 188.346C51.0385 188.526 49.3747 188.718 47.7298 188.919L47.8513 189.912ZM57.802 188.844C59.4564 188.692 61.1203 188.553 62.7898 188.429L62.7156 187.432C61.0401 187.557 59.3705 187.696 57.7108 187.848L57.802 188.844ZM67.7808 188.104C69.4458 188.011 71.1125 187.934 72.7768 187.876L72.7416 186.877C71.0702 186.935 69.3967 187.012 67.7251 187.105L67.7808 188.104ZM77.7765 187.756C78.6106 187.746 79.4432 187.741 80.2736 187.741V186.741C79.439 186.741 78.6023 186.746 77.7641 186.756L77.7765 187.756ZM80.2736 187.741C81.0824 187.741 81.8954 187.721 82.7118 187.682L82.6643 186.683C81.8632 186.721 81.0661 186.741 80.2736 186.741V187.741ZM87.5818 187.237C89.1748 187.025 90.777 186.749 92.3845 186.415L92.1812 185.436C90.5957 185.765 89.0173 186.037 87.4498 186.246L87.5818 187.237ZM97.1227 185.273C98.6771 184.849 100.233 184.376 101.787 183.861L101.472 182.912C99.9342 183.422 98.3953 183.889 96.8592 184.309L97.1227 185.273ZM106.369 182.22C107.875 181.642 109.377 181.028 110.871 180.384L110.475 179.465C108.993 180.105 107.504 180.713 106.01 181.287L106.369 182.22ZM115.3 178.376C116.764 177.681 118.217 176.961 119.655 176.22L119.198 175.331C117.768 176.067 116.325 176.783 114.871 177.473L115.3 178.376ZM123.941 173.933C125.367 173.146 126.776 172.342 128.164 171.528L127.658 170.665C126.277 171.476 124.876 172.275 123.457 173.058L123.941 173.933ZM132.323 169.017C133.716 168.154 135.082 167.285 136.418 166.414L135.872 165.576C134.542 166.443 133.182 167.308 131.796 168.167L132.323 169.017ZM140.457 163.723C141.828 162.788 143.16 161.86 144.447 160.944L143.868 160.129C142.585 161.041 141.259 161.966 139.894 162.896L140.457 163.723ZM148.362 158.105C149.726 157.096 151.025 156.114 152.254 155.17L151.644 154.377C150.42 155.318 149.126 156.296 147.768 157.301L148.362 158.105ZM156.075 152.176C157.471 151.061 158.732 150.03 159.842 149.107L159.203 148.338C158.098 149.257 156.842 150.284 155.45 151.395L156.075 152.176ZM163.542 145.962C164.125 145.454 164.573 145.056 164.876 144.785C165.028 144.65 165.143 144.546 165.22 144.476C165.259 144.441 165.288 144.414 165.308 144.396C165.318 144.387 165.325 144.38 165.33 144.376C165.333 144.373 165.334 144.372 165.336 144.37C165.336 144.37 165.337 144.369 165.337 144.369C165.337 144.369 165.338 144.369 165.338 144.369C165.338 144.369 165.338 144.369 165.338 144.369C165.338 144.369 165.338 144.369 165.338 144.369C165.338 144.369 165.338 144.369 165 144C164.662 143.631 164.662 143.631 164.662 143.631C164.662 143.631 164.662 143.631 164.662 143.631C164.662 143.631 164.662 143.631 164.662 143.631C164.662 143.632 164.662 143.632 164.662 143.632C164.662 143.632 164.661 143.632 164.661 143.633C164.659 143.634 164.658 143.635 164.655 143.638C164.651 143.642 164.644 143.648 164.634 143.657C164.615 143.674 164.587 143.7 164.549 143.735C164.473 143.803 164.359 143.906 164.209 144.04C163.91 144.308 163.465 144.703 162.885 145.208L163.542 145.962ZM80.2736 187.241L80.2736 186.241L80.2736 187.241ZM0.138715 197.492C-0.141913 197.968 0.0162033 198.581 0.491878 198.861L8.24344 203.434C8.71912 203.715 9.33222 203.557 9.61285 203.081C9.89348 202.606 9.73536 201.992 9.25969 201.712L2.36941 197.647L6.43438 190.757C6.71501 190.281 6.5569 189.668 6.08122 189.387C5.60555 189.107 4.99244 189.265 4.71181 189.74L0.138715 197.492ZM1 198C1.24972 198.968 1.24971 198.968 1.2497 198.968C1.24971 198.968 1.2497 198.968 1.2497 198.968C1.24971 198.968 1.24973 198.968 1.24976 198.968C1.24983 198.968 1.24994 198.968 1.25011 198.968C1.25044 198.968 1.25098 198.968 1.25173 198.968C1.25322 198.967 1.25554 198.967 1.25867 198.966C1.26494 198.964 1.27448 198.962 1.28726 198.959C1.31282 198.952 1.35134 198.942 1.40257 198.929C1.50503 198.903 1.65831 198.865 1.86033 198.814C2.26437 198.714 2.86338 198.566 3.64077 198.38L3.1741 196.435C2.39076 196.623 1.78605 196.772 1.37656 196.874C1.17181 196.925 1.01586 196.964 0.910794 196.991C0.858259 197.004 0.818442 197.014 0.791603 197.021C0.778183 197.025 0.768008 197.027 0.761109 197.029C0.75766 197.03 0.75503 197.03 0.753223 197.031C0.75232 197.031 0.751622 197.031 0.751131 197.031C0.750885 197.032 0.750691 197.032 0.750548 197.032C0.750477 197.032 0.750419 197.032 0.750373 197.032C0.750351 197.032 0.750326 197.032 0.750315 197.032C0.750294 197.032 0.750276 197.032 1 198ZM8.52406 197.25C9.96752 196.927 11.6007 196.571 13.4005 196.192L12.9884 194.235C11.18 194.615 9.53866 194.974 8.08749 195.298L8.52406 197.25ZM18.3051 195.189C19.8608 194.881 21.5001 194.565 23.2131 194.245L22.8466 192.279C21.1258 192.6 19.4789 192.918 17.916 193.227L18.3051 195.189ZM28.132 193.358C29.731 193.079 31.3787 192.801 33.0687 192.527L32.7486 190.553C31.0504 190.828 29.3948 191.107 27.7883 191.388L28.132 193.358ZM38.006 191.757C39.6268 191.515 41.2782 191.278 42.9549 191.05L42.6848 189.068C40.9991 189.298 39.3392 189.535 37.7102 189.779L38.006 191.757ZM47.912 190.408C49.5499 190.208 51.2064 190.017 52.8772 189.837L52.6634 187.849C50.9825 188.029 49.3163 188.221 47.6691 188.423L47.912 190.408ZM57.8476 189.342C59.4993 189.19 61.1604 189.052 62.8269 188.928L62.6785 186.933C61.0001 187.058 59.3276 187.198 57.6652 187.35L57.8476 189.342ZM67.8086 188.603C69.4704 188.51 71.1336 188.434 72.7943 188.376L72.7241 186.377C71.049 186.436 69.3721 186.513 67.6973 186.606L67.8086 188.603ZM77.7827 188.256C78.6148 188.246 79.4453 188.241 80.2736 188.241L80.2736 186.241C79.4369 186.241 78.5981 186.246 77.758 186.256L77.7827 188.256ZM80.2736 188.241C81.0906 188.241 81.9115 188.221 82.7356 188.181L82.6406 186.184C81.8471 186.221 81.0579 186.241 80.2736 186.241L80.2736 188.241ZM87.6478 187.733C89.2535 187.519 90.8676 187.241 92.4861 186.905L92.0796 184.946C90.505 185.273 88.9385 185.543 87.3838 185.75L87.6478 187.733ZM97.2545 185.756C98.818 185.329 100.382 184.853 101.944 184.336L101.315 182.437C99.7847 182.944 98.2544 183.409 96.7274 183.826L97.2545 185.756ZM106.548 182.687C108.061 182.106 109.57 181.49 111.069 180.843L110.277 179.006C108.801 179.643 107.318 180.249 105.831 180.82L106.548 182.687ZM115.514 178.828C116.983 178.13 118.441 177.408 119.884 176.665L118.969 174.886C117.544 175.62 116.105 176.333 114.656 177.021L115.514 178.828ZM124.182 174.371C125.613 173.581 127.026 172.776 128.417 171.959L127.405 170.234C126.028 171.042 124.63 171.839 123.216 172.62L124.182 174.371ZM132.587 169.442C133.983 168.577 135.352 167.706 136.691 166.833L135.599 165.157C134.272 166.022 132.915 166.885 131.533 167.742L132.587 169.442ZM140.739 164.136C142.112 163.199 143.447 162.269 144.737 161.352L143.578 159.722C142.298 160.632 140.975 161.555 139.612 162.483L140.739 164.136ZM148.66 158.507C150.026 157.496 151.328 156.513 152.559 155.566L151.34 153.981C150.118 154.92 148.826 155.896 147.47 156.899L148.66 158.507ZM156.387 152.567C157.786 151.449 159.049 150.416 160.162 149.492L158.883 147.954C157.78 148.87 156.527 149.895 155.138 151.004L156.387 152.567ZM163.871 146.339C164.455 145.829 164.905 145.43 165.21 145.158C165.362 145.022 165.478 144.917 165.556 144.846C165.595 144.811 165.624 144.784 165.644 144.766C165.655 144.757 165.662 144.75 165.667 144.745C165.67 144.742 165.672 144.741 165.673 144.739C165.674 144.739 165.675 144.738 165.675 144.738C165.675 144.738 165.675 144.738 165.675 144.737C165.676 144.737 165.676 144.737 165.676 144.737C165.676 144.737 165.676 144.737 165.676 144.737C165.676 144.737 165.676 144.737 165 144C164.324 143.263 164.324 143.263 164.324 143.263C164.324 143.263 164.324 143.263 164.324 143.263C164.324 143.263 164.324 143.263 164.324 143.263C164.324 143.263 164.324 143.263 164.324 143.263C164.324 143.263 164.324 143.264 164.323 143.264C164.322 143.265 164.32 143.266 164.318 143.269C164.314 143.273 164.307 143.279 164.297 143.287C164.279 143.304 164.251 143.33 164.213 143.364C164.138 143.432 164.025 143.534 163.876 143.667C163.578 143.934 163.134 144.328 162.557 144.831L163.871 146.339Z" fill="url(#paint1_linear)"/>
<path d="M103.156 360.968L103.486 361.344L103.156 360.968ZM0.662342 394.589C0.458679 394.775 0.444752 395.091 0.631236 395.295L3.67016 398.614C3.85664 398.818 4.17292 398.831 4.37658 398.645C4.58024 398.459 4.59417 398.142 4.40768 397.939L1.70642 394.988L4.65654 392.287C4.8602 392.101 4.87413 391.784 4.68764 391.581C4.50116 391.377 4.18489 391.363 3.98122 391.55L0.662342 394.589ZM1 394.957C0.978004 395.457 0.978026 395.457 0.978052 395.457C0.978064 395.457 0.978093 395.457 0.978119 395.457C0.97817 395.457 0.978235 395.457 0.978313 395.457C0.97847 395.457 0.978679 395.457 0.978941 395.457C0.979467 395.457 0.980204 395.457 0.981154 395.457C0.983053 395.457 0.9858 395.457 0.989391 395.457C0.996572 395.458 1.00713 395.458 1.02103 395.459C1.04882 395.46 1.08999 395.461 1.14425 395.463C1.25278 395.467 1.4137 395.472 1.62488 395.477C2.04723 395.487 2.67063 395.498 3.47793 395.5L3.48036 394.5C2.68058 394.498 2.0644 394.487 1.64896 394.477C1.44123 394.472 1.2837 394.467 1.17849 394.464C1.12589 394.462 1.08636 394.46 1.06019 394.459C1.04711 394.459 1.03736 394.458 1.03098 394.458C1.02779 394.458 1.02545 394.458 1.02395 394.458C1.0232 394.458 1.02266 394.458 1.02233 394.458C1.02217 394.458 1.02206 394.458 1.02201 394.458C1.02198 394.458 1.02196 394.458 1.02196 394.458C1.02196 394.458 1.02197 394.458 1.02197 394.458C1.02198 394.458 1.022 394.458 1 394.957ZM8.49516 395.412C9.98211 395.36 11.6639 395.28 13.517 395.159L13.4518 394.161C11.6093 394.281 9.93754 394.361 8.46015 394.413L8.49516 395.412ZM18.4979 394.763C20.0777 394.616 21.7416 394.44 23.4797 394.231L23.3601 393.238C21.6312 393.446 19.9763 393.621 18.405 393.768L18.4979 394.763ZM28.4546 393.564C30.0583 393.327 31.7103 393.062 33.4043 392.765L33.2318 391.78C31.5468 392.075 29.9037 392.339 28.3085 392.575L28.4546 393.564ZM38.323 391.834C39.9285 391.508 41.5639 391.153 43.2245 390.766L42.9979 389.792C41.3466 390.177 39.7203 390.53 38.1237 390.855L38.323 391.834ZM48.0981 389.559C49.691 389.14 51.3021 388.691 52.9277 388.212L52.6446 387.252C51.0289 387.729 49.4273 388.175 47.8436 388.592L48.0981 389.559ZM57.7104 386.72C59.2807 386.204 60.8607 385.658 62.4471 385.08L62.1047 384.14C60.5285 384.715 58.9586 385.257 57.3981 385.771L57.7104 386.72ZM67.1297 383.285C68.6678 382.666 70.2089 382.016 71.7502 381.333L71.3451 380.419C69.8146 381.097 68.2841 381.743 66.7564 382.357L67.1297 383.285ZM76.3 379.22C77.7935 378.493 79.2844 377.734 80.7702 376.941L80.2994 376.059C78.8249 376.845 77.345 377.599 75.8624 378.32L76.3 379.22ZM85.1511 374.494C86.5865 373.655 88.0146 372.783 89.4326 371.876L88.8938 371.033C87.4873 371.933 86.0707 372.798 84.6465 373.631L85.1511 374.494ZM93.6042 369.085C94.9669 368.132 96.3179 367.144 97.6547 366.121L97.0469 365.327C95.7216 366.341 94.3822 367.32 93.0309 368.266L93.6042 369.085ZM101.573 362.983C102.215 362.446 102.852 361.899 103.486 361.344L102.827 360.592C102.199 361.142 101.567 361.684 100.931 362.216L101.573 362.983ZM103.486 361.344C104.098 360.807 104.713 360.246 105.329 359.664L104.641 358.937C104.034 359.512 103.429 360.064 102.827 360.592L103.486 361.344ZM108.882 356.076C109.989 354.892 111.1 353.644 112.211 352.339L111.45 351.69C110.347 352.985 109.247 354.221 108.152 355.393L108.882 356.076ZM115.388 348.463C116.405 347.177 117.421 345.849 118.436 344.484L117.633 343.888C116.624 345.245 115.614 346.565 114.603 347.843L115.388 348.463ZM121.375 340.425C122.326 339.076 123.275 337.7 124.219 336.3L123.39 335.741C122.45 337.135 121.505 338.506 120.558 339.848L121.375 340.425ZM126.981 332.122C127.883 330.73 128.78 329.321 129.67 327.899L128.822 327.368C127.935 328.787 127.041 330.191 126.141 331.578L126.981 332.122ZM132.294 323.636C133.158 322.211 134.014 320.778 134.861 319.339L133.999 318.832C133.154 320.267 132.301 321.697 131.439 323.118L132.294 323.636ZM137.374 315.012C138.207 313.56 139.029 312.107 139.84 310.657L138.967 310.169C138.158 311.616 137.338 313.066 136.507 314.514L137.374 315.012ZM142.26 306.278C143.067 304.802 143.86 303.334 144.639 301.878L143.757 301.406C142.98 302.86 142.188 304.326 141.383 305.799L142.26 306.278ZM146.978 297.458C147.763 295.959 148.531 294.479 149.279 293.022L148.389 292.565C147.642 294.02 146.876 295.498 146.092 296.994L146.978 297.458ZM151.545 288.567C152.317 287.035 153.064 285.538 153.785 284.081L152.889 283.637C152.169 285.092 151.423 286.588 150.652 288.117L151.545 288.567ZM155.991 279.581C156.75 278.017 157.472 276.516 158.153 275.087L157.25 274.657C156.57 276.083 155.85 277.582 155.091 279.144L155.991 279.581ZM160.297 270.548C161.077 268.881 161.779 267.363 162.395 266.018L161.486 265.601C160.871 266.944 160.17 268.46 159.391 270.124L160.297 270.548ZM164.462 261.454C164.787 260.725 165.036 260.162 165.204 259.781C165.288 259.59 165.351 259.445 165.394 259.347C165.415 259.298 165.432 259.261 165.442 259.237C165.448 259.224 165.452 259.215 165.455 259.209C165.456 259.205 165.457 259.203 165.458 259.201C165.458 259.201 165.458 259.2 165.458 259.2C165.458 259.199 165.459 259.199 165.459 259.199C165.459 259.199 165.459 259.199 165.459 259.199C165.459 259.199 165.459 259.199 165.459 259.199C165.459 259.199 165.459 259.199 165 259C164.541 258.801 164.541 258.801 164.541 258.801C164.541 258.801 164.541 258.801 164.541 258.801C164.541 258.801 164.541 258.801 164.541 258.801C164.541 258.801 164.541 258.801 164.541 258.801C164.541 258.802 164.541 258.802 164.54 258.803C164.54 258.805 164.539 258.807 164.537 258.81C164.535 258.816 164.531 258.825 164.525 258.837C164.515 258.862 164.499 258.898 164.478 258.947C164.435 259.044 164.372 259.188 164.289 259.378C164.122 259.758 163.873 260.319 163.549 261.046L164.462 261.454ZM103.156 360.968L103.816 361.72L103.156 360.968ZM0.324684 394.22C-0.0826416 394.593 -0.110495 395.225 0.262471 395.633L6.34031 402.27C6.71328 402.678 7.34583 402.706 7.75316 402.333C8.16048 401.96 8.18834 401.327 7.81537 400.92L2.41284 395.02L8.31308 389.617C8.7204 389.244 8.74825 388.612 8.37529 388.204C8.00232 387.797 7.36977 387.769 6.96244 388.142L0.324684 394.22ZM1 394.957C0.956009 395.956 0.956049 395.956 0.956093 395.956C0.956112 395.956 0.95616 395.956 0.956198 395.956C0.956274 395.956 0.956364 395.956 0.956467 395.956C0.956673 395.956 0.956932 395.956 0.957245 395.956C0.95787 395.956 0.958707 395.957 0.959757 395.957C0.961856 395.957 0.964803 395.957 0.968595 395.957C0.976179 395.957 0.98714 395.958 1.00144 395.958C1.03005 395.959 1.07204 395.961 1.12713 395.963C1.23731 395.967 1.39993 395.972 1.61284 395.977C2.03864 395.987 2.66565 395.998 3.47671 396L3.48158 394C2.68556 393.998 2.07299 393.987 1.661 393.977C1.455 393.972 1.29916 393.968 1.19561 393.964C1.14384 393.962 1.10514 393.961 1.07978 393.96C1.0671 393.959 1.05775 393.959 1.05178 393.959C1.04879 393.959 1.04664 393.958 1.04534 393.958C1.0447 393.958 1.04426 393.958 1.04403 393.958C1.04392 393.958 1.04386 393.958 1.04385 393.958C1.04385 393.958 1.04386 393.958 1.04388 393.958C1.04389 393.958 1.04392 393.958 1.04393 393.958C1.04396 393.958 1.04399 393.958 1 394.957ZM8.51267 395.912C10.0044 395.86 11.6913 395.779 13.5496 395.658L13.4191 393.662C11.5819 393.782 9.91525 393.862 8.44264 393.913L8.51267 395.912ZM18.5443 395.261C20.1284 395.113 21.7967 394.937 23.5395 394.727L23.3003 392.741C21.576 392.949 19.9255 393.124 18.3585 393.27L18.5443 395.261ZM28.5276 394.058C30.1356 393.821 31.792 393.555 33.4906 393.258L33.1455 391.288C31.4651 391.582 29.8264 391.845 28.2355 392.08L28.5276 394.058ZM38.4226 392.324C40.0325 391.997 41.6725 391.641 43.3378 391.253L42.8846 389.305C41.238 389.688 39.6163 390.041 38.024 390.365L38.4226 392.324ZM48.2253 390.042C49.8229 389.622 51.4388 389.172 53.0692 388.691L52.5031 386.773C50.8922 387.248 49.2954 387.693 47.7163 388.108L48.2253 390.042ZM57.8666 387.195C59.4417 386.678 61.0267 386.129 62.6183 385.549L61.9335 383.67C60.3624 384.243 58.7975 384.784 57.242 385.296L57.8666 387.195ZM67.3164 383.749C68.8596 383.128 70.4061 382.476 71.9527 381.79L71.1426 379.962C69.6175 380.637 68.0922 381.281 66.5697 381.894L67.3164 383.749ZM76.5188 379.669C78.0177 378.94 79.5142 378.178 81.0056 377.382L80.064 375.618C78.5952 376.401 77.1208 377.152 75.6436 377.871L76.5188 379.669ZM85.4034 374.926C86.8445 374.083 88.2782 373.208 89.702 372.297L88.6245 370.612C87.2237 371.508 85.8128 372.37 84.3943 373.199L85.4034 374.926ZM93.8908 369.495C95.2593 368.537 96.616 367.545 97.9586 366.518L96.743 364.93C95.4235 365.94 94.0899 366.915 92.7443 367.856L93.8908 369.495ZM101.894 363.366C102.539 362.826 103.179 362.278 103.816 361.72L102.497 360.216C101.872 360.764 101.243 361.303 100.61 361.833L101.894 363.366ZM103.816 361.72C104.433 361.179 105.052 360.614 105.672 360.027L104.297 358.574C103.694 359.145 103.094 359.692 102.497 360.216L103.816 361.72ZM109.248 356.418C110.36 355.227 111.476 353.973 112.592 352.663L111.069 351.366C109.971 352.655 108.876 353.886 107.787 355.052L109.248 356.418ZM115.78 348.774C116.8 347.483 117.82 346.151 118.837 344.783L117.232 343.589C116.226 344.943 115.218 346.259 114.211 347.533L115.78 348.774ZM121.783 340.713C122.737 339.361 123.688 337.982 124.633 336.58L122.975 335.462C122.037 336.853 121.094 338.22 120.149 339.56L121.783 340.713ZM127.4 332.394C128.304 331 129.202 329.589 130.094 328.164L128.398 327.103C127.512 328.519 126.62 329.922 125.722 331.306L127.4 332.394ZM132.722 323.895C133.587 322.469 134.444 321.033 135.292 319.593L133.568 318.578C132.724 320.011 131.872 321.44 131.012 322.859L132.722 323.895ZM137.808 315.26C138.642 313.807 139.465 312.352 140.276 310.901L138.531 309.925C137.722 311.37 136.903 312.819 136.073 314.266L137.808 315.26ZM142.699 306.518C143.506 305.041 144.301 303.571 145.08 302.114L143.316 301.171C142.54 302.623 141.748 304.087 140.944 305.559L142.699 306.518ZM147.421 297.69C148.207 296.19 148.975 294.708 149.724 293.25L147.945 292.336C147.198 293.79 146.432 295.267 145.649 296.762L147.421 297.69ZM151.992 288.792C152.764 287.259 153.512 285.76 154.233 284.302L152.441 283.415C151.722 284.869 150.976 286.364 150.206 287.892L151.992 288.792ZM156.44 279.799C157.201 278.234 157.923 276.732 158.604 275.303L156.799 274.442C156.12 275.867 155.399 277.365 154.641 278.926L156.44 279.799ZM160.75 270.76C161.531 269.091 162.233 267.572 162.85 266.226L161.032 265.393C160.417 266.734 159.717 268.249 158.939 269.913L160.75 270.76ZM164.918 261.658C165.244 260.928 165.493 260.364 165.662 259.982C165.746 259.791 165.809 259.645 165.852 259.547C165.874 259.498 165.89 259.461 165.901 259.436C165.906 259.424 165.91 259.414 165.913 259.408C165.914 259.405 165.916 259.402 165.916 259.401C165.917 259.4 165.917 259.399 165.917 259.399C165.917 259.399 165.917 259.398 165.917 259.398C165.917 259.398 165.917 259.398 165.917 259.398C165.917 259.398 165.917 259.398 165.917 259.398C165.917 259.398 165.917 259.398 165 259C164.083 258.602 164.083 258.602 164.083 258.602C164.083 258.602 164.083 258.602 164.083 258.602C164.083 258.602 164.083 258.602 164.083 258.602C164.083 258.602 164.083 258.602 164.082 258.602C164.082 258.603 164.082 258.603 164.082 258.604C164.081 258.605 164.08 258.608 164.079 258.611C164.076 258.617 164.072 258.626 164.067 258.638C164.057 258.662 164.041 258.698 164.02 258.747C163.977 258.843 163.914 258.987 163.831 259.177C163.664 259.556 163.416 260.116 163.092 260.842L164.918 261.658Z" fill="url(#paint2_linear)"/>
<path d="M428.047 29.477L427.895 29.0007L428.047 29.477ZM525.395 25.1695C525.564 25.3878 525.524 25.7018 525.306 25.8709L521.748 28.6261C521.53 28.7952 521.216 28.7553 521.047 28.5369C520.878 28.3186 520.918 28.0046 521.136 27.8355L524.299 25.3864L521.849 22.2238C521.68 22.0055 521.72 21.6914 521.939 21.5223C522.157 21.3533 522.471 21.3932 522.64 21.6115L525.395 25.1695ZM525 25.4756C524.937 25.9716 524.937 25.9716 524.937 25.9716C524.937 25.9716 524.937 25.9716 524.937 25.9716C524.937 25.9716 524.937 25.9716 524.937 25.9716C524.937 25.9716 524.937 25.9716 524.936 25.9715C524.936 25.9715 524.935 25.9714 524.935 25.9713C524.933 25.9711 524.931 25.9708 524.928 25.9704C524.921 25.9696 524.911 25.9684 524.899 25.9668C524.873 25.9635 524.834 25.9587 524.782 25.9524C524.679 25.9397 524.526 25.921 524.324 25.897C523.919 25.8489 523.321 25.7796 522.546 25.6946L522.655 24.7005C523.433 24.7859 524.034 24.8556 524.442 24.904C524.645 24.9282 524.8 24.947 524.905 24.9599C524.957 24.9663 524.996 24.9712 525.023 24.9745C525.036 24.9762 525.046 24.9774 525.053 24.9783C525.056 24.9787 525.059 24.979 525.06 24.9792C525.061 24.9793 525.062 24.9794 525.062 24.9795C525.063 24.9795 525.063 24.9795 525.063 24.9796C525.063 24.9796 525.063 24.9796 525.063 24.9796C525.063 24.9796 525.063 24.9796 525.063 24.9796C525.063 24.9796 525.063 24.9796 525 25.4756ZM517.696 25.2035C516.253 25.0683 514.622 24.9244 512.827 24.7796L512.908 23.7829C514.707 23.928 516.342 24.0723 517.789 24.2079L517.696 25.2035ZM507.974 24.418C506.428 24.3122 504.8 24.2097 503.102 24.1139L503.159 23.1155C504.861 23.2115 506.492 23.3143 508.042 23.4204L507.974 24.418ZM498.231 23.8687C496.648 23.7988 495.02 23.7363 493.353 23.6835L493.384 22.684C495.056 22.7369 496.689 22.7996 498.275 22.8697L498.231 23.8687ZM488.484 23.561C486.883 23.5313 485.255 23.5116 483.605 23.5038L483.61 22.5038C485.265 22.5116 486.898 22.5314 488.503 22.5612L488.484 23.561ZM478.724 23.5163C477.114 23.5324 475.489 23.5608 473.854 23.6031L473.828 22.6034C475.469 22.561 477.099 22.5325 478.714 22.5163L478.724 23.5163ZM468.983 23.7703C467.365 23.84 465.741 23.9244 464.116 24.025L464.054 23.0269C465.685 22.9259 467.316 22.8412 468.94 22.7712L468.983 23.7703ZM459.255 24.3755C457.634 24.5097 456.016 24.6614 454.406 24.8321L454.301 23.8377C455.919 23.6661 457.544 23.5137 459.173 23.3789L459.255 24.3755ZM449.568 25.4074C447.948 25.6219 446.34 25.8576 444.751 26.1161L444.59 25.129C446.19 24.8689 447.808 24.6317 449.437 24.416L449.568 25.4074ZM439.963 26.9761C438.355 27.294 436.772 27.6379 435.218 28.0096L434.986 27.037C436.553 26.6621 438.149 26.3153 439.769 25.9951L439.963 26.9761ZM430.512 29.2501C429.731 29.4764 428.96 29.7107 428.199 29.9534L427.895 29.0007C428.664 28.7552 429.444 28.5183 430.233 28.2896L430.512 29.2501ZM428.199 29.9534C427.393 30.2105 426.59 30.4863 425.79 30.78L425.446 29.8413C426.259 29.5428 427.075 29.2623 427.895 29.0007L428.199 29.9534ZM421.071 32.7288C419.535 33.4329 418.012 34.1976 416.505 35.0161L416.028 34.1374C417.553 33.3088 419.096 32.5338 420.654 31.8197L421.071 32.7288ZM412.085 37.5935C410.644 38.491 409.22 39.4332 407.815 40.4133L407.243 39.5931C408.661 38.6037 410.1 37.6519 411.557 36.7447L412.085 37.5935ZM403.685 43.4409C402.331 44.4809 400.998 45.5516 399.688 46.6466L399.046 45.8792C400.367 44.776 401.71 43.6967 403.076 42.6479L403.685 43.4409ZM395.815 50.007C394.538 51.156 393.286 52.3231 392.061 53.5014L391.368 52.7806C392.6 51.5951 393.86 50.4205 395.146 49.2637L395.815 50.007ZM388.422 57.1099C387.21 58.3484 386.028 59.5917 384.88 60.8321L384.146 60.1527C385.3 58.9059 386.488 57.6559 387.707 56.4104L388.422 57.1099ZM381.447 64.6388C380.29 65.955 379.174 67.2589 378.101 68.5412L377.334 67.8995C378.412 66.6112 379.533 65.3012 380.696 63.9786L381.447 64.6388ZM374.861 72.5047C373.745 73.9031 372.688 75.2607 371.695 76.5638L370.899 75.9576C371.897 74.6489 372.958 73.2853 374.08 71.8808L374.861 72.5047ZM368.625 80.6845C367.519 82.2057 366.527 83.6077 365.66 84.8595L364.838 84.2901C365.709 83.0323 366.705 81.6241 367.817 80.0962L368.625 80.6845ZM362.801 89.1051C362.35 89.7968 362.006 90.3366 361.774 90.7031C361.659 90.8863 361.572 91.0262 361.513 91.12C361.484 91.1669 361.463 91.2023 361.448 91.2259C361.441 91.2377 361.435 91.2465 361.432 91.2523C361.43 91.2552 361.429 91.2573 361.428 91.2588C361.427 91.2594 361.427 91.26 361.427 91.2603C361.427 91.2604 361.427 91.2606 361.427 91.2606C361.427 91.2607 361.427 91.2607 361.427 91.2607C361.427 91.2607 361.427 91.2607 361 91C360.573 90.7393 360.573 90.7393 360.573 90.7393C360.573 90.7393 360.573 90.7393 360.573 90.7393C360.573 90.7392 360.573 90.7392 360.573 90.7391C360.574 90.739 360.574 90.7388 360.574 90.7386C360.574 90.7381 360.574 90.7375 360.575 90.7367C360.576 90.7351 360.577 90.7327 360.579 90.7295C360.583 90.7232 360.589 90.7139 360.596 90.7016C360.612 90.6771 360.634 90.6407 360.664 90.5928C360.723 90.497 360.812 90.3551 360.929 90.1698C361.162 89.7991 361.509 89.2549 361.964 88.5587L362.801 89.1051ZM428.047 29.477L427.743 28.5243L428.047 29.477ZM525.791 24.8633C526.129 25.3 526.049 25.9281 525.612 26.2662L518.496 31.7767C518.06 32.1148 517.432 32.035 517.094 31.5983C516.755 31.1616 516.835 30.5335 517.272 30.1954L523.597 25.2972L518.699 18.972C518.361 18.5354 518.441 17.9073 518.877 17.5691C519.314 17.231 519.942 17.3108 520.28 17.7475L525.791 24.8633ZM525 25.4756C524.874 26.4676 524.874 26.4676 524.874 26.4676C524.874 26.4676 524.874 26.4676 524.874 26.4676C524.874 26.4676 524.874 26.4676 524.874 26.4676C524.874 26.4676 524.874 26.4676 524.873 26.4676C524.873 26.4675 524.873 26.4674 524.872 26.4673C524.87 26.4672 524.868 26.4669 524.865 26.4665C524.859 26.4657 524.849 26.4645 524.836 26.4629C524.811 26.4597 524.772 26.4549 524.721 26.4486C524.619 26.436 524.466 26.4174 524.265 26.3935C523.862 26.3456 523.265 26.2765 522.491 26.1916L522.709 24.2035C523.489 24.2891 524.092 24.3589 524.501 24.4075C524.705 24.4317 524.861 24.4507 524.966 24.4636C525.018 24.4701 525.058 24.475 525.085 24.4784C525.098 24.48 525.108 24.4813 525.115 24.4822C525.119 24.4826 525.121 24.483 525.123 24.4832C525.124 24.4833 525.125 24.4834 525.125 24.4835C525.126 24.4835 525.126 24.4835 525.126 24.4835C525.126 24.4835 525.126 24.4836 525.126 24.4836C525.126 24.4836 525.126 24.4836 525.126 24.4836C525.126 24.4836 525.126 24.4836 525 25.4756ZM517.649 25.7014C516.209 25.5664 514.58 25.4226 512.787 25.278L512.948 23.2845C514.75 23.4298 516.387 23.5743 517.836 23.7101L517.649 25.7014ZM507.94 24.9169C506.396 24.8111 504.77 24.7088 503.074 24.6131L503.187 22.6163C504.891 22.7124 506.525 22.8153 508.077 22.9215L507.94 24.9169ZM498.209 24.3683C496.628 24.2984 495.002 24.236 493.337 24.1833L493.4 22.1843C495.074 22.2372 496.709 22.3 498.297 22.3702L498.209 24.3683ZM488.475 24.0609C486.876 24.0312 485.25 24.0116 483.603 24.0038L483.612 22.0038C485.27 22.0117 486.905 22.0314 488.512 22.0613L488.475 24.0609ZM478.729 24.0163C477.121 24.0323 475.499 24.0607 473.867 24.1029L473.815 22.1036C475.459 22.0611 477.091 22.0326 478.709 22.0164L478.729 24.0163ZM469.005 24.2698C467.389 24.3394 465.768 24.4237 464.146 24.524L464.023 22.5279C465.658 22.4267 467.291 22.3418 468.919 22.2717L469.005 24.2698ZM459.297 24.8738C457.679 25.0077 456.065 25.159 454.459 25.3293L454.248 23.3404C455.87 23.1685 457.5 23.0157 459.132 22.8807L459.297 24.8738ZM449.634 25.903C448.018 26.117 446.416 26.352 444.831 26.6096L444.51 24.6355C446.115 24.3745 447.737 24.1367 449.372 23.9203L449.634 25.903ZM440.06 27.4666C438.458 27.7833 436.881 28.1258 435.335 28.4959L434.869 26.5508C436.444 26.1742 438.046 25.826 439.672 25.5046L440.06 27.4666ZM430.651 29.7304C429.874 29.9554 429.107 30.1884 428.351 30.4297L427.743 28.5243C428.517 28.2774 429.301 28.0392 430.094 27.8094L430.651 29.7304ZM428.351 30.4297C427.552 30.6846 426.756 30.9581 425.962 31.2494L425.273 29.3719C426.093 29.071 426.916 28.7882 427.743 28.5243L428.351 30.4297ZM421.279 33.1834C419.754 33.8824 418.241 34.6421 416.744 35.4555L415.789 33.698C417.324 32.8643 418.877 32.0842 420.446 31.3652L421.279 33.1834ZM412.35 38.0179C410.916 38.9106 409.499 39.8479 408.101 40.8233L406.957 39.183C408.382 38.1889 409.828 37.2323 411.292 36.3202L412.35 38.0179ZM403.989 43.8373C402.641 44.873 401.314 45.9394 400.008 47.0303L398.726 45.4955C400.051 44.3881 401.4 43.3046 402.771 42.2514L403.989 43.8373ZM396.149 50.3787C394.877 51.5238 393.629 52.6871 392.407 53.8617L391.021 52.4202C392.257 51.2311 393.522 50.0527 394.812 48.892L396.149 50.3787ZM388.779 57.4596C387.57 58.6947 386.392 59.9346 385.247 61.1717L383.779 59.8131C384.936 58.563 386.127 57.3096 387.35 56.0606L388.779 57.4596ZM381.822 64.9689C380.668 66.2819 379.555 67.5827 378.484 68.8621L376.95 67.5786C378.031 66.2874 379.155 64.9743 380.32 63.6485L381.822 64.9689ZM375.252 72.8167C374.138 74.212 373.084 75.5667 372.092 76.8669L370.502 75.6545C371.501 74.3429 372.565 72.9764 373.689 71.5688L375.252 72.8167ZM369.03 80.9787C367.925 82.4966 366.936 83.8953 366.071 85.1442L364.427 84.0054C365.3 82.7446 366.298 81.3332 367.413 79.802L369.03 80.9787ZM363.22 89.3783C362.77 90.0678 362.427 90.6054 362.197 90.9698C362.083 91.1519 361.996 91.2908 361.938 91.3836C361.91 91.43 361.888 91.4649 361.874 91.488C361.867 91.4995 361.861 91.5081 361.858 91.5137C361.856 91.5165 361.855 91.5185 361.854 91.5198C361.854 91.5204 361.854 91.5209 361.853 91.5211C361.853 91.5213 361.853 91.5213 361.853 91.5214C361.853 91.5214 361.853 91.5214 361.853 91.5214C361.853 91.5214 361.853 91.5214 361.853 91.5214C361.853 91.5214 361.853 91.5213 361 91C360.147 90.4787 360.147 90.4786 360.147 90.4786C360.147 90.4786 360.147 90.4786 360.147 90.4785C360.147 90.4785 360.147 90.4784 360.147 90.4783C360.147 90.4782 360.147 90.478 360.147 90.4777C360.148 90.4772 360.148 90.4765 360.148 90.4757C360.15 90.4739 360.151 90.4714 360.153 90.4681C360.157 90.4616 360.163 90.452 360.171 90.4395C360.186 90.4145 360.209 90.3776 360.239 90.3292C360.299 90.2324 360.388 90.0894 360.506 89.9031C360.741 89.5304 361.089 88.984 361.545 88.2854L363.22 89.3783Z" fill="url(#paint3_linear)"/>
<path d="M390.526 160.701L390.587 160.205L390.526 160.701ZM472.841 134V133.5V134ZM525.499 160.727C525.485 161.002 525.25 161.214 524.974 161.2L520.48 160.968C520.204 160.953 519.992 160.718 520.007 160.442C520.021 160.167 520.256 159.955 520.532 159.969L524.527 160.176L524.733 156.181C524.747 155.905 524.983 155.693 525.258 155.708C525.534 155.722 525.746 155.957 525.732 156.233L525.499 160.727ZM525 160.701C524.629 161.036 524.629 161.036 524.629 161.036C524.629 161.036 524.629 161.036 524.629 161.036C524.629 161.036 524.629 161.036 524.629 161.036C524.629 161.036 524.629 161.036 524.628 161.035C524.628 161.035 524.628 161.035 524.627 161.034C524.626 161.033 524.625 161.031 524.623 161.029C524.618 161.024 524.611 161.017 524.602 161.007C524.584 160.987 524.557 160.957 524.521 160.918C524.448 160.839 524.338 160.721 524.193 160.568C523.904 160.263 523.474 159.816 522.913 159.255L523.62 158.548C524.188 159.116 524.624 159.569 524.92 159.881C525.067 160.037 525.18 160.157 525.255 160.239C525.293 160.28 525.322 160.312 525.341 160.333C525.351 160.344 525.358 160.352 525.363 160.357C525.366 160.36 525.368 160.362 525.369 160.364C525.37 160.364 525.37 160.365 525.371 160.365C525.371 160.366 525.371 160.366 525.371 160.366C525.371 160.366 525.371 160.366 525.371 160.366C525.371 160.366 525.371 160.366 525.371 160.366C525.371 160.366 525.371 160.366 525 160.701ZM519.295 155.83C518.185 154.831 516.919 153.733 515.512 152.579L516.146 151.806C517.566 152.97 518.844 154.078 519.964 155.087L519.295 155.83ZM511.591 149.513C510.309 148.557 508.949 147.59 507.518 146.63L508.075 145.8C509.52 146.769 510.894 147.746 512.189 148.711L511.591 149.513ZM503.309 143.965C501.908 143.131 500.457 142.319 498.96 141.543L499.42 140.656C500.935 141.441 502.404 142.262 503.821 143.106L503.309 143.965ZM494.471 139.4C492.963 138.741 491.42 138.13 489.846 137.577L490.177 136.634C491.776 137.195 493.343 137.816 494.871 138.483L494.471 139.4ZM485.097 136.127C483.502 135.714 481.883 135.369 480.243 135.105L480.402 134.118C482.074 134.387 483.725 134.738 485.347 135.159L485.097 136.127ZM475.317 134.569C474.495 134.524 473.67 134.5 472.841 134.5V133.5C473.689 133.5 474.533 133.524 475.372 133.571L475.317 134.569ZM472.841 134.5C472.036 134.5 471.234 134.525 470.434 134.574L470.373 133.576C471.193 133.526 472.016 133.5 472.841 133.5V134.5ZM465.651 135.141C464.075 135.415 462.505 135.77 460.941 136.195L460.679 135.231C462.27 134.798 463.87 134.435 465.479 134.155L465.651 135.141ZM456.327 137.646C454.818 138.181 453.313 138.771 451.81 139.404L451.422 138.482C452.94 137.843 454.463 137.246 455.993 136.704L456.327 137.646ZM447.378 141.389C445.923 142.076 444.47 142.794 443.016 143.531L442.563 142.64C444.023 141.899 445.486 141.177 446.951 140.485L447.378 141.389ZM438.696 145.774C437.262 146.531 435.829 147.298 434.393 148.064L433.922 147.182C435.357 146.416 436.793 145.648 438.229 144.89L438.696 145.774ZM430.082 150.351C428.638 151.11 427.19 151.858 425.738 152.587L425.289 151.693C426.734 150.968 428.176 150.223 429.618 149.466L430.082 150.351ZM421.334 154.717C419.846 155.407 418.351 156.066 416.85 156.683L416.47 155.758C417.956 155.147 419.436 154.495 420.914 153.81L421.334 154.717ZM412.262 158.419C410.705 158.954 409.138 159.434 407.561 159.846L407.308 158.879C408.858 158.473 410.401 158.001 411.937 157.473L412.262 158.419ZM402.752 160.879C401.133 161.148 399.502 161.335 397.857 161.43L397.8 160.431C399.406 160.339 401.002 160.156 402.588 159.893L402.752 160.879ZM392.925 161.424C392.108 161.374 391.288 161.299 390.465 161.197L390.587 160.205C391.39 160.304 392.19 160.377 392.986 160.426L392.925 161.424ZM390.465 161.197C389.6 161.09 388.735 160.963 387.873 160.818L388.039 159.832C388.888 159.975 389.738 160.1 390.587 160.205L390.465 161.197ZM382.75 159.755C381.027 159.335 379.339 158.863 377.713 158.364L378.007 157.408C379.616 157.902 381.285 158.368 382.987 158.784L382.75 159.755ZM372.762 156.705C370.995 156.066 369.358 155.423 367.897 154.82L368.279 153.896C369.727 154.494 371.351 155.131 373.102 155.765L372.762 156.705ZM363.116 152.719C362.371 152.37 361.785 152.085 361.386 151.887C361.186 151.788 361.032 151.711 360.929 151.658C360.877 151.632 360.837 151.611 360.81 151.598C360.797 151.591 360.787 151.585 360.78 151.582C360.777 151.58 360.774 151.579 360.772 151.578C360.771 151.577 360.771 151.577 360.77 151.577C360.77 151.577 360.77 151.577 360.769 151.576C360.769 151.576 360.769 151.576 360.769 151.576C360.769 151.576 360.769 151.576 360.769 151.576C360.769 151.576 360.769 151.576 361 151.133C361.231 150.689 361.231 150.689 361.231 150.689C361.231 150.689 361.231 150.689 361.231 150.689C361.231 150.689 361.231 150.689 361.231 150.689C361.231 150.689 361.231 150.689 361.231 150.689C361.231 150.69 361.232 150.69 361.233 150.69C361.234 150.691 361.237 150.692 361.24 150.694C361.246 150.697 361.255 150.702 361.268 150.708C361.293 150.721 361.331 150.741 361.382 150.767C361.483 150.818 361.633 150.894 361.83 150.991C362.223 151.186 362.802 151.468 363.54 151.813L363.116 152.719ZM390.526 160.701L390.648 159.708L390.526 160.701ZM472.841 134V133V134ZM525.999 160.753C525.97 161.304 525.5 161.728 524.948 161.7L515.96 161.234C515.409 161.206 514.985 160.736 515.013 160.184C515.042 159.633 515.512 159.209 516.064 159.237L524.053 159.651L524.466 151.661C524.495 151.11 524.965 150.686 525.517 150.714C526.068 150.743 526.492 151.213 526.464 151.765L525.999 160.753ZM525 160.701C524.257 161.37 524.257 161.371 524.257 161.371C524.257 161.371 524.257 161.371 524.257 161.371C524.257 161.371 524.257 161.371 524.257 161.371C524.257 161.371 524.257 161.371 524.257 161.371C524.257 161.37 524.257 161.37 524.256 161.37C524.256 161.369 524.254 161.367 524.252 161.365C524.248 161.36 524.242 161.353 524.233 161.344C524.216 161.325 524.189 161.296 524.153 161.257C524.082 161.179 523.974 161.063 523.83 160.912C523.544 160.61 523.117 160.166 522.559 159.609L523.973 158.194C524.545 158.766 524.984 159.222 525.283 159.537C525.432 159.694 525.546 159.817 525.623 159.9C525.661 159.942 525.691 159.974 525.711 159.996C525.721 160.007 525.728 160.015 525.734 160.021C525.736 160.024 525.738 160.027 525.74 160.028C525.741 160.029 525.741 160.03 525.742 160.03C525.742 160.03 525.742 160.031 525.742 160.031C525.742 160.031 525.742 160.031 525.743 160.031C525.743 160.031 525.743 160.031 525.743 160.031C525.743 160.031 525.743 160.031 525 160.701ZM518.96 156.202C517.856 155.207 516.595 154.114 515.195 152.966L516.463 151.42C517.889 152.589 519.173 153.702 520.299 154.716L518.96 156.202ZM511.293 149.914C510.016 148.963 508.663 148 507.24 147.046L508.354 145.385C509.806 146.359 511.187 147.341 512.488 148.31L511.293 149.914ZM503.053 144.395C501.66 143.565 500.217 142.758 498.73 141.987L499.65 140.212C501.175 141.002 502.652 141.828 504.076 142.677L503.053 144.395ZM494.27 139.858C492.774 139.204 491.242 138.597 489.68 138.049L490.342 136.162C491.954 136.727 493.532 137.353 495.071 138.025L494.27 139.858ZM484.971 136.611C483.391 136.201 481.787 135.86 480.163 135.599L480.481 133.624C482.17 133.896 483.836 134.251 485.473 134.675L484.971 136.611ZM475.289 135.068C474.477 135.023 473.66 135 472.841 135V133C473.698 133 474.551 133.024 475.4 133.071L475.289 135.068ZM472.841 135C472.047 135 471.255 135.025 470.465 135.073L470.343 133.077C471.173 133.026 472.005 133 472.841 133V135ZM465.736 135.633C464.177 135.904 462.623 136.256 461.072 136.678L460.548 134.748C462.152 134.312 463.767 133.945 465.394 133.663L465.736 135.633ZM456.494 138.117C454.996 138.649 453.499 139.235 452.004 139.865L451.228 138.021C452.754 137.379 454.286 136.778 455.826 136.232L456.494 138.117ZM447.592 141.841C446.142 142.526 444.693 143.241 443.242 143.977L442.337 142.194C443.8 141.451 445.267 140.727 446.738 140.033L447.592 141.841ZM438.929 146.216C437.497 146.973 436.065 147.739 434.628 148.506L433.686 146.741C435.121 145.975 436.558 145.207 437.995 144.448L438.929 146.216ZM430.315 150.794C428.868 151.554 427.417 152.304 425.962 153.034L425.065 151.246C426.507 150.523 427.946 149.779 429.385 149.023L430.315 150.794ZM421.544 155.171C420.05 155.863 418.549 156.525 417.04 157.145L416.28 155.296C417.758 154.688 419.232 154.038 420.703 153.356L421.544 155.171ZM412.425 158.892C410.857 159.43 409.278 159.914 407.688 160.33L407.182 158.395C408.719 157.993 410.249 157.524 411.775 157L412.425 158.892ZM402.834 161.372C401.198 161.644 399.549 161.833 397.886 161.929L397.771 159.932C399.359 159.841 400.936 159.66 402.506 159.399L402.834 161.372ZM392.894 161.923C392.067 161.872 391.237 161.796 390.403 161.693L390.648 159.708C391.441 159.806 392.23 159.879 393.017 159.927L392.894 161.923ZM390.403 161.693C389.531 161.586 388.659 161.457 387.79 161.311L388.122 159.339C388.964 159.48 389.807 159.605 390.648 159.708L390.403 161.693ZM382.631 160.241C380.898 159.818 379.2 159.343 377.566 158.842L378.153 156.93C379.755 157.421 381.414 157.885 383.106 158.298L382.631 160.241ZM372.592 157.176C370.817 156.533 369.173 155.888 367.706 155.282L368.47 153.433C369.912 154.029 371.529 154.664 373.273 155.295L372.592 157.176ZM362.904 153.172C362.155 152.821 361.566 152.535 361.163 152.335C360.962 152.235 360.807 152.157 360.702 152.104C360.649 152.077 360.609 152.056 360.582 152.042C360.568 152.035 360.558 152.03 360.55 152.026C360.547 152.024 360.544 152.023 360.542 152.022C360.541 152.021 360.54 152.021 360.54 152.02C360.539 152.02 360.539 152.02 360.539 152.02C360.539 152.02 360.539 152.02 360.539 152.02C360.539 152.02 360.539 152.02 360.538 152.02C360.538 152.02 360.538 152.02 361 151.133C361.462 150.246 361.462 150.246 361.462 150.246C361.462 150.246 361.462 150.246 361.461 150.246C361.461 150.246 361.461 150.246 361.461 150.246C361.462 150.246 361.462 150.246 361.462 150.246C361.462 150.246 361.462 150.246 361.463 150.246C361.464 150.247 361.466 150.248 361.469 150.25C361.475 150.253 361.484 150.257 361.497 150.264C361.521 150.276 361.559 150.296 361.608 150.321C361.708 150.371 361.857 150.446 362.052 150.543C362.442 150.737 363.017 151.017 363.752 151.36L362.904 153.172Z" fill="url(#paint4_linear)"/>
<path d="M428.444 293.651L428.161 294.063L428.444 293.651ZM525.354 317.646C525.549 317.842 525.549 318.158 525.354 318.354L522.172 321.536C521.976 321.731 521.66 321.731 521.464 321.536C521.269 321.34 521.269 321.024 521.464 320.828L524.293 318L521.464 315.172C521.269 314.976 521.269 314.66 521.464 314.464C521.66 314.269 521.976 314.269 522.172 314.464L525.354 317.646ZM525 318C525 318.5 525 318.5 525 318.5C525 318.5 525 318.5 525 318.5C525 318.5 525 318.5 525 318.5C525 318.5 524.999 318.5 524.999 318.5C524.999 318.5 524.998 318.5 524.997 318.5C524.995 318.5 524.992 318.5 524.989 318.5C524.982 318.5 524.971 318.5 524.957 318.5C524.93 318.5 524.888 318.5 524.834 318.499C524.724 318.499 524.562 318.497 524.35 318.495C523.925 318.489 523.297 318.479 522.486 318.458L522.513 317.458C523.319 317.479 523.941 317.489 524.362 317.495C524.573 317.497 524.733 317.499 524.84 317.499C524.893 317.5 524.934 317.5 524.96 317.5C524.974 317.5 524.984 317.5 524.99 317.5C524.994 317.5 524.996 317.5 524.998 317.5C524.999 317.5 524.999 317.5 525 317.5C525 317.5 525 317.5 525 317.5C525 317.5 525 317.5 525 317.5C525 317.5 525 317.5 525 317.5C525 317.5 525 317.5 525 318ZM517.435 318.261C515.934 318.186 514.239 318.087 512.377 317.956L512.447 316.959C514.302 317.089 515.991 317.187 517.485 317.262L517.435 318.261ZM507.357 317.558C505.762 317.417 504.084 317.254 502.337 317.067L502.443 316.073C504.184 316.259 505.856 316.421 507.445 316.562L507.357 317.558ZM497.304 316.482C495.682 316.278 494.015 316.054 492.309 315.807L492.453 314.817C494.152 315.063 495.813 315.287 497.429 315.49L497.304 316.482ZM487.316 315.033C485.678 314.763 484.014 314.471 482.33 314.157L482.513 313.174C484.191 313.487 485.848 313.777 487.479 314.047L487.316 315.033ZM477.38 313.178C475.748 312.836 474.102 312.472 472.448 312.085L472.676 311.111C474.322 311.496 475.96 311.859 477.585 312.199L477.38 313.178ZM467.54 310.871C465.916 310.447 464.289 310 462.664 309.528L462.943 308.567C464.559 309.037 466.177 309.482 467.792 309.903L467.54 310.871ZM457.829 308.046C456.226 307.528 454.629 306.984 453.042 306.413L453.381 305.472C454.957 306.039 456.544 306.579 458.137 307.094L457.829 308.046ZM448.312 304.617C446.742 303.987 445.187 303.329 443.652 302.641L444.061 301.729C445.583 302.411 447.126 303.064 448.684 303.688L448.312 304.617ZM439.079 300.471C437.563 299.709 436.071 298.914 434.609 298.085L435.102 297.215C436.549 298.035 438.026 298.822 439.528 299.577L439.079 300.471ZM430.268 295.464C429.556 295.006 428.854 294.539 428.161 294.063L428.727 293.239C429.411 293.709 430.106 294.171 430.809 294.623L430.268 295.464ZM428.161 294.063C427.456 293.579 426.749 293.075 426.038 292.553L426.631 291.747C427.333 292.263 428.032 292.761 428.727 293.239L428.161 294.063ZM421.903 289.34C420.584 288.262 419.26 287.129 417.932 285.951L418.597 285.203C419.914 286.374 421.229 287.497 422.536 288.566L421.903 289.34ZM414.084 282.412C412.837 281.228 411.59 280.009 410.347 278.76L411.055 278.055C412.293 279.297 413.533 280.51 414.772 281.687L414.084 282.412ZM406.712 275.022C405.522 273.769 404.336 272.494 403.158 271.202L403.897 270.528C405.071 271.815 406.252 273.085 407.437 274.333L406.712 275.022ZM399.679 267.315C398.531 266.01 397.393 264.693 396.267 263.371L397.028 262.722C398.151 264.041 399.286 265.354 400.43 266.654L399.679 267.315ZM392.915 259.375C391.801 258.027 390.701 256.678 389.618 255.333L390.397 254.706C391.477 256.048 392.575 257.394 393.686 258.738L392.915 259.375ZM386.374 251.252C385.288 249.869 384.223 248.495 383.181 247.138L383.975 246.53C385.014 247.884 386.077 249.254 387.16 250.634L386.374 251.252ZM380.028 242.983C378.958 241.558 377.92 240.16 376.916 238.794L377.721 238.202C378.723 239.565 379.76 240.961 380.827 242.383L380.028 242.983ZM373.859 234.595C372.794 233.117 371.779 231.693 370.82 230.335L371.637 229.758C372.594 231.113 373.607 232.535 374.67 234.01L373.859 234.595ZM367.833 226.062C366.74 224.483 365.753 223.039 364.885 221.758L365.713 221.197C366.579 222.476 367.564 223.917 368.655 225.493L367.833 226.062ZM361.986 217.424C361.529 216.731 361.177 216.193 360.94 215.828C360.821 215.645 360.731 215.506 360.671 215.412C360.64 215.365 360.618 215.33 360.602 215.306C360.595 215.294 360.589 215.285 360.585 215.279C360.583 215.276 360.582 215.274 360.581 215.272C360.58 215.271 360.58 215.271 360.579 215.27C360.579 215.27 360.579 215.27 360.579 215.27C360.579 215.27 360.579 215.27 360.579 215.27C360.579 215.27 360.579 215.27 360.579 215.27C360.579 215.27 360.579 215.27 361 215C361.421 214.73 361.421 214.73 361.421 214.73C361.421 214.73 361.421 214.73 361.421 214.73C361.421 214.73 361.421 214.73 361.421 214.73C361.421 214.73 361.421 214.73 361.421 214.731C361.421 214.731 361.422 214.732 361.422 214.732C361.423 214.734 361.425 214.736 361.426 214.739C361.43 214.745 361.436 214.753 361.443 214.765C361.458 214.788 361.481 214.824 361.511 214.87C361.571 214.963 361.66 215.101 361.778 215.283C362.014 215.646 362.365 216.182 362.821 216.874L361.986 217.424ZM428.444 293.651L427.877 294.475L428.444 293.651ZM525.707 317.293C526.098 317.683 526.098 318.317 525.707 318.707L519.343 325.071C518.953 325.462 518.319 325.462 517.929 325.071C517.538 324.681 517.538 324.047 517.929 323.657L523.586 318L517.929 312.343C517.538 311.953 517.538 311.319 517.929 310.929C518.319 310.538 518.953 310.538 519.343 310.929L525.707 317.293ZM525 318C525 319 525 319 525 319C525 319 525 319 525 319C525 319 525 319 525 319C524.999 319 524.999 319 524.999 319C524.998 319 524.998 319 524.997 319C524.995 319 524.992 319 524.988 319C524.981 319 524.97 319 524.956 319C524.927 319 524.886 319 524.831 318.999C524.72 318.999 524.557 318.997 524.343 318.995C523.916 318.989 523.286 318.979 522.473 318.957L522.526 316.958C523.329 316.979 523.95 316.99 524.368 316.995C524.578 316.997 524.737 316.999 524.843 316.999C524.896 317 524.936 317 524.962 317C524.975 317 524.985 317 524.991 317C524.994 317 524.997 317 524.998 317C524.999 317 524.999 317 525 317C525 317 525 317 525 317C525 317 525 317 525 317C525 317 525 317 525 317C525 317 525 317 525 318ZM517.41 318.761C515.906 318.685 514.208 318.586 512.342 318.455L512.482 316.46C514.334 316.59 516.019 316.688 517.51 316.763L517.41 318.761ZM507.313 318.056C505.715 317.914 504.034 317.752 502.284 317.564L502.496 315.576C504.235 315.762 505.903 315.923 507.489 316.064L507.313 318.056ZM497.242 316.978C495.617 316.774 493.946 316.549 492.238 316.302L492.525 314.322C494.22 314.568 495.878 314.791 497.491 314.994L497.242 316.978ZM487.234 315.526C485.593 315.256 483.926 314.963 482.238 314.649L482.605 312.682C484.279 312.995 485.932 313.284 487.56 313.553L487.234 315.526ZM477.278 313.667C475.642 313.324 473.992 312.96 472.334 312.571L472.79 310.624C474.432 311.009 476.066 311.37 477.688 311.71L477.278 313.667ZM467.413 311.354C465.786 310.93 464.154 310.481 462.524 310.008L463.082 308.087C464.694 308.555 466.307 308.999 467.918 309.419L467.413 311.354ZM457.676 308.522C456.068 308.002 454.465 307.457 452.873 306.884L453.55 305.002C455.121 305.567 456.702 306.105 458.291 306.619L457.676 308.522ZM448.126 305.081C446.55 304.449 444.989 303.788 443.448 303.098L444.265 301.272C445.782 301.952 447.318 302.602 448.87 303.224L448.126 305.081ZM438.855 300.918C437.331 300.152 435.832 299.353 434.363 298.52L435.349 296.78C436.788 297.596 438.258 298.379 439.753 299.131L438.855 300.918ZM429.997 295.885C429.282 295.424 428.575 294.954 427.877 294.475L429.01 292.827C429.69 293.294 430.38 293.753 431.08 294.203L429.997 295.885ZM427.877 294.475C427.168 293.988 426.457 293.481 425.742 292.956L426.927 291.344C427.625 291.857 428.32 292.352 429.01 292.827L427.877 294.475ZM421.586 289.727C420.262 288.644 418.932 287.507 417.6 286.325L418.929 284.829C420.242 285.996 421.551 287.114 422.852 288.179L421.586 289.727ZM413.739 282.774C412.489 281.587 411.239 280.365 409.993 279.113L411.41 277.702C412.644 278.941 413.881 280.15 415.116 281.324L413.739 282.774ZM406.35 275.366C405.157 274.11 403.969 272.833 402.789 271.539L404.267 270.191C405.438 271.476 406.617 272.743 407.8 273.989L406.35 275.366ZM399.303 267.645C398.154 266.338 397.014 265.019 395.886 263.695L397.409 262.398C398.53 263.715 399.663 265.025 400.805 266.324L399.303 267.645ZM392.53 259.694C391.414 258.344 390.313 256.993 389.229 255.647L390.787 254.393C391.866 255.733 392.961 257.077 394.071 258.419L392.53 259.694ZM385.981 251.561C384.893 250.176 383.827 248.801 382.785 247.443L384.371 246.225C385.409 247.578 386.471 248.947 387.554 250.325L385.981 251.561ZM379.628 243.283C378.557 241.857 377.518 240.457 376.513 239.09L378.124 237.906C379.125 239.267 380.161 240.662 381.227 242.083L379.628 243.283ZM373.453 234.887C372.387 233.407 371.372 231.982 370.412 230.623L372.045 229.469C373.002 230.824 374.014 232.244 375.076 233.718L373.453 234.887ZM367.422 226.347C366.327 224.766 365.34 223.321 364.471 222.038L366.127 220.916C366.992 222.194 367.976 223.634 369.066 225.209L367.422 226.347ZM361.569 217.7C361.111 217.005 360.758 216.466 360.521 216.1C360.402 215.917 360.311 215.777 360.251 215.683C360.22 215.636 360.197 215.6 360.182 215.576C360.174 215.564 360.168 215.555 360.164 215.549C360.162 215.546 360.161 215.544 360.16 215.542C360.159 215.541 360.159 215.541 360.159 215.54C360.158 215.54 360.158 215.54 360.158 215.54C360.158 215.54 360.158 215.54 360.158 215.54C360.158 215.54 360.158 215.54 360.158 215.54C360.158 215.54 360.158 215.54 361 215C361.842 214.46 361.842 214.46 361.842 214.46C361.842 214.46 361.842 214.46 361.842 214.46C361.842 214.46 361.842 214.46 361.842 214.46C361.842 214.461 361.842 214.461 361.842 214.461C361.842 214.461 361.843 214.462 361.843 214.462C361.844 214.464 361.845 214.466 361.847 214.469C361.851 214.474 361.856 214.483 361.864 214.495C361.879 214.518 361.901 214.553 361.931 214.599C361.991 214.691 362.08 214.829 362.198 215.01C362.433 215.373 362.783 215.908 363.238 216.598L361.569 217.7Z" fill="url(#paint5_linear)"/>
<defs>
<linearGradient id="paint0_linear" x1="1" y1="8" x2="165" y2="71" gradientUnits="userSpaceOnUse">
<stop stop-color="#FC3698"/>
<stop offset="0.826042" stop-color="#FC3698" stop-opacity="0.5"/>
<stop offset="1" stop-color="#FC3698" stop-opacity="0"/>
</linearGradient>
<linearGradient id="paint1_linear" x1="1" y1="198" x2="165" y2="144" gradientUnits="userSpaceOnUse">
<stop stop-color="#FC3698"/>
<stop offset="0.826042" stop-color="#FC3698" stop-opacity="0.5"/>
<stop offset="1" stop-color="#FC3698" stop-opacity="0"/>
</linearGradient>
<linearGradient id="paint2_linear" x1="1.00001" y1="395" x2="165" y2="259" gradientUnits="userSpaceOnUse">
<stop stop-color="#FC3698"/>
<stop offset="0.826042" stop-color="#FC3698" stop-opacity="0.5"/>
<stop offset="1" stop-color="#FC3698" stop-opacity="0"/>
</linearGradient>
<linearGradient id="paint3_linear" x1="525" y1="22.9746" x2="359.4" y2="86.8528" gradientUnits="userSpaceOnUse">
<stop stop-color="#FC3698"/>
<stop offset="0.826042" stop-color="#FC3698" stop-opacity="0.5"/>
<stop offset="1" stop-color="#FC3698" stop-opacity="0"/>
</linearGradient>
<linearGradient id="paint4_linear" x1="525.502" y1="165.006" x2="371.811" y2="196.714" gradientUnits="userSpaceOnUse">
<stop stop-color="#FC3698"/>
<stop offset="0.826042" stop-color="#FC3698" stop-opacity="0.5"/>
<stop offset="1" stop-color="#FC3698" stop-opacity="0"/>
</linearGradient>
<linearGradient id="paint5_linear" x1="525" y1="318" x2="434.605" y2="170.034" gradientUnits="userSpaceOnUse">
<stop stop-color="#FC3698"/>
<stop offset="0.826042" stop-color="#FC3698" stop-opacity="0.5"/>
<stop offset="1" stop-color="#FC3698" stop-opacity="0"/>
</linearGradient>
</defs>
</svg>
