<svg xmlns="http://www.w3.org/2000/svg" xmlns:xlink="http://www.w3.org/1999/xlink">
  <symbol width="13" height="13" viewBox="0 0 13 13" fill="none" id= "inst">
    <path d="M6.99722 1.00343C4.53963 1.00343 2.2059 0.784989 1.31451 3.07088C0.946309 4.015 0.999779 5.24113 0.999779 6.99681C0.999779 8.53742 0.95037 9.98538 1.31451 10.9221C2.20387 13.2093 4.55655 12.9902 6.99587 12.9902C9.34922 12.9902 11.7757 13.235 12.6779 10.9221C13.0468 9.96847 12.9926 8.7606 12.9926 6.99681C12.9926 4.65546 13.1219 3.14392 11.9855 2.00909C10.8349 0.859382 9.27883 1.00343 6.99451 1.00343H6.99722ZM6.45981 2.08349C11.5862 2.07537 12.2386 1.50593 11.8786 9.41661C11.7506 12.2145 9.6186 11.9074 6.9979 11.9074C2.21944 11.9074 2.08204 11.7708 2.08204 6.9941C2.08204 2.16194 2.46107 2.08619 6.45981 2.08213V2.08349ZM10.1987 3.07832C9.80135 3.07832 9.47918 3.40024 9.47918 3.79723C9.47918 4.19422 9.80135 4.51614 10.1987 4.51614C10.596 4.51614 10.9181 4.19422 10.9181 3.79723C10.9181 3.40024 10.596 3.07832 10.1987 3.07832V3.07832ZM6.99722 3.91896C5.29633 3.91896 3.91762 5.29726 3.91762 6.99681C3.91762 8.69635 5.29633 10.074 6.99722 10.074C8.69811 10.074 10.0761 8.69635 10.0761 6.99681C10.0761 5.29726 8.69811 3.91896 6.99722 3.91896V3.91896ZM6.99722 4.99901C9.64026 4.99901 9.64365 8.9946 6.99722 8.9946C4.35485 8.9946 4.35079 4.99901 6.99722 4.99901Z" fill="currentColor"/>
  </symbol>

  <symbol width="10" height="18" viewBox="0 0 10 18" fill="none" id="fb">
    <path d="M9.34466 10.0491L9.86272 6.81569H6.62053V4.71744C6.62053 3.83316 7.07335 2.97106 8.52552 2.97106H9.99951V0.218773C9.99951 0.218773 8.66199 0 7.38315 0C4.71298 0 2.96788 1.54826 2.96788 4.35103V6.81569H-0.000488281V10.0491H2.96788V17.8638C3.56277 17.9533 4.17301 18 4.79421 18C5.41564 18 6.02556 17.9533 6.62053 17.8638V10.0491H9.34466Z" fill="currentColor"/>
  </symbol>

  <symbol width="14" height="10" viewBox="0 0 14 10" fill="none" id="youtube">
    <path d="M9.38 5.27945L5.85707 7.05716C5.71935 7.13385 5.25 7.03198 5.25 6.87154V3.22078C5.25 3.05855 5.72311 2.95677 5.86119 3.03766L9.23335 4.90982C9.37484 4.99179 9.5228 5.19999 9.38 5.27945ZM14 3.13462C14 1.4037 12.6243 0 10.9276 0H3.07212C1.37541 0 0 1.4037 0 3.13462V6.86457C0 8.59621 1.37541 10 3.07212 10H10.9276C12.6243 10 14 8.59621 14 6.86457V3.13462Z" fill="currentColor"/>
  </symbol>

  <symbol width="25" height="27" viewBox="0 0 25 27" fill="none" id="vector">
    <path d="M1.38889 0C0.621827 0 0 0.604416 0 1.35C0 2.09558 0.621827 2.7 1.38889 2.7H20.8333C21.6004 2.7 22.2222 2.09558 22.2222 1.35C22.2222 0.604416 21.6004 0 20.8333 0H1.38889Z" fill="#8867A3"/>
    <path d="M0 9.45C0 8.70442 0.621827 8.1 1.38889 8.1H18.0556C18.8226 8.1 19.4444 8.70442 19.4444 9.45C19.4444 10.1956 18.8226 10.8 18.0556 10.8H1.38889C0.621827 10.8 0 10.1956 0 9.45Z" fill="#8867A3"/>
    <path d="M1.38889 16.2C0.621827 16.2 0 16.8044 0 17.55C0 18.2956 0.621827 18.9 1.38889 18.9H23.6111C24.3782 18.9 25 18.2956 25 17.55C25 16.8044 24.3782 16.2 23.6111 16.2H1.38889Z" fill="#8867A3"/>
    <path d="M1.38889 24.3C0.621827 24.3 0 24.9044 0 25.65C0 26.3956 0.621827 27 1.38889 27H12.5C13.2671 27 13.8889 26.3956 13.8889 25.65C13.8889 24.9044 13.2671 24.3 12.5 24.3H1.38889Z" fill="#8867A3"/>
  </symbol>

  <symbol width="15" height="14" viewBox="0 0 15 14" fill="none" id="cross">
    <path d="M12.8481 13.6554C13.3404 14.1148 14.1385 14.1148 14.6308 13.6554C15.1231 13.1959 15.1231 12.451 14.6308 11.9915L9.28271 7L14.6308 2.00847C15.1231 1.54901 15.1231 0.804078 14.6308 0.344619C14.1385 -0.114841 13.3404 -0.114841 12.8481 0.344619L7.50001 5.33615L2.15191 0.344594C1.65963 -0.114865 0.861489 -0.114865 0.36921 0.344594C-0.123068 0.804053 -0.123069 1.54898 0.36921 2.00844L5.71731 7L0.369209 11.9916C-0.12307 12.451 -0.123069 13.1959 0.369209 13.6554C0.861487 14.1149 1.65963 14.1149 2.15191 13.6554L7.50001 8.66385L12.8481 13.6554Z" fill="white"/>
  </symbol>

</svg>