<svg xmlns="http://www.w3.org/2000/svg" xmlns:xlink="http://www.w3.org/1999/xlink">
  <symbol viewBox="0 0 80 80" fill="none" id="1">
    <path d="M65.9853 70.9818C66.2663 71.042 66.5573 70.9517 66.7479 70.731C66.9386 70.5103 67.0088 70.2194 66.9185 69.9485L65.0521 63.9798C64.9919 63.7691 64.8414 63.5986 64.6507 63.4983C64.4601 63.398 64.2393 63.3779 64.0387 63.4481C63.6172 63.5785 63.3764 64.04 63.5068 64.4613L64.9317 69.0056L64.7411 68.9354C58.0581 66.3573 58.9412 57.69 59.0616 56.707C59.0917 56.4863 59.1117 56.2656 59.1218 56.0549V55.9847L59.192 55.9646C59.2322 55.9546 60.5366 55.5433 60.6169 55.5232L60.7173 55.4932L62.2525 60.4086C62.3127 60.6192 62.4632 60.7898 62.6539 60.8801C62.8446 60.9804 63.0653 61.0004 63.266 60.9302C63.6874 60.7998 63.9283 60.3384 63.7978 59.917L62.102 54.49L62.1321 54.4499C62.5134 53.868 62.6037 53.2361 62.393 52.564L62.3428 52.4035L62.5134 52.4335C63.8681 52.7044 65.2127 52.243 66.1158 51.2097C66.9587 50.2367 67.2196 48.9627 66.8182 47.789C66.0556 45.582 65.1123 42.9237 64.1992 40.3657C63.256 37.6973 62.2726 34.9487 61.53 32.7819C60.9179 30.9963 59.8543 29.3611 58.4695 28.0771L55.2886 25.1178C55.1281 24.9673 54.9174 24.8871 54.7066 24.8971C54.4859 24.9071 54.2852 24.9974 54.1447 25.1579C53.8437 25.489 53.8537 26.0006 54.1848 26.3015L57.3658 29.2708C58.5599 30.3743 59.463 31.7787 59.9948 33.3135C60.7373 35.4803 61.7207 38.229 62.6639 40.8973C63.5771 43.4554 64.5203 46.1137 65.2829 48.3206C65.4535 48.8222 65.3933 49.3539 65.1123 49.8354C64.6909 50.5476 63.9182 50.9188 63.0653 50.8686C62.2626 50.8084 61.5802 50.3671 61.3193 49.7451L56.9142 38.5801C56.2319 36.8948 55.0478 35.5004 53.4925 34.5474C52.5191 33.9455 52.5191 33.9455 46.2677 31.9994C44.7123 31.5179 42.7757 30.916 40.3373 30.1536C39.8256 29.9931 39.3038 30.2339 39.083 30.7154C38.8623 31.2069 39.0329 31.7586 39.4944 32.0295C43.8293 34.6477 48.5555 38.2992 52.78 42.3218C53.4122 42.9237 53.5527 43.8667 53.1413 44.629L52.8804 45.0905C52.3987 45.9632 51.2949 46.3244 50.4019 45.903C49.6493 45.5519 46.2576 43.977 43.4982 42.693L39.9059 41.0177C39.8758 41.0077 39.8456 40.9876 39.8155 40.9776L30.2327 37.918C27.4732 37.0352 25.1051 35.3299 23.3992 32.9825C22.0345 31.1066 20.5695 30.3141 18.5526 29.2307C18.2415 29.0602 17.9104 28.8796 17.5692 28.699L17.4789 28.6489L25.7975 13.5314L26.4196 13.8825C28.4766 15.0261 31.0455 16.4606 35.0191 17.3534L45.4348 19.7008C46.8597 20.0218 48.1843 20.714 49.2479 21.7171L51.0541 23.4024C51.2147 23.5529 51.4254 23.6331 51.6361 23.6231C51.8569 23.6131 52.0575 23.5228 52.198 23.3623C52.4991 23.0312 52.489 22.5196 52.1579 22.2187L50.3517 20.5334C49.0773 19.3397 47.4919 18.507 45.786 18.1258L35.3703 15.7684C31.6174 14.9258 29.2092 13.5816 27.0919 12.3979C26.8912 12.2875 26.6905 12.1772 26.4898 12.0668L26.4296 12.0367L26.4397 11.9665C26.55 10.9634 26.0583 10.0003 25.1753 9.5088L24.8141 9.30817C24.2321 8.98716 23.5698 8.91694 22.9276 9.09751C22.2954 9.27807 21.7636 9.6994 21.4425 10.2812L12.3112 26.8833C11.6489 28.0771 12.0904 29.5918 13.2845 30.2439L13.6458 30.4445C14.599 30.9762 15.763 30.8257 16.5457 30.0734L16.5959 30.0232L16.6561 30.0633C17.0374 30.274 17.3986 30.4646 17.7298 30.6451C19.7868 31.7586 20.9308 32.3706 22.0646 33.9455C23.9712 36.5738 26.6203 38.4797 29.7109 39.4729L36.8253 41.74L36.745 41.8503C35.4907 43.5657 35.7917 45.9733 37.4173 47.3375C38.1498 47.9495 39.063 48.2805 40.0062 48.2805C40.0664 48.2805 40.1266 48.2805 40.1868 48.2805L40.3072 48.2705L40.2872 48.3909C40.0463 49.8053 40.5882 51.2599 41.6819 52.1727C42.5148 52.8649 43.5684 53.1959 44.6321 53.0956C45.7058 52.9953 46.6791 52.4837 47.3715 51.6611L50.7029 47.6686L50.7531 47.6786C51.907 47.809 53.051 47.3676 53.8236 46.4949L53.944 46.3545L55.1481 50.5878L55.1381 50.6178C55.098 50.7583 55.108 50.9088 55.1481 51.0492L56.2218 54.5C56.4225 55.142 56.8339 55.6035 57.436 55.8643L57.4962 55.8944V55.9646C57.4962 56.0248 57.4862 56.1352 57.4661 56.2856C57.3457 57.3991 56.9945 60.7697 58.2086 64.1905C59.5031 67.8419 62.1923 70.1993 65.9853 70.9818ZM15.5924 28.699C15.4419 28.9799 15.1409 29.1404 14.8399 29.1404C14.6994 29.1404 14.5589 29.1103 14.4285 29.0301L14.0672 28.8295C13.8665 28.7191 13.726 28.5385 13.6558 28.3178C13.5956 28.0972 13.6157 27.8664 13.726 27.6658L22.8674 11.0637C22.9778 10.863 23.1584 10.7226 23.3792 10.6524C23.5999 10.5922 23.8307 10.6123 24.0314 10.7226L24.3926 10.9232C24.804 11.154 24.9546 11.6756 24.7238 12.0869C24.7238 12.0969 15.5924 28.699 15.5924 28.699ZM41.411 46.214C40.9896 46.5049 40.4979 46.6554 40.0162 46.6554C39.4643 46.6554 38.9124 46.4648 38.4709 46.0936C37.4474 45.2309 37.3069 43.7062 38.1599 42.6729L38.501 42.2616L38.5612 42.2817C38.6616 42.3118 38.7519 42.3419 38.8121 42.3619C39.2235 42.4823 39.2235 42.4823 41.0197 43.325C41.5214 43.5557 42.1536 43.8566 42.9864 44.2378L43.1068 44.298L43.0165 44.3983L41.411 46.214ZM49.0171 47.1971L46.1573 50.6279C45.7359 51.1295 45.1539 51.4304 44.5117 51.4906C44.4414 51.5006 44.3611 51.5006 44.2909 51.5006C43.729 51.5006 43.1771 51.3 42.7456 50.9389C41.8224 50.1664 41.4612 48.6918 42.5549 47.3777L44.6622 45.0303L49.0974 47.0968L49.0171 47.1971ZM51.5558 39.0114C49.2479 36.965 46.7192 34.9487 44.4213 33.3336L44.5117 33.153L50.5122 35.0289L51.8268 39.2522L51.5558 39.0114ZM56.5931 49.7451L56.563 49.6448L54.9675 43.9168V43.8967C55.0077 43.0641 54.7468 42.2115 54.245 41.5494L54.225 41.5193L52.4389 35.8013L52.6696 35.9418C54.6765 37.1957 54.9374 37.8678 57.4059 44.2278C57.8976 45.5018 58.4896 47.0165 59.192 48.8021L59.2322 48.9025L56.5931 49.7451ZM57.7972 54.0787L57.0246 51.3L57.1149 51.2699L59.8342 50.4172L59.8744 50.4975C59.9647 50.6981 60.0951 50.9188 60.2256 51.0893L60.2356 51.1194L60.8577 53.1358C60.948 53.4668 60.6069 53.8179 60.2356 53.9383L58.7605 54.3997C58.6602 54.4298 58.5498 54.4499 58.4394 54.4499C58.1585 54.4398 57.8775 54.3295 57.7972 54.0787Z" fill="#303030"/>
  </symbol>

  <symbol viewBox="0 0 80 80" fill="none" id="2">
    <path d="M34.2816 30.5902C35.6194 30.2371 36.9975 29.9748 38.3756 29.7932C38.5969 29.763 38.7981 29.652 38.9389 29.4704C39.0697 29.2888 39.1301 29.0769 39.0999 28.855C39.0395 28.4313 38.6774 28.1286 38.2549 28.1286C38.2147 28.1286 38.1845 28.1286 38.1443 28.1387C36.6957 28.3304 35.2472 28.6129 33.839 28.9761C33.6177 29.0366 33.4366 29.1677 33.3159 29.3695C33.2052 29.5612 33.1751 29.7831 33.2253 30.0051C33.3561 30.4288 33.8188 30.7012 34.2816 30.5902Z" fill="#303030"/>
    <path d="M50.8288 30.449C52.1767 30.7718 53.5247 31.1855 54.8122 31.6798C55.2448 31.8412 55.7477 31.6092 55.9087 31.1956C55.9891 30.9837 55.9791 30.7617 55.8886 30.56C55.798 30.3582 55.627 30.1968 55.4158 30.1161C54.0477 29.6016 52.6395 29.1677 51.2211 28.8247C50.7685 28.7138 50.3057 28.9962 50.1951 29.4401C50.1448 29.652 50.175 29.884 50.2957 30.0656C50.4164 30.2573 50.6075 30.3885 50.8288 30.449Z" fill="#303030"/>
    <path d="M59.0169 31.8009C58.7152 31.8009 58.4235 31.9623 58.2625 32.2448C58.1619 32.4364 58.1317 32.6685 58.2022 32.8803C58.2726 33.0922 58.4134 33.2738 58.6146 33.3747C59.8418 34.0204 61.0388 34.7467 62.1654 35.5437C62.5376 35.796 63.0909 35.7052 63.3524 35.342C63.4832 35.1604 63.5335 34.9384 63.4933 34.7165C63.453 34.4945 63.3323 34.3028 63.1512 34.1717C61.9542 33.3343 60.6968 32.5676 59.4193 31.8917C59.2885 31.8311 59.1477 31.8009 59.0169 31.8009Z" fill="#303030"/>
    <path d="M42.5401 29.5007C42.6407 29.5007 42.7413 29.5007 42.8419 29.5007C44.1395 29.5007 45.4371 29.5713 46.7247 29.7226C47.1774 29.7731 47.6099 29.4401 47.6602 28.9861C47.6904 28.7642 47.62 28.5422 47.4892 28.3707C47.3383 28.1891 47.1371 28.0782 46.9058 28.0479C45.4472 27.8764 43.9584 27.7957 42.53 27.8159C42.2987 27.8159 42.0874 27.9067 41.9365 28.0681C41.7756 28.2295 41.6951 28.4414 41.6951 28.6633C41.6951 29.1274 42.0673 29.5007 42.5401 29.5007Z" fill="#303030"/>
    <path d="M19.8165 38.5602C20.8224 37.6119 21.9088 36.7241 23.0254 35.9069C23.2065 35.7758 23.3272 35.574 23.3573 35.3521C23.3875 35.1301 23.3372 34.9082 23.2065 34.7266C23.0355 34.5046 22.784 34.3835 22.5224 34.3835C22.3514 34.3835 22.1704 34.434 22.0195 34.545C20.8426 35.4025 19.7159 36.3407 18.6497 37.3294C18.4887 37.4808 18.3881 37.6926 18.3881 37.9146C18.3881 38.1365 18.4585 38.3484 18.6195 38.5098C18.9213 38.8528 19.4846 38.8629 19.8165 38.5602Z" fill="#303030"/>
    <path d="M26.5461 33.6673C27.7532 33.0014 29.0307 32.3961 30.3183 31.8917C30.5295 31.811 30.6904 31.6495 30.781 31.4377C30.8715 31.2359 30.8715 31.0039 30.791 30.8021C30.62 30.3683 30.1271 30.1665 29.6845 30.338C28.3265 30.8727 26.9987 31.5083 25.7212 32.2044C25.5201 32.3154 25.3792 32.497 25.3189 32.7088C25.2585 32.9207 25.2786 33.1527 25.3893 33.3444C25.6005 33.7278 26.1437 33.8892 26.5461 33.6673Z" fill="#303030"/>
    <path d="M20.1082 24.5169C20.5508 24.6279 21.0236 24.3555 21.1443 23.9116L21.3958 22.9431L23.3473 26.01C23.5887 26.3934 24.1319 26.5145 24.5141 26.2723C24.7053 26.1513 24.836 25.9697 24.8863 25.7477C24.9366 25.5258 24.8964 25.3038 24.7757 25.1222L22.8142 22.0452L23.7999 22.2369C24.2627 22.3277 24.7053 22.025 24.7958 21.5711C24.836 21.3491 24.7958 21.1272 24.665 20.9456C24.5343 20.7539 24.3431 20.6328 24.1218 20.5824L21.2047 20.0174C20.7621 19.9367 20.3295 20.2091 20.2189 20.6328L19.4946 23.498C19.4343 23.7098 19.4745 23.9419 19.5852 24.1336C19.6958 24.3252 19.8869 24.4665 20.1082 24.5169Z" fill="#303030"/>
    <path d="M56.2909 25.7478C56.3412 25.9697 56.472 26.1513 56.6631 26.2724C57.0453 26.5145 57.5885 26.3934 57.83 26.0101L59.7915 22.9431L60.043 23.9116C60.1536 24.3555 60.6264 24.6279 61.0791 24.517C61.3004 24.4564 61.4814 24.3253 61.6021 24.1235C61.7128 23.9318 61.743 23.7099 61.6927 23.4879L60.9584 20.6328C60.8477 20.199 60.4152 19.9266 59.9726 20.0174L57.0554 20.5824C56.8341 20.6228 56.6329 20.7539 56.5122 20.9456C56.3915 21.1272 56.3412 21.3491 56.3915 21.5711C56.4619 22.0251 56.9146 22.3277 57.3672 22.2369L58.353 22.0452L56.3915 25.1223C56.2809 25.3039 56.2406 25.5359 56.2909 25.7478Z" fill="#303030"/>
    <path d="M75.0814 45.8442C74.6489 45.481 74.2063 45.138 73.7536 44.795L72.4258 43.2615C72.1844 42.9891 71.8022 42.8882 71.4601 43.0295L71.3596 43.0698L71.269 43.0093C70.6051 42.5654 69.9211 42.1316 69.2371 41.718L68.8749 41.5061L69.2673 41.3548C69.3578 41.3245 69.4483 41.2741 69.5288 41.2034C69.6998 41.0622 69.8004 40.8503 69.8205 40.6284C69.8406 40.4064 69.7702 40.1845 69.6193 40.0231C68.6436 38.9032 67.6276 37.8641 66.5714 36.8956C66.2294 36.5829 65.6862 36.603 65.3744 36.9461C65.2235 37.1075 65.143 37.3294 65.1531 37.5514C65.1631 37.7733 65.2637 37.9852 65.4247 38.1365C66.1892 38.8326 66.9436 39.5792 67.6678 40.3661L67.4264 40.6788C62.7691 38.1466 57.7697 36.4114 52.559 35.5135C44.391 34.1011 35.9514 34.7972 28.1556 37.5312C27.9444 37.6018 27.7734 37.7632 27.6728 37.965C27.5722 38.1668 27.5621 38.3887 27.6426 38.6006C27.7935 39.0344 28.2864 39.2664 28.729 39.1151C36.2532 36.482 44.391 35.806 52.2774 37.168C59.6306 38.4392 66.6619 41.5061 72.6069 46.0258L72.4258 46.3789C63.1915 43.4835 53.5951 42.1417 43.8981 42.4141C33.9698 42.6865 24.2426 44.6336 14.9882 48.1948L9.13379 50.4446L8.95273 50.0814L19.5148 43.5238C21.1042 42.5351 22.7639 41.6373 24.4538 40.8503C24.655 40.7595 24.816 40.588 24.8964 40.3762C24.9669 40.1643 24.9568 39.9424 24.8663 39.7406C24.6651 39.3169 24.1621 39.1353 23.7396 39.3371C21.9894 40.1542 20.2692 41.0824 18.6296 42.1013L14.9882 44.3612L14.7367 44.0585L16.9497 41.5868C17.1006 41.4153 17.171 41.2034 17.161 40.9815C17.1509 40.7595 17.0503 40.5477 16.8793 40.4064C16.5273 40.0937 15.9941 40.124 15.6823 40.4771L12.8356 43.655C12.6847 43.8265 12.6143 44.0383 12.6243 44.2603C12.6344 44.4822 12.735 44.684 12.906 44.8353C13.0166 44.9261 13.1373 44.9968 13.2782 45.027L13.7509 45.138L11.1356 46.7421L11.0249 46.6715C10.6728 46.4495 10.2202 46.5201 9.93852 46.8228L8.60066 48.3058L6.13617 49.8393C5.36162 50.3235 4.92908 51.1811 5.00955 52.079C5.09002 52.9768 5.65334 53.7537 6.4983 54.0967L11.4273 56.1144L20.561 61.6329C20.8426 61.8044 21.1645 61.986 21.5166 62.1877C21.9089 62.4097 22.4521 62.2584 22.6734 61.875C22.784 61.6833 22.8142 61.4513 22.7538 61.2394C22.6935 61.0175 22.5527 60.846 22.3515 60.7249C22.0095 60.5332 21.7077 60.3617 21.4361 60.1902L15.4811 56.5886L15.1089 55.0349C14.7267 53.4409 14.616 51.7965 14.787 50.1621L14.7971 50.0411L15.5716 49.7384C19.2533 48.326 23.0657 47.1456 26.9083 46.2578L27.1899 46.1973L27.1597 46.4798C27.0994 47.0347 27.0692 47.5895 27.0692 48.1343C27.0692 56.1749 33.6579 62.7123 41.7555 62.7123C44.6727 62.7123 47.4892 61.8649 49.9135 60.2608C50.1046 60.1398 50.2253 59.9481 50.2756 59.7261C50.3159 59.5042 50.2756 59.2822 50.1448 59.1006C49.8833 58.7173 49.3602 58.6063 48.9679 58.8686C46.8354 60.281 44.3407 61.0376 41.7555 61.0376C34.5934 61.0376 28.7692 55.2569 28.7692 48.1444C28.7692 47.418 28.8296 46.6816 28.9603 45.9552L28.9804 45.824L29.1112 45.7938C30.4994 45.5113 31.9177 45.2591 33.3059 45.0472L33.497 45.0169L33.5272 45.2086C33.5775 45.5113 33.668 45.8139 33.7787 46.1065L33.7988 46.167L33.7787 46.2276C33.6278 46.8631 33.5473 47.5088 33.5473 48.1444C33.5473 52.6237 37.2189 56.2758 41.7354 56.2758C46.252 56.2758 49.9336 52.6237 49.9336 48.1444C49.9336 46.843 49.6117 45.5516 49.0082 44.4015L48.8472 44.0989L49.1892 44.109C50.7987 44.1594 52.4283 44.2603 54.0277 44.4116L54.1584 44.4217L54.1987 44.5529C54.5407 45.7231 54.7117 46.9338 54.7117 48.1444C54.7117 51.0297 53.7762 53.7537 52.0058 56.0236C51.865 56.2052 51.8046 56.4171 51.8348 56.639C51.865 56.861 51.9756 57.0627 52.1567 57.1939C52.5188 57.4663 53.0721 57.3956 53.3437 57.0425C55.3454 54.47 56.4016 51.3929 56.4016 48.1343C56.4016 47.0447 56.2809 45.9451 56.0294 44.8757L55.9691 44.5932L56.2507 44.6235C61.743 45.2691 67.2152 46.4596 72.5063 48.1646L73.8643 48.5984L61.562 58.001C51.5028 65.6885 37.9733 67.4641 26.2544 62.6216C26.1438 62.5812 26.0331 62.561 25.9325 62.561C25.6006 62.561 25.2787 62.7527 25.1479 63.0755C25.0574 63.2773 25.0574 63.5093 25.1479 63.7111C25.2284 63.923 25.3994 64.0844 25.6106 64.1752C30.1473 66.0517 34.9455 67 39.8745 67C48.0727 67 56.1502 64.2761 62.6081 59.3428L74.9808 49.8897C75.6146 49.4055 75.9867 48.669 75.9968 47.872C76.037 47.0952 75.695 46.3486 75.0814 45.8442ZM12.2823 54.6616C12.2421 54.6415 12.2018 54.6213 12.1716 54.6011L7.73557 52.7852L13.0569 50.7271L13.0468 51.0297C12.9965 52.3312 13.1071 53.6326 13.3687 54.9139L13.4592 55.3678L12.2823 54.6616ZM35.1869 44.7849L35.3982 44.7546C37.3597 44.5024 39.3514 44.3208 41.323 44.2098L41.5342 44.1998V44.4116C41.5141 46.1368 40.0857 47.5391 38.3455 47.5391C36.8366 47.5391 35.5189 46.4697 35.2171 44.9968L35.1869 44.7849ZM41.7656 54.6011C38.3354 54.6011 35.4887 51.9377 35.2775 48.5479L35.2573 48.1343L35.5994 48.3664C36.4141 48.9212 37.3698 49.2138 38.3556 49.2138C41.0514 49.2138 43.2342 47.0447 43.2342 44.3713L43.2242 44.1695L43.4254 44.109L43.9283 44.0888C44.8437 44.0686 45.7792 44.0585 46.6845 44.0585H46.7851L46.8455 44.1291C47.7508 45.2591 48.2537 46.6916 48.2537 48.1444C48.2638 51.7057 45.3466 54.6011 41.7656 54.6011Z" fill="#303030"/>
  </symbol>

  <symbol viewBox="0 0 80 80" fill="none" id="3">
    <g clip-path="url(#clip0)">
    <path d="M34.778 33.1518C34.4355 32.8364 34.0023 32.6126 33.5489 32.5109L25.3783 30.6595C21.0462 29.6931 16.5025 29.8152 12.2207 30.9952C7.94901 32.1854 4.04001 34.4233 0.90677 37.4547L0.231763 38.116C0.110867 38.238 0.0302688 38.3906 0.0101193 38.5534C-0.0100301 38.7161 0.0302688 38.8891 0.120941 39.0315C0.211614 39.1739 0.35266 39.2858 0.523931 39.3468C0.685126 39.418 0.866471 39.418 1.04782 39.3672L5.49077 38.0346C7.84826 37.3327 10.3065 36.9766 12.7647 36.9766C14.3868 36.9766 15.9987 37.1292 17.5905 37.4446L30.0832 39.886C30.6172 39.9979 31.1813 39.9368 31.6851 39.7334C32.0175 39.591 32.3198 39.3977 32.5717 39.1434L34.8788 36.8241C35.2012 36.4985 35.4329 36.0916 35.5437 35.644C35.6545 35.2066 35.6444 34.7387 35.5135 34.3114C35.3724 33.8537 35.1206 33.457 34.778 33.1518ZM33.9821 35.2677C33.9317 35.4508 33.8411 35.6237 33.7101 35.7559L31.403 38.0854C31.272 38.2177 31.1209 38.3092 30.9395 38.3601C30.8388 38.3906 30.728 38.411 30.6171 38.411C30.5466 38.411 30.4761 38.4008 30.4056 38.3906L17.923 35.9492C13.8125 35.1558 9.51059 35.3185 5.49077 36.4477L5.2389 35.8984C8.09005 33.9452 11.2737 32.6228 14.6991 31.9718C18.1245 31.3207 21.5902 31.3716 24.9955 32.1345L33.1661 33.9859C33.3474 34.0266 33.5187 34.1182 33.6597 34.2402C33.8008 34.3725 33.9015 34.5352 33.962 34.7082C34.0224 34.8913 34.0325 35.0846 33.9821 35.2677Z" fill="#303030"/>
    <path d="M63.1989 57.9016C72.2863 57.9016 79.4696 50.9029 79.7617 50.6079C79.9028 50.4655 79.9834 50.2722 79.9834 50.0789C79.9834 49.8856 79.9028 49.6924 79.7617 49.5499C79.4595 49.2549 72.3064 42.2461 63.1989 42.2461C54.1316 42.2461 46.9282 49.2448 46.6259 49.5499C46.4849 49.6924 46.4043 49.8755 46.4043 50.0789C46.4043 50.2722 46.4849 50.4655 46.6259 50.6079C46.9282 50.9029 54.1014 57.9016 63.1989 57.9016ZM70.7952 46.0913L70.3217 45.2572L71.1881 45.6539C73.5658 46.7627 75.7822 48.1665 77.7669 49.845L78.049 50.0789L77.7669 50.3129C75.7822 51.9914 73.5658 53.3952 71.1881 54.504L70.3217 54.9007L70.7952 54.0665C71.4904 52.8458 71.8631 51.4624 71.8631 50.0687C71.8631 48.6853 71.4904 47.312 70.7952 46.0913ZM57.0835 46.6711C57.6981 45.6335 58.5947 44.779 59.6626 44.1789L59.7432 44.1483C62 43.6499 64.3877 43.6499 66.6444 44.1483L66.725 44.1789C67.7929 44.779 68.6896 45.6335 69.3042 46.6711C69.9187 47.7087 70.2512 48.8887 70.2512 50.0789C70.2512 51.2793 69.9187 52.4593 69.3042 53.4969C68.6896 54.5243 67.7929 55.389 66.725 55.9892L66.6444 56.0197C65.5161 56.2638 64.3575 56.3859 63.1989 56.3859C62.0403 56.3859 60.8817 56.2638 59.7533 56.0197L59.6324 55.9688C58.5846 55.3788 57.6981 54.5243 57.0936 53.4969C56.4689 52.4593 56.1466 51.2793 56.1466 50.0789C56.1365 48.8887 56.4589 47.7087 57.0835 46.6711ZM48.6308 49.845C50.6155 48.1665 52.832 46.7627 55.2096 45.6539L56.076 45.2572L55.6025 46.0913C54.9074 47.312 54.5346 48.6955 54.5346 50.0891C54.5346 51.4827 54.9074 52.8662 55.6025 54.0869L56.076 54.921L55.2096 54.5243C52.832 53.4155 50.6155 52.0117 48.6308 50.3332L48.3588 50.0789L48.6308 49.845Z" fill="#303030"/>
    <path d="M79.3386 57.1793C79.2882 57.1692 79.2479 57.1692 79.1975 57.1692C79.0364 57.1692 78.8752 57.22 78.7341 57.3116C78.2304 57.6473 77.7065 57.983 77.1927 58.2881C77.0214 58.3899 76.9005 58.5628 76.8602 58.7561C76.8199 58.9494 76.8501 59.1426 76.961 59.3156C77.0718 59.4885 77.2531 59.6106 77.4546 59.6513C77.6561 59.7021 77.8778 59.6716 78.0591 59.5699C78.6031 59.2444 79.1472 58.8985 79.661 58.5526C79.8323 58.4407 79.9531 58.2576 79.9834 58.0643C80.0237 57.8711 79.9733 57.6676 79.8625 57.5049C79.7315 57.3217 79.5502 57.2098 79.3386 57.1793Z" fill="#303030"/>
    <path d="M73.5759 60.4142C73.3844 60.3328 73.1628 60.3328 72.9613 60.4142C71.8732 60.872 70.7448 61.2585 69.6165 61.5739C69.415 61.6349 69.2437 61.757 69.1329 61.9401C69.0321 62.113 69.012 62.3165 69.0624 62.5097C69.1228 62.703 69.2538 62.8658 69.4351 62.9675C69.6165 63.0692 69.8482 63.0896 70.0497 63.0387C71.2587 62.703 72.4475 62.2961 73.596 61.818C73.7774 61.7366 73.9285 61.584 74.0091 61.4009C74.0796 61.2178 74.0796 61.0144 73.999 60.8313C73.9285 60.638 73.7773 60.4956 73.5759 60.4142Z" fill="#303030"/>
    <path d="M65.5765 62.5708C65.4959 62.4996 65.3952 62.4589 65.2944 62.4283C65.1937 62.3978 65.0828 62.3877 64.972 62.3978H64.9619C63.7933 62.4894 62.6045 62.4894 61.4358 62.3978C61.4156 62.3978 61.3955 62.3978 61.3753 62.3978C61.1839 62.3978 60.9925 62.4589 60.8515 62.5809C60.6903 62.7132 60.5895 62.8963 60.5794 63.0997C60.5593 63.3032 60.6298 63.4965 60.7608 63.649C60.9018 63.8016 61.0932 63.9034 61.3048 63.9237C62.5541 64.0254 63.8134 64.0254 65.0929 63.9237C65.2037 63.9135 65.3146 63.8932 65.4052 63.8423C65.506 63.8016 65.5866 63.7304 65.6571 63.6592C65.7276 63.5778 65.778 63.4965 65.8082 63.3947C65.8384 63.3032 65.8485 63.2015 65.8485 63.0997C65.8384 62.998 65.8082 62.9065 65.7679 62.8149C65.7276 62.7132 65.6571 62.6318 65.5765 62.5708Z" fill="#303030"/>
    <path d="M56.7913 61.5739C55.6529 61.2585 54.5245 60.872 53.4465 60.4244C53.3458 60.3837 53.245 60.3633 53.1342 60.3633H53.1241C53.0234 60.3633 52.9226 60.3837 52.8219 60.4142C52.7212 60.4549 52.6305 60.5057 52.56 60.577C52.4894 60.6482 52.429 60.7295 52.3887 60.8211C52.3484 60.9126 52.3282 61.0042 52.3282 61.1059C52.3282 61.2076 52.3484 61.2992 52.3786 61.3908C52.4189 61.4823 52.4693 61.5637 52.5398 61.6349C52.6103 61.7061 52.701 61.7671 52.8017 61.8078C53.9503 62.2859 55.1391 62.703 56.3481 63.0285C56.5495 63.0794 56.7712 63.0489 56.9525 62.9471C57.1339 62.8454 57.2649 62.6827 57.3253 62.4894C57.3757 62.3063 57.3555 62.1028 57.2548 61.9299C57.1641 61.7671 56.9928 61.6349 56.7913 61.5739Z" fill="#303030"/>
    <path d="M49.2051 58.278C48.7517 58.0135 48.248 57.688 47.6636 57.3014C47.573 57.2404 47.4823 57.1997 47.3715 57.1793C47.3211 57.1692 47.2606 57.159 47.2002 57.159C47.1498 57.159 47.0995 57.159 47.0491 57.1692C46.9483 57.1895 46.8476 57.22 46.7569 57.2811C46.6662 57.3319 46.5957 57.4031 46.5353 57.4845C46.4144 57.6473 46.3741 57.8507 46.4144 58.044C46.4547 58.2373 46.5655 58.4102 46.7368 58.5323C47.2606 58.8883 47.8047 59.2342 48.3487 59.5495C48.52 59.6513 48.7416 59.6818 48.9431 59.6309C49.1547 59.58 49.326 59.458 49.4368 59.285C49.5476 59.1121 49.5778 58.9188 49.5375 58.7256C49.4972 58.5526 49.3763 58.3899 49.2051 58.278Z" fill="#303030"/>
    <path d="M16.7947 42.2563C7.6871 42.2563 0.523968 49.2549 0.231801 49.5499C0.0806799 49.6924 8.20332e-05 49.8856 8.20332e-05 50.0789C8.20332e-05 50.2722 0.0806799 50.4655 0.221726 50.6079C0.523968 50.9029 7.67703 57.9016 16.7947 57.9016C25.8518 57.9016 33.0653 50.9029 33.3676 50.6079C33.5086 50.4655 33.5892 50.2824 33.5892 50.0789C33.5892 49.8856 33.5086 49.6924 33.3676 49.5499C33.0653 49.2549 25.872 42.2563 16.7947 42.2563ZM9.19831 54.0767L9.67182 54.9109L8.8054 54.5141C6.42776 53.4053 4.22139 52.0015 2.2266 50.3231L1.9445 50.0891L2.2266 49.8551C4.21132 48.1767 6.42776 46.7729 8.8054 45.6641L9.67182 45.2673L9.19831 46.0811C8.50316 47.3018 8.13039 48.6853 8.13039 50.0789C8.13039 51.4726 8.50316 52.856 9.19831 54.0767ZM22.8999 53.4969C22.2854 54.5345 21.3887 55.389 20.3107 55.9892L20.2301 56.0197C19.1018 56.2638 17.9432 56.3859 16.7846 56.3859C15.626 56.3859 14.4674 56.2638 13.339 56.0197L13.198 55.9485C12.1502 55.3585 11.2838 54.504 10.6692 53.4867C10.0446 52.4491 9.7222 51.2691 9.7222 50.0789C9.7222 48.8887 10.0446 47.6986 10.6692 46.6711C11.2838 45.6335 12.1804 44.779 13.2484 44.1789L13.3289 44.1483C15.5857 43.6499 17.9734 43.6499 20.2301 44.1483L20.3107 44.1789C21.3787 44.779 22.2753 45.6335 22.8899 46.6711C23.5145 47.7087 23.8369 48.8887 23.8369 50.0891C23.8369 51.2894 23.5246 52.4593 22.8999 53.4969ZM31.3526 50.3129C29.3679 51.9914 27.1515 53.4053 24.7738 54.504L23.9074 54.9007L24.3809 54.0665C25.0761 52.8458 25.4489 51.4624 25.4489 50.0687C25.4489 48.6751 25.0862 47.2917 24.3809 46.071L23.9074 45.2368L24.7738 45.6335C27.1515 46.7423 29.3679 48.1461 31.3526 49.8246L31.6347 50.0586L31.3526 50.3129Z" fill="#303030"/>
    <path d="M2.80087 58.278L2.55908 58.1355C2.11579 57.8711 1.68257 57.5862 1.25944 57.3014C1.16876 57.2404 1.07809 57.1997 0.967268 57.1793C0.906819 57.1692 0.856446 57.159 0.795997 57.159C0.745624 57.159 0.69525 57.159 0.644876 57.1692C0.544129 57.1895 0.443382 57.22 0.352709 57.2811C0.262037 57.3319 0.191514 57.4031 0.131065 57.4845C0.0706168 57.5659 0.0303179 57.6574 0.0101685 57.749C9.37227e-05 57.8609 -0.00998101 57.9524 0.0101685 58.0542C0.0303179 58.1559 0.0605421 58.2474 0.12099 58.3288C0.181439 58.4102 0.251962 58.4916 0.33256 58.5424C0.856446 58.8985 1.40048 59.2444 1.94452 59.5699C2.12586 59.6818 2.34751 59.7123 2.55908 59.6614C2.77064 59.6106 2.95199 59.4885 3.05274 59.3156C3.16356 59.1426 3.19378 58.9392 3.15348 58.7459C3.11319 58.5526 2.98221 58.3899 2.80087 58.278Z" fill="#303030"/>
    <path d="M18.5477 62.3978C17.379 62.4894 16.1902 62.4894 15.0114 62.3978C14.9812 62.3978 14.951 62.3978 14.9208 62.3978C14.8402 62.3978 14.7596 62.408 14.679 62.4283C14.5782 62.4589 14.4775 62.5097 14.3969 62.5708C14.3163 62.6318 14.2458 62.7132 14.2055 62.8047C14.1551 62.8963 14.1249 62.9878 14.1249 63.0896C14.1249 63.1913 14.1249 63.2828 14.1652 63.3846C14.1954 63.4761 14.2458 63.5677 14.3163 63.6389C14.3868 63.7203 14.4674 63.7813 14.5681 63.822C14.6689 63.8728 14.7696 63.8932 14.8805 63.9034C16.1801 64.0051 17.4294 64.0051 18.6786 63.9034C18.8902 63.883 19.0917 63.7915 19.2227 63.6389C19.3536 63.4863 19.4242 63.293 19.404 63.0896C19.3839 62.8963 19.2831 62.703 19.132 62.5809C18.9809 62.4487 18.7592 62.3877 18.5477 62.3978Z" fill="#303030"/>
    <path d="M10.6591 61.7163C10.5785 61.6552 10.4778 61.6044 10.3771 61.5739C9.23861 61.2585 8.11024 60.872 7.02217 60.4142C6.92142 60.3735 6.82067 60.3532 6.70985 60.343C6.69978 60.343 6.69978 60.343 6.6897 60.343C6.58896 60.343 6.48821 60.3633 6.39754 60.3939C6.29679 60.4345 6.20612 60.4854 6.13559 60.5566C6.055 60.6278 6.00462 60.7092 5.95425 60.8007C5.91395 60.8923 5.8938 60.9839 5.8938 61.0856C5.8938 61.1873 5.91395 61.2789 5.95425 61.3704C5.99455 61.462 6.055 61.5433 6.12552 61.6145C6.19604 61.6858 6.28671 61.7468 6.38746 61.7875C7.54606 62.2656 8.73487 62.6827 9.94384 63.0184C10.0446 63.0489 10.1554 63.059 10.2562 63.0387C10.3569 63.0285 10.4677 62.998 10.5584 62.9471C10.6491 62.8963 10.7297 62.8352 10.7901 62.7539C10.8506 62.6725 10.9009 62.5911 10.9312 62.4894C10.9614 62.3978 10.9715 62.2961 10.9513 62.1944C10.9412 62.0927 10.911 62.0011 10.8606 61.9197C10.8002 61.8485 10.7397 61.7773 10.6591 61.7163Z" fill="#303030"/>
    <path d="M27.4336 60.577C27.3631 60.5057 27.2724 60.4549 27.1716 60.4142C27.081 60.3735 26.9701 60.3633 26.8694 60.3633H26.8593C26.7485 60.3633 26.6477 60.3837 26.547 60.4244C25.4589 60.872 24.3306 61.2687 23.1921 61.5739C23.0007 61.6349 22.8294 61.7671 22.7287 61.9401C22.6279 62.113 22.6078 62.3165 22.6582 62.4996C22.7186 62.6928 22.8496 62.8556 23.0309 62.9573C23.2123 63.0591 23.4339 63.0896 23.6455 63.0285C24.8444 62.6928 26.0433 62.2859 27.1918 61.8078C27.2925 61.7671 27.3731 61.7061 27.4537 61.6349C27.5242 61.5637 27.5847 61.4823 27.6149 61.3908C27.6552 61.2992 27.6754 61.1975 27.6754 61.1059C27.6754 61.0042 27.6552 60.9126 27.6149 60.8211C27.5645 60.7295 27.5041 60.6482 27.4336 60.577Z" fill="#303030"/>
    <path d="M33.4482 57.4947C33.3877 57.4133 33.3172 57.3421 33.2265 57.2912C33.1359 57.2404 33.0351 57.1997 32.9344 57.1793C32.8236 57.159 32.7228 57.159 32.612 57.1793C32.5213 57.1997 32.4407 57.2302 32.3702 57.2709L32.3299 57.3014C31.8262 57.6371 31.3023 57.9728 30.7885 58.278C30.6978 58.3288 30.6172 58.4 30.5567 58.4814C30.4963 58.5628 30.456 58.6544 30.4258 58.7459C30.4056 58.8375 30.3955 58.9392 30.4157 59.0307C30.4358 59.1325 30.4661 59.224 30.5265 59.3054C30.5769 59.3868 30.6474 59.4681 30.7381 59.519C30.8288 59.58 30.9194 59.6207 31.0202 59.6411C31.1209 59.6614 31.2317 59.6716 31.3325 59.6513C31.4332 59.6309 31.534 59.6004 31.6247 59.5495C32.1687 59.224 32.7027 58.8781 33.2366 58.5323C33.3273 58.4712 33.3978 58.4 33.4482 58.3187C33.5086 58.2373 33.5389 58.1457 33.559 58.044C33.5792 57.9423 33.5792 57.8507 33.5489 57.749C33.5489 57.6676 33.5086 57.5761 33.4482 57.4947Z" fill="#303030"/>
    <path d="M48.3084 39.7133C48.6409 39.8557 48.9935 39.9167 49.3663 39.9167C49.5476 39.9167 49.729 39.8964 49.9103 39.8659L62.403 37.4245C66.4127 36.6412 70.5937 36.8548 74.5128 38.0246L78.9557 39.3572C79.127 39.4081 79.3185 39.3979 79.4796 39.3369C79.6509 39.2759 79.792 39.164 79.8826 39.0216C79.9733 38.8791 80.0136 38.7062 79.9935 38.5434C79.9733 38.3807 79.8927 38.2179 79.7718 38.106L79.0968 37.4448C75.9636 34.4032 72.0445 32.1653 67.7728 30.9853C63.5011 29.7951 58.9473 29.6832 54.6152 30.6496L52.5751 31.1124L52.9579 32.5874L54.998 32.1246C56.8014 31.7177 58.6552 31.5142 60.4988 31.5142H60.5089C65.637 31.5142 70.5736 33.0299 74.7546 35.8986L74.5027 36.4479C70.4829 35.3289 66.181 35.156 62.0806 35.9495L49.5879 38.3909C49.5174 38.401 49.4469 38.4112 49.3763 38.4112C49.2655 38.4112 49.1547 38.3909 49.0539 38.3603C48.8827 38.3095 48.7215 38.2078 48.5905 38.0857L46.2834 35.7562C46.1524 35.6239 46.0517 35.4612 46.0114 35.2679C45.961 35.0848 45.9711 34.8915 46.0315 34.7084C46.0819 34.5253 46.1927 34.3625 46.3338 34.2303C46.4748 34.1082 46.6461 34.0167 46.8375 33.976L50.9178 33.0503L50.5349 31.5753L46.4547 32.501C45.9912 32.6027 45.5681 32.8265 45.2155 33.1418C44.8729 33.4572 44.6211 33.8539 44.48 34.2812C44.3491 34.7186 44.339 35.1763 44.4498 35.6138C44.5606 36.0512 44.7923 36.4581 45.1147 36.7938L47.4218 39.1233C47.6838 39.3776 47.976 39.581 48.3084 39.7133Z" fill="#303030"/>
    </g>
    <defs>
    <clipPath id="clip0">
    <rect width="80" height="80" fill="white"/>
    </clipPath>
    </defs>
  </symbol>

  <symbol viewBox="0 0 80 80" fill="none" id="4">
    <path d="M19.476 50.4902C19.3412 49.9685 19.2239 49.4348 19.1273 48.9042C19.0439 48.4463 18.6051 48.1428 18.1489 48.2264C17.6919 48.31 17.389 48.7489 17.4725 49.2068C17.5764 49.7775 17.7026 50.3515 17.8476 50.9127C17.9457 51.2924 18.2871 51.5444 18.6613 51.5444C18.7311 51.5444 18.802 51.5357 18.8727 51.5173C19.3223 51.4007 19.5924 50.9409 19.476 50.4902Z" fill="#303030"/>
    <path d="M37.0009 66.9234C35.9671 66.7278 34.9384 66.4561 33.9434 66.1159C33.5042 65.9657 33.0259 66.2008 32.8757 66.6414C32.7257 67.0819 32.9606 67.5609 33.4002 67.7111C34.4703 68.077 35.5767 68.3693 36.6886 68.5796C36.7414 68.5896 36.7938 68.5945 36.8456 68.5945C37.242 68.5945 37.5949 68.3124 37.6711 67.9079C37.7576 67.4505 37.4574 67.0098 37.0009 66.9234Z" fill="#303030"/>
    <path d="M54.924 62.6098C54.0916 63.2567 53.2068 63.8496 52.294 64.3717C51.8907 64.6025 51.7503 65.1172 51.9807 65.5214C52.1359 65.7938 52.4197 65.9465 52.7119 65.9465C52.8533 65.9465 52.9966 65.9108 53.1282 65.8355C54.1092 65.2742 55.0603 64.6371 55.9551 63.9417C56.322 63.6565 56.3888 63.127 56.1042 62.7594C55.8194 62.3914 55.2908 62.3245 54.924 62.6098Z" fill="#303030"/>
    <path d="M23.7128 58.9268C23.4214 58.5643 22.8921 58.507 22.5301 58.7991C22.1683 59.0911 22.1114 59.6216 22.4027 59.9841C23.1119 60.8664 23.8901 61.7065 24.7155 62.4808C24.8776 62.633 25.0841 62.7084 25.2901 62.7084C25.5147 62.7084 25.7386 62.6188 25.9043 62.4416C26.2218 62.1018 26.2043 61.5685 25.8651 61.2504C25.0971 60.5297 24.3729 59.748 23.7128 58.9268Z" fill="#303030"/>
    <path d="M20.4843 53.494C20.3053 53.0645 19.8129 52.8617 19.3841 53.041C18.9555 53.2204 18.753 53.7139 18.932 54.1435C19.3672 55.1879 19.8818 56.2119 20.4613 57.1871C20.6187 57.4519 20.8981 57.5989 21.1847 57.5989C21.3312 57.5989 21.4795 57.5605 21.6143 57.4801C22.0135 57.242 22.1444 56.7247 21.9066 56.3248C21.3675 55.4175 20.8891 54.4652 20.4843 53.494Z" fill="#303030"/>
    <path d="M49.4425 65.7446C48.4641 66.1327 47.4491 66.4539 46.4255 66.6992C45.9737 66.8074 45.695 67.2621 45.8031 67.7149C45.8952 68.1017 46.24 68.3618 46.6204 68.3618C46.6851 68.3618 46.7509 68.3543 46.8166 68.3385C47.9176 68.0747 49.0096 67.7293 50.0618 67.3118C50.4938 67.1405 50.7052 66.6508 50.5343 66.218C50.363 65.7852 49.8738 65.5732 49.4425 65.7446Z" fill="#303030"/>
    <path d="M31.0311 64.8826C30.0944 64.4048 29.1826 63.8552 28.3207 63.2492C27.9406 62.9818 27.416 63.0739 27.1492 63.4548C26.8823 63.8358 26.9741 64.3614 27.3544 64.6287C28.2807 65.2802 29.2611 65.871 30.268 66.3846C30.3902 66.447 30.5205 66.4765 30.6488 66.4765C30.9551 66.4765 31.2505 66.3082 31.399 66.0159C31.6098 65.6012 31.445 65.0937 31.0311 64.8826Z" fill="#303030"/>
    <path d="M43.3058 67.2159C42.2625 67.3136 41.1934 67.3387 40.1425 67.2904C39.6786 67.2684 39.2851 67.6286 39.2638 68.0936C39.2425 68.5586 39.6013 68.9528 40.0654 68.9742C40.4379 68.9912 40.8164 69 41.1901 69C41.9474 69 42.7118 68.9644 43.4623 68.894C43.9248 68.8508 44.2646 68.44 44.2215 67.9764C44.1783 67.5131 43.7692 67.172 43.3058 67.2159Z" fill="#303030"/>
    <path d="M63.3619 51.9891C62.9247 51.8308 62.4428 52.0569 62.2846 52.4946C61.9269 53.4844 61.4945 54.4585 60.9996 55.3895C60.7813 55.8004 60.9366 56.3108 61.3467 56.5295C61.4726 56.5967 61.6078 56.6286 61.7413 56.6286C62.0422 56.6286 62.3331 56.4665 62.4845 56.1819C63.0166 55.1805 63.4815 54.1331 63.8663 53.0686C64.0243 52.631 63.7986 52.1477 63.3619 51.9891Z" fill="#303030"/>
    <path d="M60.4956 57.8895C60.1204 57.6153 59.5943 57.6975 59.3204 58.0736C58.7006 58.9248 58.0146 59.7398 57.2816 60.4963C56.9579 60.8301 56.9658 61.3638 57.2988 61.688C57.4623 61.8471 57.6736 61.9262 57.8848 61.9262C58.1041 61.9262 58.3234 61.8407 58.4882 61.6705C59.276 60.8578 60.0133 59.9819 60.6793 59.0672C60.953 58.6911 60.8708 58.1638 60.4956 57.8895Z" fill="#303030"/>
    <path d="M64.4649 45.5201C64.0027 45.4901 63.6014 45.8425 63.5716 46.307C63.5039 47.3611 63.3611 48.4175 63.1471 49.4469C63.0525 49.9026 63.3444 50.3489 63.799 50.4439C63.8569 50.4559 63.9145 50.4617 63.9714 50.4617C64.3614 50.4617 64.7113 50.1883 64.794 49.7907C65.024 48.6838 65.1775 47.5482 65.2502 46.4152C65.28 45.9507 64.9285 45.55 64.4649 45.5201Z" fill="#303030"/>
    <path d="M64.4595 40.5261C63.9949 40.5261 63.6185 40.9035 63.6185 41.3689V43.0544C63.6185 43.5199 63.9949 43.8972 64.4595 43.8972C64.9241 43.8972 65.3006 43.5199 65.3006 43.0544V41.3689C65.3006 40.9034 64.9241 40.5261 64.4595 40.5261Z" fill="#303030"/>
    <path d="M40.1847 46.5925C43.1372 46.5925 45.5393 44.1856 45.5393 41.227C45.5393 38.2684 43.1372 35.8615 40.1847 35.8615C39.9775 35.8615 39.7674 35.8752 39.5571 35.9003C39.1143 35.6807 38.6163 35.5566 38.0896 35.5566C36.2586 35.5566 34.7689 37.0494 34.7689 38.8841C34.7689 39.2827 34.8393 39.6651 34.9681 40.0196C34.8769 40.4156 34.83 40.8204 34.83 41.2269C34.83 44.1856 37.2321 46.5925 40.1847 46.5925ZM43.8572 41.227C43.8572 43.2562 42.2098 44.907 40.1847 44.907C38.3674 44.907 36.8551 43.5773 36.5637 41.8381C37.021 42.0762 37.5397 42.2117 38.0896 42.2117C39.9207 42.2117 41.4103 40.719 41.4103 38.8842C41.4103 38.4625 41.3308 38.0593 41.1874 37.6877C42.7264 38.1262 43.8572 39.5463 43.8572 41.227ZM38.0896 37.2423C38.9932 37.2423 39.7282 37.9789 39.7282 38.8842C39.7282 39.7896 38.9931 40.5262 38.0896 40.5262C37.186 40.5262 36.451 39.7896 36.451 38.8842C36.451 37.9789 37.1861 37.2423 38.0896 37.2423Z" fill="#303030"/>
    <path d="M57.8294 49.613C57.622 48.3219 57.0261 47.1241 56.1336 46.1809L58.3271 44.4887C59.042 45.2214 59.5922 46.11 59.9235 47.0802C60.0429 47.4302 60.3696 47.6504 60.7191 47.6504C60.8095 47.6504 60.9014 47.6356 60.9916 47.6047C61.4311 47.4541 61.6655 46.9749 61.515 46.5345C61.1244 45.3908 60.4908 44.3368 59.6687 43.4539L60.8068 42.5759C61.2748 42.2148 61.5493 41.6684 61.56 41.0768C61.5705 40.4851 61.3158 39.9293 60.8612 39.5516C60.2419 39.0373 59.6067 38.5513 58.9575 38.0936C59.6671 37.6024 60.2848 36.9996 60.7902 36.3117L63.9449 38.3486C64.0859 38.4396 64.2437 38.4829 64.3998 38.4829C64.6761 38.4829 64.9468 38.3466 65.1076 38.0966C65.3592 37.7054 65.2466 37.1837 64.8562 36.9317L61.6353 34.8522C61.8256 34.4214 61.9802 33.9718 62.0909 33.5057L62.2641 32.7753C62.3715 32.3224 62.0922 31.8681 61.6404 31.7605C61.1887 31.6527 60.735 31.9327 60.6276 32.3855L60.4543 33.1157C60.3885 33.3933 60.3018 33.663 60.1996 33.925L59.1599 33.2537C58.3191 32.7109 57.4582 32.2094 56.5801 31.7492C56.6537 31.2406 56.6779 30.7232 56.6446 30.2045L56.5979 29.4758C56.568 29.0112 56.1678 28.6587 55.7045 28.6888C55.2409 28.7187 54.8894 29.1194 54.9192 29.584L54.966 30.3127C54.9799 30.5296 54.9808 30.7462 54.9703 30.9617C53.5156 30.2975 52.0207 29.7428 50.4983 29.2988C50.5209 28.822 50.5056 28.3403 50.4457 27.8574L50.3756 27.2936C50.3182 26.8316 49.8973 26.5042 49.4371 26.5614C48.9762 26.6189 48.649 27.0399 48.7063 27.5018L48.7764 28.0655C48.8093 28.3304 48.8252 28.5949 48.8268 28.8581C46.9984 28.427 45.138 28.1527 43.2666 28.0369C43.2562 27.7473 43.2344 27.4577 43.199 27.1693L43.1463 26.7396C43.0897 26.2775 42.6672 25.9494 42.209 26.0059C41.748 26.0627 41.4201 26.4831 41.4767 26.9451L41.5294 27.3747C41.5539 27.5745 41.5697 27.7748 41.5798 27.9753C37.2986 27.9284 32.9941 28.71 28.9195 30.3456L18.2529 34.6276C17.8217 34.8007 17.6121 35.2912 17.7849 35.7233C17.9576 36.1554 18.4476 36.3652 18.8784 36.1922L29.545 31.9102C33.3928 30.3656 37.4564 29.6232 41.4992 29.6595C41.3461 30.7052 41.0018 31.721 40.4794 32.6456C35.3912 32.8545 30.3239 34.3628 25.7851 37.2072L18.1309 42.0032C17.5533 42.3653 17.2298 43.0128 17.2868 43.6931C17.3437 44.3733 17.7703 44.9579 18.4 45.2186L21.4146 46.4662L25.9572 49.238C26.3537 49.4802 26.8713 49.3542 27.113 48.9565C27.3546 48.559 27.2288 48.0405 26.8321 47.7984L24.3281 46.2705L24.131 45.4362C23.7523 43.8334 23.8275 42.1605 24.3485 40.5981L24.5607 39.962L26.6767 38.6359C28.5514 37.4611 30.522 36.5287 32.5477 35.8336C31.4519 37.3899 30.8409 39.2654 30.8409 41.2269C30.8409 46.3895 35.0326 50.5896 40.1848 50.5896C44.7118 50.5896 48.5783 47.3526 49.3783 42.8927C49.4604 42.4345 49.1564 41.9964 48.6993 41.914C48.2416 41.8317 47.8048 42.1363 47.7226 42.5944C47.0667 46.2506 43.8966 48.9041 40.1847 48.9041C35.9599 48.9041 32.523 45.4601 32.523 41.2269C32.523 38.7122 33.7467 36.3693 35.8024 34.9302C38.3845 34.3778 41.0194 34.1925 43.63 34.3707C45.6242 35.3783 47.0749 37.1878 47.6168 39.3566C47.7124 39.7395 48.0552 39.995 48.432 39.995C48.4998 39.995 48.5684 39.9868 48.6369 39.9695C49.0876 39.8564 49.3614 39.3988 49.2486 38.9473C48.8553 37.3732 48.0701 35.954 46.9866 34.8036C51.5858 35.6789 56.0004 37.7031 59.7879 40.8489C59.8683 40.9156 59.8789 41.001 59.8782 41.046C59.8774 41.0909 59.8636 41.176 59.7808 41.2399L52.1805 47.1032C49.0455 49.5218 45.31 51.0256 41.378 51.4522C37.4706 51.8759 33.5273 51.2216 29.9728 49.5599C29.5521 49.3632 29.0516 49.5456 28.855 49.9673C28.6586 50.389 28.8407 50.8905 29.2616 51.0874C32.3365 52.5248 35.6808 53.2632 39.0583 53.2632C39.8909 53.2632 40.7259 53.2184 41.559 53.1279C41.6319 53.12 41.7046 53.111 41.7774 53.1023C41.8856 53.6399 41.8424 54.2026 41.643 54.7163C41.4747 55.15 41.6892 55.6385 42.1221 55.8071C42.2223 55.8461 42.3253 55.8647 42.4267 55.8647C42.7634 55.8647 43.0815 55.6605 43.2108 55.3271C43.5173 54.5371 43.593 53.6737 43.441 52.8445C44.5354 52.6337 45.6106 52.3447 46.659 51.9804C46.8721 52.6123 46.9408 53.2858 46.8543 53.9502C46.7942 54.4117 47.1187 54.8348 47.5794 54.895C47.6163 54.8999 47.653 54.9022 47.6893 54.9022C48.1054 54.9022 48.4669 54.593 48.5222 54.1685C48.6453 53.2235 48.544 52.2645 48.23 51.3691C49.0728 51.0055 49.8944 50.5915 50.6904 50.1291C51.3645 50.861 51.7619 51.8112 51.8093 52.8059C51.8308 53.2571 52.2027 53.6085 52.6487 53.6085C52.6622 53.6085 52.6758 53.6082 52.6894 53.6076C53.1535 53.5854 53.5116 53.1905 53.4895 52.7256C53.4282 51.4396 52.9477 50.2076 52.1301 49.2204C52.4954 48.9705 52.8548 48.7105 53.2065 48.439L54.7911 47.2165C55.5196 47.9322 56.0059 48.8677 56.1688 49.8811C56.2354 50.2953 56.5925 50.5899 56.9982 50.5899C57.0426 50.5899 57.0877 50.5865 57.1329 50.5792C57.5914 50.505 57.9033 50.0725 57.8294 49.613ZM22.3441 45.0599L22.2335 44.9925C22.1964 44.9698 22.1575 44.95 22.1172 44.9334L19.0421 43.6607C19.0242 43.6533 18.9696 43.6307 18.963 43.5524C18.9565 43.4741 19.0065 43.4427 19.0229 43.4325L22.4249 41.3005C22.1731 42.5376 22.1449 43.8101 22.3441 45.0599ZM58.2483 34.6704L59.3735 35.3968C58.8513 36.0823 58.1838 36.6553 57.4067 37.0705C56.5591 36.5479 55.691 36.0711 54.8059 35.6399C55.3757 34.9819 55.8254 34.2294 56.1393 33.4234C56.8553 33.81 57.559 34.2253 58.2483 34.6704ZM54.6301 32.6609C54.3275 33.505 53.8343 34.2784 53.1819 34.9079C51.8483 34.3538 50.4824 33.9004 49.0956 33.5469C49.6242 32.7583 50.0107 31.8908 50.2446 30.9805C51.7397 31.4282 53.206 31.9888 54.6301 32.6609ZM48.6208 30.5415C48.3802 31.4889 47.9322 32.3783 47.2972 33.1468C45.6711 32.8375 44.0233 32.664 42.3709 32.6273C42.7845 31.7036 43.0589 30.7219 43.1879 29.7201C45.0172 29.8348 46.8355 30.1094 48.6208 30.5415Z" fill="#303030"/>
    <path d="M68.7322 25.8578C66.2849 22.6792 63.3493 19.9609 60.007 17.7784C56.7489 15.6509 53.1825 14.0815 49.4066 13.1137C45.6308 12.1458 41.7504 11.8065 37.8728 12.1048C33.895 12.411 30.0175 13.383 26.3476 14.9935L13.6325 20.5736C12.9541 20.8714 12.4369 21.4178 12.1762 22.1123C11.9154 22.8067 11.9449 23.5592 12.2592 24.231L13.6982 27.3071C14.1597 28.2936 15.1279 28.8802 16.1558 28.8801C16.4632 28.8801 16.7761 28.8276 17.0822 28.7177L32.3412 23.2395C37.5147 21.3821 43.1423 20.6949 48.6154 21.252C49.0769 21.2992 49.4902 20.9619 49.5372 20.4987C49.5841 20.0356 49.2475 19.6221 48.7854 19.5751C43.0641 18.9926 37.1817 19.7111 31.774 21.6527L16.5149 27.1308C16.0063 27.3134 15.4506 27.0815 15.2214 26.5917L13.7824 23.5156C13.6623 23.2588 13.651 22.9712 13.7507 22.7057C13.8504 22.4403 14.048 22.2314 14.3073 22.1176L27.0225 16.5374C30.519 15.003 34.2129 14.077 38.0017 13.7854C41.6955 13.501 45.3923 13.8244 48.9897 14.7465C52.5872 15.6686 55.9849 17.1638 59.0887 19.1905C61.7606 20.9353 64.1599 23.0398 66.2405 25.4616L61.9962 23.3689C58.9706 21.8772 55.7534 20.7854 52.4342 20.1239C51.9785 20.0333 51.5357 20.3296 51.4453 20.7861C51.3546 21.2426 51.6505 21.6863 52.1062 21.7771C55.2816 22.41 58.3594 23.4543 61.2535 24.8813L67.1546 27.7908C67.6914 28.0555 68.3308 27.9162 68.7094 27.4521C69.0882 26.988 69.0975 26.3324 68.7322 25.8578Z" fill="#303030"/>
    <path d="M16.3043 59.5534C15.9801 59.2467 15.4735 59.2467 15.1496 59.5534L13.331 61.2737C12.9933 61.5933 12.978 62.1266 13.2968 62.4652C13.6155 62.8037 14.148 62.8188 14.4858 62.4995L14.8858 62.121V64.9122C14.8858 65.3776 15.2623 65.7549 15.7269 65.7549C16.1915 65.7549 16.5679 65.3776 16.5679 64.9122V62.121L16.9681 62.4996C17.1306 62.6533 17.3381 62.7295 17.5453 62.7295C17.7685 62.7295 17.9915 62.6408 18.157 62.4652C18.4758 62.1267 18.4605 61.5933 18.1227 61.2739L16.3043 59.5534Z" fill="#303030"/>
    <path d="M32.5804 55.9883C32.1952 55.7278 31.6725 55.8295 31.4128 56.2152L29.8543 58.5286L29.734 57.9906C29.6326 57.5364 29.1829 57.2506 28.7295 57.3523C28.2761 57.454 27.991 57.9047 28.0925 58.3589L28.6391 60.8043C28.7263 61.1945 29.0719 61.463 29.459 61.463C29.5043 61.463 29.5502 61.4593 29.5963 61.4518L32.0642 61.0453C32.5226 60.9698 32.833 60.5363 32.7578 60.077C32.6826 59.6179 32.2499 59.3064 31.7916 59.382L31.2486 59.4715L32.807 57.1581C33.0668 56.7725 32.9653 56.2486 32.5804 55.9883Z" fill="#303030"/>
    <path d="M52.4366 60.8044L52.9833 58.359C53.0847 57.9048 52.7997 57.4541 52.3464 57.3524C51.8926 57.2506 51.4432 57.5364 51.3418 57.9906L51.2215 58.5286L49.663 56.2152C49.4033 55.8295 48.8804 55.7279 48.4954 55.9883C48.1104 56.2486 48.0089 56.7725 48.2689 57.1584L49.8273 59.4717L49.2844 59.3823C48.8263 59.3075 48.3935 59.6179 48.3181 60.0773C48.2428 60.5366 48.5533 60.97 49.0116 61.0455L51.4794 61.452C51.5255 61.4595 51.5714 61.4632 51.6168 61.4632C52.0038 61.4631 52.3494 61.1947 52.4366 60.8044Z" fill="#303030"/>
  </symbol>

  <symbol viewBox="0 0 80 80" fill="none" id="5">
    <path d="M60.8448 34.0769C57.1731 35.6836 51.3529 37.7552 44.06 38.7355L42.9504 38.887L43.8381 38.1999C47.3484 35.4714 49.3658 31.3484 49.3658 26.8818C49.3658 25.4367 49.1539 24.022 48.7404 22.6678L48.6093 22.2434L49.043 22.2737C56.3359 22.7588 64.93 23.5167 73.4334 25.4064L80 23.0114L79.3948 21.3137L73.3022 23.5369L73.2316 23.5167C70.377 22.9306 55.1154 20 35.3146 20C20.5069 20 8.95726 22.0615 0 26.3058V28.1652C1.31131 29.489 3.20767 30.2267 5.05359 30.9341C6.33464 31.4292 7.66612 31.9446 8.78578 32.6621C14.8582 36.4314 22.4234 41.1304 35.3146 41.1304C46.8037 41.1304 55.8921 38.2302 61.571 35.7341L60.8448 34.0769ZM26.1052 38.3919C18.9636 36.8659 14.0411 33.8141 9.70369 31.116C8.25117 30.2065 6.63725 29.5193 5.09394 28.8625C4.24663 28.4987 3.36906 28.1248 2.52175 27.7205L1.89636 27.4174L2.54192 27.1647C4.93254 26.2249 11.5597 23.9108 21.445 22.6577L21.8989 22.5971L21.7778 23.0316C21.4349 24.2746 21.2634 25.5681 21.2634 26.8717C21.2634 31.1261 23.1295 35.1278 26.3674 37.8563L26.1052 38.3919ZM23.0286 26.8818C23.0286 25.3963 23.2808 23.9411 23.7851 22.5668L23.8457 22.3849L24.0373 22.3647C25.9639 22.1727 27.9309 22.0211 29.8878 21.9301L30.5737 21.8998L30.14 22.4253C28.7177 24.1129 28.1932 26.4978 28.758 28.6401L28.7984 28.7917L28.6975 28.913C28.2133 29.5092 27.941 30.257 27.941 31.025C27.941 32.8541 29.4036 34.3396 31.2092 34.3396C31.9657 34.3396 32.7021 34.0667 33.2871 33.5817L33.4081 33.4806L33.5594 33.5211C34.1344 33.6726 34.7195 33.7535 35.3045 33.7535C37.796 33.7535 40.116 32.3387 41.2861 30.1256L39.6823 29.3475C38.7038 31.116 36.6965 32.1568 34.6892 31.9143L34.3765 31.8739L34.4269 31.5606C34.5984 30.4995 34.2454 29.4587 33.4788 28.6806C32.7222 27.9226 31.7034 27.5892 30.6847 27.7509L30.372 27.8014L30.3316 27.4881C30.1702 26.0633 30.6241 24.6081 31.6026 23.5066C32.5608 22.4253 33.9125 21.8089 35.3045 21.8089C37.9675 21.8089 40.1463 23.9209 40.3077 26.5786H42.083C42.0124 25.0325 41.4374 23.5571 40.4287 22.3849L39.9849 21.8695L40.6708 21.8897C42.5873 21.9402 44.5341 22.0211 46.4708 22.1221L46.6625 22.1322L46.7331 22.3141C47.2979 23.7693 47.5905 25.3053 47.5905 26.8919C47.5905 33.7535 42.083 39.3317 35.3146 39.3317C28.5462 39.3317 23.0286 33.7434 23.0286 26.8818ZM31.2092 29.5193C32.0363 29.5193 32.7021 30.1964 32.7021 31.025C32.7021 31.8537 32.0363 32.5307 31.2092 32.5307C30.382 32.5307 29.7163 31.8537 29.7163 31.025C29.7163 30.1964 30.3921 29.5193 31.2092 29.5193Z" fill="#303030"/>
    <path d="M58.5752 55.9248L60.2597 54.217L54.5908 48.467C53.0778 46.941 51.2218 46.1225 49.2246 46.1326C46.9146 46.1326 44.4837 47.2139 42.5167 49.1137L59.8159 66.6466L61.0768 65.3733L56.7696 61.0078L58.9283 58.825L69.0153 69.0416V73.4071L66.5238 70.8808L65.2629 72.1541L70.0542 77.0148C70.7401 77.7121 71.5572 78.0455 72.4347 77.995C73.2114 77.9445 73.9781 77.5706 74.6035 76.9643C75.2289 76.3478 75.6222 75.5394 75.6828 74.7411C75.7534 73.8417 75.4205 72.9827 74.7144 72.2753L58.5752 55.9248ZM57.6674 57.5517L55.5088 59.7345L45.0687 49.144L45.3713 48.9419C47.8628 47.2644 51.2117 47.5979 53.33 49.7504L57.738 54.217L56.0535 55.9248L57.6674 57.5517ZM73.4636 75.7415C73.1711 76.0447 72.8281 76.1962 72.4549 76.1962C72.4348 76.1962 72.4247 76.1962 72.4045 76.1962C71.6984 76.1659 71.1335 75.6202 70.8511 75.2868L70.7805 75.2059V70.8505L71.2949 71.376C71.416 71.4972 71.5874 71.6589 71.7892 71.8307C72.6567 72.6088 73.8469 73.6598 73.8772 74.7209C73.8974 75.1049 73.7561 75.4484 73.4636 75.7415Z" fill="#303030"/>
    <path d="M61.914 68.7688L63.1345 70.0016L64.3853 68.7283L63.1648 67.4955L61.914 68.7688Z" fill="#303030"/>
    <path d="M47.0054 61.7051H45.2301V64.1304H42.8395V65.9392H45.2301V68.3645H47.0054V65.9392H49.4061V64.1304H47.0054V61.7051Z" fill="#303030"/>
    <path d="M20.0834 49.3746L19.8416 49.2322C19.3983 48.9677 18.9651 48.6829 18.5419 48.398C18.4513 48.337 18.3606 48.2963 18.2498 48.276C18.1893 48.2658 18.1389 48.2556 18.0785 48.2556C18.0281 48.2556 17.9777 48.2556 17.9274 48.2658C17.8266 48.2861 17.7259 48.3167 17.6352 48.3777C17.5445 48.4286 17.474 48.4998 17.4136 48.5811C17.3531 48.6625 17.3128 48.7541 17.2927 48.8456C17.2826 48.9575 17.2725 49.0491 17.2927 49.1508C17.3128 49.2525 17.343 49.3441 17.4035 49.4255C17.4639 49.5068 17.5345 49.5882 17.6151 49.6391C18.1389 49.9951 18.683 50.341 19.227 50.6665C19.4084 50.7784 19.63 50.8089 19.8416 50.7581C20.0531 50.7072 20.2345 50.5851 20.3352 50.4122C20.4461 50.2393 20.4763 50.0358 20.436 49.8425C20.3957 49.6493 20.2647 49.4865 20.0834 49.3746Z" fill="#303030"/>
    <path d="M35.8302 53.4945C34.6615 53.586 33.4727 53.586 32.2939 53.4945C32.2637 53.4945 32.2335 53.4945 32.2033 53.4945C32.1227 53.4945 32.0421 53.5046 31.9615 53.525C31.8607 53.5555 31.76 53.6064 31.6794 53.6674C31.5988 53.7284 31.5282 53.8098 31.488 53.9014C31.4376 53.9929 31.4074 54.0845 31.4074 54.1862C31.4074 54.2879 31.4074 54.3795 31.4477 54.4812C31.4779 54.5728 31.5282 54.6643 31.5988 54.7355C31.6693 54.8169 31.7499 54.8779 31.8506 54.9186C31.9514 54.9695 32.0521 54.9898 32.163 55C33.4626 55.1017 34.7119 55.1017 35.9611 55C36.1727 54.9797 36.3742 54.8881 36.5052 54.7355C36.6361 54.5829 36.7067 54.3896 36.6865 54.1862C36.6664 53.9929 36.5656 53.7996 36.4145 53.6776C36.2634 53.5453 36.0417 53.4843 35.8302 53.4945Z" fill="#303030"/>
    <path d="M27.9416 52.8129C27.861 52.7519 27.7603 52.701 27.6596 52.6705C26.5211 52.3551 25.3927 51.9686 24.3047 51.5108C24.2039 51.4701 24.1032 51.4498 23.9923 51.4396C23.9823 51.4396 23.9823 51.4396 23.9722 51.4396C23.8715 51.4396 23.7707 51.46 23.68 51.4905C23.5793 51.5312 23.4886 51.582 23.4181 51.6532C23.3375 51.7245 23.2871 51.8058 23.2367 51.8974C23.1964 51.9889 23.1763 52.0805 23.1763 52.1822C23.1763 52.2839 23.1964 52.3755 23.2367 52.467C23.277 52.5586 23.3375 52.64 23.408 52.7112C23.4785 52.7824 23.5692 52.8434 23.67 52.8841C24.8286 53.3622 26.0174 53.7793 27.2263 54.115C27.3271 54.1455 27.4379 54.1557 27.5387 54.1353C27.6394 54.1252 27.7502 54.0946 27.8409 54.0438C27.9316 53.9929 28.0122 53.9319 28.0726 53.8505C28.1331 53.7691 28.1834 53.6877 28.2137 53.586C28.2439 53.4945 28.254 53.3927 28.2338 53.291C28.2237 53.1893 28.1935 53.0977 28.1431 53.0164C28.0827 52.9452 28.0222 52.8739 27.9416 52.8129Z" fill="#303030"/>
    <path d="M44.7161 51.6736C44.6455 51.6024 44.5549 51.5515 44.4541 51.5108C44.3635 51.4701 44.2526 51.46 44.1519 51.46H44.1418C44.031 51.46 43.9302 51.4803 43.8295 51.521C42.7414 51.9686 41.6131 52.3653 40.4746 52.6705C40.2832 52.7315 40.1119 52.8638 40.0112 53.0367C39.9104 53.2096 39.8903 53.4131 39.9407 53.5962C40.0011 53.7895 40.1321 53.9522 40.3134 54.054C40.4948 54.1557 40.7164 54.1862 40.928 54.1252C42.1269 53.7895 43.3258 53.3826 44.4743 52.9045C44.575 52.8638 44.6556 52.8027 44.7362 52.7315C44.8067 52.6603 44.8672 52.5789 44.8974 52.4874C44.9377 52.3958 44.9579 52.2941 44.9579 52.2026C44.9579 52.1008 44.9377 52.0093 44.8974 51.9177C44.847 51.8262 44.7866 51.7448 44.7161 51.6736Z" fill="#303030"/>
  </symbol>

  <symbol viewBox="0 0 80 80" fill="none" id="6">
    <path d="M41.3889 55.7679C34.979 55.7679 29.7645 50.5756 29.7645 44.1938C29.7645 37.812 34.979 32.6197 41.3889 32.6197C47.7984 32.6197 53.0129 37.812 53.0129 44.1938C53.0129 50.5756 47.7984 55.7679 41.3889 55.7679ZM41.3889 34.2612C35.8883 34.2612 31.4127 38.717 31.4127 44.1938C31.4127 49.6707 35.8883 54.1265 41.3889 54.1265C46.8896 54.1265 51.3647 49.6707 51.3647 44.1938C51.3647 38.717 46.8896 34.2612 41.3889 34.2612Z" fill="#303030"/>
    <path d="M52.3266 58.9056C51.8418 59.1141 51.3414 59.3124 50.839 59.4957C50.4116 59.6512 50.1919 60.1224 50.3485 60.548C50.4708 60.8808 50.7866 61.0867 51.1226 61.0867C51.2166 61.0867 51.3123 61.0705 51.4058 61.0367C51.9375 60.8428 52.467 60.633 52.9797 60.4125C53.3977 60.2331 53.5904 59.7499 53.4097 59.3337C53.2295 58.918 52.7446 58.7262 52.3266 58.9056Z" fill="#303030"/>
    <path d="M56.2689 56.8082C55.826 57.0949 55.3669 57.3722 54.9039 57.6328C54.5074 57.8558 54.3679 58.3565 54.5919 58.7509C54.7434 59.0179 55.0223 59.1679 55.3102 59.1679C55.4476 59.1679 55.5866 59.1337 55.7149 59.0615C56.2075 58.7842 56.6962 58.489 57.1674 58.1844C57.5489 57.9374 57.6574 57.429 57.4094 57.0492C57.161 56.6689 56.6508 56.5612 56.2689 56.8082Z" fill="#303030"/>
    <path d="M59.7776 54.0653C59.3932 54.4263 58.9911 54.7801 58.5826 55.1163C58.232 55.4051 58.1827 55.9225 58.4728 56.2716C58.6358 56.4681 58.8714 56.5694 59.1082 56.5694C59.2932 56.5694 59.4794 56.5078 59.6335 56.3809C60.069 56.0221 60.4981 55.6448 60.9088 55.2594C61.24 54.9484 61.255 54.4293 60.9427 54.0995C60.6307 53.7696 60.1089 53.7542 59.7776 54.0653Z" fill="#303030"/>
    <path d="M17.4532 50.5465C17.0816 50.8088 16.994 51.3211 17.2575 51.6907C17.5823 52.1466 17.9307 52.6011 18.2942 53.0412C18.4568 53.239 18.6933 53.3411 18.9314 53.3411C19.1155 53.3411 19.3009 53.28 19.4541 53.1549C19.8059 52.8673 19.857 52.3504 19.5678 52C19.2292 51.5894 18.9044 51.166 18.6019 50.7413C18.3388 50.3713 17.8243 50.2842 17.4532 50.5465Z" fill="#303030"/>
    <path d="M48.0838 60.3514C47.5719 60.4847 47.0458 60.6073 46.5197 60.7167C46.0743 60.8094 45.7885 61.2439 45.8812 61.6878C45.9627 62.0749 46.3052 62.3406 46.6875 62.3406C46.7433 62.3406 46.7999 62.3351 46.8566 62.3231C47.4092 62.2082 47.9623 62.0792 48.5004 61.9395C48.9407 61.825 49.2046 61.3763 49.0896 60.938C48.9746 60.4996 48.5249 60.2365 48.0838 60.3514Z" fill="#303030"/>
    <path d="M62.7221 50.7358C62.4132 51.1601 62.0836 51.5809 61.7438 51.9868C61.452 52.3346 61.4988 52.8519 61.8481 53.1425C62.0021 53.2706 62.1896 53.333 62.3759 53.333C62.6114 53.333 62.8457 53.2331 63.0088 53.0387C63.3731 52.6046 63.7254 52.1538 64.0566 51.6997C64.324 51.3327 64.2416 50.8195 63.8734 50.5534C63.5048 50.2872 62.9895 50.3688 62.7221 50.7358Z" fill="#303030"/>
    <path d="M25.0113 56.8514C24.6307 56.6027 24.1197 56.7087 23.8704 57.0877C23.6206 57.4666 23.727 57.9755 24.1077 58.2237C24.578 58.5309 25.0658 58.8278 25.558 59.1064C25.6863 59.1795 25.8262 59.2141 25.9648 59.2141C26.251 59.2141 26.5299 59.065 26.6818 58.7992C26.9067 58.4053 26.7685 57.9041 26.3729 57.6802C25.9112 57.4183 25.4529 57.1394 25.0113 56.8514Z" fill="#303030"/>
    <path d="M28.9458 58.9547C28.5279 58.7753 28.043 58.9675 27.8628 59.3837C27.6826 59.7998 27.8752 60.2826 28.2932 60.4621C28.8077 60.6825 29.338 60.8923 29.8693 61.0846C29.9624 61.1183 30.0576 61.1341 30.1508 61.1341C30.4876 61.1341 30.8038 60.9273 30.9253 60.5937C31.081 60.1677 30.8605 59.6969 30.4327 59.5422C29.9311 59.3606 29.4307 59.1632 28.9458 58.9547Z" fill="#303030"/>
    <path d="M21.5184 54.0914C21.1893 53.7782 20.6675 53.7902 20.3534 54.1179C20.0389 54.4456 20.0509 54.9651 20.38 55.2783C20.7877 55.6658 21.2151 56.046 21.6493 56.4079C21.8038 56.5361 21.9913 56.5989 22.1775 56.5989C22.4131 56.5989 22.647 56.4989 22.81 56.3049C23.1023 55.9572 23.0559 55.4398 22.707 55.1488C22.2998 54.81 21.9003 54.4541 21.5184 54.0914Z" fill="#303030"/>
    <path d="M33.1879 60.3856C32.7467 60.2737 32.2983 60.5394 32.1859 60.9786C32.0739 61.4178 32.3404 61.8643 32.7815 61.9762C33.3205 62.1125 33.8753 62.2377 34.4297 62.3484C34.4842 62.359 34.5387 62.3642 34.5923 62.3642C34.9772 62.3642 35.3214 62.0946 35.3995 61.7045C35.4887 61.2602 35.1991 60.8278 34.7528 60.7389C34.2259 60.6343 33.6994 60.5151 33.1879 60.3856Z" fill="#303030"/>
    <path d="M44.5805 61.901C44.5243 61.4511 44.1115 61.1324 43.661 61.188C43.1349 61.2529 42.5951 61.3084 42.0565 61.352C41.603 61.3892 41.2653 61.7853 41.3026 62.2369C41.3374 62.6658 41.6982 62.9905 42.1231 62.9905C42.1454 62.9905 42.1681 62.9897 42.1909 62.9879C42.7521 62.9422 43.3151 62.8846 43.8644 62.8166C44.3162 62.7607 44.6367 62.3509 44.5805 61.901Z" fill="#303030"/>
    <path d="M39.9844 62.1932C40.0144 61.7412 39.6707 61.3503 39.2167 61.3204C38.6778 61.2845 38.138 61.2371 37.6123 61.179C37.1601 61.1285 36.7524 61.4533 36.7022 61.9036C36.652 62.3543 36.9777 62.7598 37.4304 62.8102C37.9801 62.8709 38.5443 62.9204 39.1078 62.958C39.1262 62.9593 39.1447 62.9597 39.1631 62.9597C39.5931 62.9597 39.9557 62.6269 39.9844 62.1932Z" fill="#303030"/>
    <path d="M64.6509 59.678C63.8515 60.3719 63.0714 61.0708 62.3166 61.7472C58.5826 65.0929 55.0553 68.2533 50.1177 69.899C46.3566 71.1522 42.3325 71.6114 38.4795 71.2269C33.6448 70.7446 30.3227 69.4039 26.2231 66.2807C24.729 65.1425 23.3215 63.7634 21.9604 62.4299C19.9041 60.4146 17.7775 58.3309 15.2089 56.9018C14.8111 56.6805 14.3091 56.8223 14.0872 57.2179C13.8649 57.6136 14.0074 58.1134 14.4048 58.3343C16.7798 59.6558 18.7348 61.5716 20.8044 63.5997C22.2011 64.9686 23.6459 66.3841 25.2216 67.5842C29.5924 70.9138 33.1411 72.3438 38.3152 72.8599C39.2532 72.9534 40.2002 73 41.1516 73C44.3411 73 47.5748 72.4771 50.6412 71.4555C55.9037 69.7017 59.5545 66.4302 63.4194 62.967C64.1695 62.2953 64.9449 61.6002 65.7344 60.9153C66.0773 60.6175 66.1133 60.0989 65.8142 59.7575C65.5147 59.4157 64.9942 59.3802 64.6509 59.678Z" fill="#303030"/>
    <path d="M67.801 31.0363C67.1475 29.9173 66.3266 28.8129 65.362 27.7542C63.9305 26.1832 62.345 24.7472 60.7766 23.6018C58.5015 21.9402 56.5306 20.7674 54.5735 19.9104C53.4819 19.4323 52.3246 19.0067 51.1338 18.6461C45.9816 17.085 39.966 16.6312 33.254 17.2977C32.8626 17.3366 32.4657 17.3811 32.074 17.4306C31.6225 17.4874 31.3029 17.898 31.3599 18.3479C31.417 18.7974 31.8289 19.1157 32.2812 19.0589C32.6584 19.011 33.0407 18.9683 33.4175 18.9307C39.9119 18.286 45.7108 18.7183 50.6537 20.2163C51.7822 20.5581 52.8777 20.9605 53.9097 21.4126C55.754 22.2201 57.6261 23.336 59.8017 24.925C61.2821 26.0063 62.7827 27.3658 64.1412 28.8569C64.814 29.5956 65.4092 30.3557 65.9177 31.1247C62.4415 29.1124 58.538 27.3376 54.0153 25.7124C50.6558 24.5045 46.4742 23.0011 42.2317 23.1262C40.6182 23.1737 38.928 23.3664 37.2073 23.6992C32.8528 24.5409 28.2884 26.2584 23.6408 28.8031C23.5696 28.842 23.3533 28.9607 18.9778 31.7263C18.7782 31.8528 18.5122 31.822 18.3465 31.6537L13.7942 27.0334C13.6535 26.8907 13.6436 26.7258 13.65 26.6404C13.6565 26.5562 13.6904 26.3977 13.847 26.2806C18.0363 23.1502 23.1448 20.8691 28.621 19.6839C29.0655 19.5878 29.3479 19.1507 29.2513 18.7077C29.1543 18.2646 28.7158 17.9839 28.2708 18.08C22.5646 19.3148 17.2347 21.6967 12.8575 24.9681C12.3631 25.3372 12.0529 25.9016 12.0061 26.5164C11.9594 27.1338 12.1821 27.7409 12.6176 28.1827L17.1699 32.803C17.5853 33.2242 18.1462 33.443 18.7117 33.443C19.1095 33.443 19.5094 33.3345 19.8613 33.1119C23.8421 30.5958 24.3699 30.2779 24.4355 30.2412C28.9325 27.779 33.3355 26.12 37.5214 25.3103C39.155 24.9942 40.756 24.8113 42.2802 24.7669C46.2073 24.6511 50.2276 26.0956 53.4557 27.256C58.2076 28.9641 62.254 30.8359 65.8254 32.9773C66.394 33.3186 67.0943 33.2358 67.5676 32.7718C68.0417 32.3065 68.1357 31.6092 67.801 31.0363Z" fill="#303030"/>
    <path d="M41.3889 69.1339C41.8442 69.1339 42.2132 68.7665 42.2132 68.3132V67.3604C42.3394 67.4331 42.4814 67.4698 42.6243 67.4698C42.8212 67.4698 43.0191 67.4002 43.1765 67.2579C43.5143 66.9541 43.5404 66.435 43.2353 66.0992L42.0012 64.7406C41.8455 64.5688 41.6236 64.4705 41.3906 64.4705C41.158 64.4705 40.9358 64.5684 40.7796 64.7401L39.5429 66.0983C39.2374 66.4342 39.2627 66.9533 39.6 67.2575C39.8716 67.5027 40.2629 67.5335 40.5646 67.3604V68.3132C40.5646 68.7665 40.9336 69.1339 41.3889 69.1339Z" fill="#303030"/>
    <path d="M49.5595 30.9649C45.2234 29.3619 41.8069 29.4209 41.3889 29.4358C40.9705 29.4209 37.5545 29.3619 33.2184 30.9649C29.0458 32.5073 23.2036 35.9509 19.0674 43.5982C18.8658 43.9712 18.8658 44.4164 19.0674 44.7894C23.2036 52.4366 29.0458 55.8803 33.2184 57.4226C37.5527 59.0248 40.9688 58.9658 41.3881 58.9517C41.443 58.9539 41.5447 58.9564 41.6893 58.9564C43.171 58.9564 49.1574 58.6774 55.2099 54.4832C55.5836 54.2242 55.6759 53.7128 55.4154 53.3407C55.1554 52.969 54.6422 52.8771 54.2684 53.1361C47.9173 57.5375 41.4898 57.3137 41.4271 57.3107C41.4014 57.3098 41.376 57.3098 41.3507 57.3107C41.3177 57.3128 38.0136 57.4444 33.7921 55.8841C31.3076 54.9659 29.0123 53.65 26.9698 51.9739C24.46 49.9138 22.3239 47.2969 20.6182 44.1938C22.3153 41.1061 24.4389 38.4994 26.9329 36.4444C28.9655 34.7691 31.2501 33.4519 33.723 32.5291C37.9548 30.95 41.3177 31.0747 41.3507 31.0769C41.3752 31.0777 41.4014 31.0777 41.4258 31.0769C41.4593 31.0752 44.823 30.95 49.0544 32.5291C51.5277 33.4519 53.8123 34.7691 55.8445 36.4444C58.3385 38.4994 60.4621 41.1061 62.1592 44.1938C60.7552 46.7483 59.0538 48.9811 57.1001 50.8332C56.7705 51.1455 56.7576 51.665 57.0713 51.9932C57.385 52.3213 57.9068 52.3341 58.2363 52.0218C60.3625 50.0065 62.2042 47.5729 63.71 44.7894C63.9116 44.4164 63.9116 43.9712 63.71 43.5982C59.5743 35.9509 53.732 32.5073 49.5595 30.9649Z" fill="#303030"/>
    <path d="M43.988 35.3233C42.7084 35.3233 41.555 35.8702 40.7496 36.7409C36.9044 37.0652 33.8745 40.2828 33.8745 44.1938C33.8745 48.3193 37.2451 51.6758 41.3889 51.6758C45.5323 51.6758 48.9034 48.3193 48.9034 44.1938C48.9034 43.0595 48.6463 41.9845 48.1906 41.0202C48.3211 40.6058 48.3919 40.1653 48.3919 39.7086C48.3919 37.2904 46.4163 35.3233 43.988 35.3233ZM43.988 36.9648C45.5074 36.9648 46.7437 38.1953 46.7437 39.7081C46.7437 41.221 45.5074 42.4519 43.988 42.4519C42.4685 42.4519 41.2323 41.221 41.2323 39.7081C41.2323 38.1953 42.4685 36.9648 43.988 36.9648ZM41.3889 50.0347C38.1543 50.0347 35.5227 47.4144 35.5227 44.1938C35.5227 41.5474 37.3004 39.3087 39.7287 38.5939C39.6347 38.9502 39.5841 39.3232 39.5841 39.7086C39.5841 42.1264 41.5597 44.0934 43.988 44.0934C45.1963 44.0934 46.2927 43.6059 47.0891 42.8185C47.1968 43.2599 47.2552 43.72 47.2552 44.1938C47.2552 47.4144 44.6235 50.0347 41.3889 50.0347Z" fill="#303030"/>
  </symbol>
</svg>