<svg width="280" height="256" fill="none" xmlns="http://www.w3.org/2000/svg"><path d="M48.863 28.7l.194-.461-.194.461zM.607 22.032a.5.5 0 00.084.702l3.54 2.779a.5.5 0 00.617-.787l-3.146-2.47 2.47-3.146a.5.5 0 10-.786-.618l-2.78 3.54zM1 22.34l.06.497h.002l.006-.001.03-.003a20.282 20.282 0 01.578-.06 69.58 69.58 0 011.782-.149l-.071-.997a71.26 71.26 0 00-2.281.198 22.281 22.281 0 00-.165.019L1 22.34zm7.295.06a117.39 117.39 0 014.864-.015l.017-1a119.35 119.35 0 00-4.904.015l.023 1zm9.711.167c1.547.09 3.163.213 4.835.38l.099-.995a117.164 117.164 0 00-4.876-.384l-.058.999zm9.655.97c1.566.226 3.163.494 4.78.807l.19-.981a102.815 102.815 0 00-4.826-.816l-.143.99zm9.513 1.852a84.88 84.88 0 014.669 1.3l.296-.956a86.16 86.16 0 00-4.724-1.315l-.24.97zm9.248 2.875c.752.285 1.502.584 2.248.897l.387-.922a72.51 72.51 0 00-2.28-.91l-.355.935zm2.248.897a71.87 71.87 0 012.269 1.001l.42-.907a69.983 69.983 0 00-2.302-1.016l-.387.922zm6.73 3.223c1.442.765 2.898 1.58 4.354 2.43l.504-.864a124.908 124.908 0 00-4.39-2.45l-.468.884zm8.625 5.016c1.416.887 2.82 1.794 4.199 2.707l.552-.834a196.916 196.916 0 00-4.22-2.72l-.53.847zm8.336 5.514c1.407.978 2.772 1.946 4.077 2.89l.586-.811c-1.31-.947-2.68-1.919-4.093-2.9l-.57.821zm8.102 5.85a301.38 301.38 0 013.98 3.034l.613-.79a302.409 302.409 0 00-3.994-3.044l-.6.8zm7.91 6.137a191.772 191.772 0 011.913 1.56l.006.004.001.001.32-.383.321-.384-.002-.002-.006-.005-.025-.02-.096-.08-.374-.308c-.328-.27-.811-.664-1.43-1.162l-.627.779zm-39.51-26.2l.387-.923-.387.922zM.213 21.722a1 1 0 00.17 1.404l7.078 5.558a1 1 0 101.235-1.573l-6.292-4.94 4.94-6.293a1 1 0 00-1.573-1.235l-5.558 7.08zM1 22.34l.12.993h.007a3.302 3.302 0 01.141-.016 69.718 69.718 0 012.225-.194l-.142-1.995a71.585 71.585 0 00-2.3.2l-.125.014-.033.004-.009.001H.88l.12.993zm7.307.56c1.445-.035 3.07-.046 4.843-.015l.035-2a120.36 120.36 0 00-4.925.015l.047 2zm9.67.166c1.54.09 3.15.213 4.814.379l.199-1.99c-1.693-.17-3.331-.295-4.897-.386l-.116 1.997zm9.613.965c1.558.226 3.147.492 4.755.804l.381-1.963a103.21 103.21 0 00-4.85-.82l-.286 1.98zm9.464 1.843a84.22 84.22 0 014.64 1.292l.593-1.91a86.579 86.579 0 00-4.751-1.323l-.482 1.941zm9.19 2.857c.748.284 1.492.58 2.233.891l.773-1.844a73.212 73.212 0 00-2.295-.916l-.71 1.87zm2.233.891c.74.31 1.492.643 2.252.994l.84-1.815a72.014 72.014 0 00-2.319-1.023l-.773 1.844zm6.688 3.203c1.436.762 2.886 1.574 4.337 2.42l1.008-1.727a125.36 125.36 0 00-4.407-2.46l-.938 1.767zm8.595 4.998a200.15 200.15 0 014.188 2.701l1.104-1.667a197.078 197.078 0 00-4.23-2.728l-1.062 1.695zm8.316 5.502a264.73 264.73 0 014.07 2.884l1.17-1.622a266.55 266.55 0 00-4.1-2.905l-1.14 1.643zm8.087 5.84a302.655 302.655 0 013.974 3.028l1.225-1.58a303.381 303.381 0 00-4-3.049l-1.2 1.6zm7.897 6.125a195.038 195.038 0 011.882 1.535l.024.02.005.004.002.001.64-.767.642-.768-.003-.002-.006-.005-.025-.02a38.684 38.684 0 00-.473-.39 194.3 194.3 0 00-1.434-1.166L88.06 55.29z" fill="url(#paint0_linear)"/><path d="M44.317 119.486v-.5.5zM.57 125.075a.5.5 0 00.175.685l3.873 2.293a.5.5 0 00.51-.861l-3.443-2.038 2.038-3.442a.5.5 0 00-.861-.509L.57 125.075zm.43.255l.124.484h.003l.008-.002.032-.009.13-.032a138.22 138.22 0 012.465-.588l-.224-.974a157.44 157.44 0 00-2.616.625 6.944 6.944 0 01-.034.009l-.009.002H.877v.001H.875l.124.484zm8.107-1.301c1.607-.326 3.41-.675 5.367-1.026l-.177-.984c-1.964.352-3.775.702-5.389 1.03l.2.98zm10.761-1.928c1.738-.269 3.549-.529 5.41-.768l-.128-.992c-1.87.241-3.689.501-5.435.772l.153.988zm10.834-1.387c1.794-.178 3.613-.33 5.44-.449l-.065-.998c-1.839.12-3.67.273-5.473.452l.098.995zm10.89-.694c.912-.022 1.82-.034 2.725-.034v-1c-.913 0-1.83.012-2.748.034l.024 1zm2.725-.034c.886 0 1.78-.043 2.68-.125l-.09-.996c-.872.08-1.736.121-2.59.121v1zm7.964-1.014a50.335 50.335 0 005.109-1.531l-.335-.943a48.819 48.819 0 01-5.008 1.501l.234.973zm10.048-3.529a82.943 82.943 0 004.773-2.344l-.468-.884a81.813 81.813 0 01-4.716 2.317l.41.911zm9.396-4.959c1.557-.933 3.06-1.887 4.492-2.836l-.552-.834a118.143 118.143 0 01-4.454 2.813l.514.857zm8.855-5.854a143.648 143.648 0 004.249-3.184l-.614-.789c-1.254.976-2.67 2.046-4.22 3.162l.585.811zm8.373-6.524a97.3 97.3 0 001.963-1.703l.026-.023.006-.006.002-.002-.336-.37-.337-.37-.002.002-.005.005-.024.022-.096.086-.38.337a96.38 96.38 0 01-1.462 1.258l.645.764zm-44.636 21.38v-1 1zM.14 124.821a1 1 0 00.352 1.37l7.744 4.584a1 1 0 001.02-1.721l-6.885-4.075 4.075-6.884a1 1 0 10-1.721-1.019L.14 124.821zm.861.509l.248.969.002-.001.008-.002.032-.008.128-.032.508-.126c.447-.108 1.105-.266 1.948-.459l-.448-1.95a175.447 175.447 0 00-2.493.595l-.134.033a4.396 4.396 0 01-.035.009l-.009.002-.002.001H.752l.248.969zm8.207-.811c1.603-.325 3.403-.674 5.355-1.024l-.353-1.968c-1.968.353-3.783.704-5.4 1.032l.398 1.96zm10.738-1.924c1.734-.269 3.54-.527 5.396-.766l-.255-1.984c-1.875.241-3.698.503-5.447.774l.306 1.976zm10.806-1.384a160.76 160.76 0 015.424-.447l-.13-1.996c-1.845.12-3.681.274-5.49.453l.197 1.99zm10.854-.692a117.25 117.25 0 012.712-.033v-2c-.917 0-1.837.012-2.76.034l.047 1.999zm2.712-.033c.902 0 1.812-.043 2.726-.127l-.181-1.991c-.858.078-1.707.118-2.545.118v2zm8.08-1.028a50.709 50.709 0 005.16-1.546l-.67-1.885a48.445 48.445 0 01-4.956 1.486l.466 1.945zm10.137-3.559a82.479 82.479 0 004.802-2.359l-.937-1.766a81.634 81.634 0 01-4.686 2.302l.821 1.823zm9.448-4.986a118.89 118.89 0 004.511-2.848l-1.104-1.667c-1.416.937-2.9 1.879-4.435 2.8l1.028 1.715zm8.89-5.877a143.02 143.02 0 004.264-3.196l-1.229-1.578c-1.25.973-2.66 2.039-4.204 3.151l1.17 1.623zm8.404-6.548a98.025 98.025 0 001.975-1.714l.027-.024a.492.492 0 00.008-.008h.001l-.673-.74-.674-.74v.002c-.002 0-.004.002-.006.005l-.023.02a27.204 27.204 0 01-.471.42c-.332.29-.823.717-1.455 1.25l1.29 1.529z" fill="url(#paint1_linear)"/><path d="M56.82 214.315l-.328-.376.329.376zM.663 232.475a.5.5 0 00-.03.706L3.67 236.5a.501.501 0 00.737-.676l-2.702-2.95 2.95-2.701a.5.5 0 00-.675-.738l-3.319 3.04zm.338.368l-.022.5h.012l.032.002.126.004c.111.003.275.008.489.011.427.007 1.054.011 1.857-.001l-.015-1a57.764 57.764 0 01-2.3-.01l-.12-.004-.03-.001h-.008l-.022.499zm7.524.291c1.498-.108 3.18-.264 5.009-.488l-.122-.992c-1.81.221-3.476.376-4.96.483l.073.997zm9.994-1.222a100.61 100.61 0 004.93-.977l-.22-.976a98.143 98.143 0 01-4.88.967l.17.986zm9.81-2.208a89.214 89.214 0 004.807-1.495l-.324-.946a88.541 88.541 0 01-4.754 1.478l.27.963zm9.52-3.268a77.71 77.71 0 004.596-2.064l-.44-.898a76.595 76.595 0 01-4.536 2.037l.38.925zm9.045-4.433a67.797 67.797 0 004.269-2.683l-.564-.826a67.417 67.417 0 01-4.206 2.644l.5.865zm8.322-5.688a62.706 62.706 0 001.935-1.623l-.658-.753a61.986 61.986 0 01-1.903 1.597l.627.779zm1.935-1.623a38.411 38.411 0 001.724-1.61l-.703-.711a36.835 36.835 0 01-1.68 1.568l.659.753zm4.915-5.078a81.93 81.93 0 002.933-3.676l-.798-.602a81.206 81.206 0 01-2.898 3.631l.763.647zm5.68-7.486a148.17 148.17 0 002.6-3.901l-.84-.542a146.786 146.786 0 01-2.583 3.874l.823.569zm5.087-7.872c.81-1.332 1.61-2.679 2.393-4.028l-.865-.502a222 222 0 01-2.382 4.01l.854.52zm4.703-8.099a294.867 294.867 0 002.242-4.111l-.882-.472c-.722 1.35-1.468 2.72-2.234 4.097l.874.486zm4.422-8.257a356.445 356.445 0 002.123-4.173l-.894-.447c-.67 1.337-1.377 2.73-2.117 4.161l.888.459zm4.19-8.369a376.506 376.506 0 002.017-4.226l-.905-.426a377.464 377.464 0 01-2.012 4.216l.9.436zm3.98-8.48a235.483 235.483 0 00.883-1.978l.047-.106.011-.027.003-.007.001-.001v-.001l-.458-.199-.459-.2v.002l-.003.007-.012.026-.045.104-.18.408c-.159.358-.394.885-.7 1.559l.912.413zM56.82 214.315l-.658-.752.658.752zM.325 232.106a1 1 0 00-.062 1.413l6.078 6.637a1 1 0 001.475-1.351l-5.403-5.899 5.9-5.404a.999.999 0 10-1.351-1.475l-6.637 6.079zm.675.737l-.044.999v.001H.97l.034.001.13.005.496.011c.432.007 1.064.011 1.873-.001l-.03-2a56.773 56.773 0 01-2.278-.009l-.116-.004-.028-.001-.006-.001h-.001l-.044.999zm7.56.79c1.506-.109 3.196-.266 5.033-.49l-.243-1.986a98.779 98.779 0 01-4.934.481l.144 1.995zm10.043-1.228a100.74 100.74 0 004.954-.982l-.438-1.952a99.305 99.305 0 01-4.855.963l.34 1.971zm9.86-2.22a89.555 89.555 0 004.834-1.503l-.648-1.892a88.2 88.2 0 01-4.727 1.47l.54 1.925zm9.576-3.286a78.304 78.304 0 004.625-2.078l-.879-1.796a76.705 76.705 0 01-4.507 2.024l.76 1.85zm9.104-4.463a68.455 68.455 0 004.3-2.703l-1.127-1.652a66.756 66.756 0 01-4.174 2.624l1.001 1.731zm8.386-5.732a62.314 62.314 0 001.95-1.636l-1.316-1.505a61.06 61.06 0 01-1.888 1.583l1.254 1.558zm1.95-1.636a38.34 38.34 0 001.747-1.631l-1.407-1.421a36.438 36.438 0 01-1.656 1.547l1.316 1.505zm4.967-5.13a82.595 82.595 0 002.951-3.699l-1.597-1.204a81.228 81.228 0 01-2.879 3.609l1.525 1.294zm5.71-7.526c.878-1.27 1.749-2.579 2.61-3.914l-1.681-1.084c-.85 1.319-1.71 2.61-2.574 3.861l1.645 1.137zm5.103-7.896a218.765 218.765 0 002.398-4.038l-1.73-1.003a219.3 219.3 0 01-2.377 4.001l1.709 1.04zm4.713-8.116c.77-1.385 1.52-2.761 2.246-4.118l-1.763-.944a294.528 294.528 0 01-2.23 4.09l1.747.972zm4.43-8.27a359.142 359.142 0 002.125-4.179l-1.788-.895a359.69 359.69 0 01-2.114 4.156l1.776.918zm4.195-8.381a373.892 373.892 0 002.02-4.232l-1.81-.85a372.28 372.28 0 01-2.01 4.209l1.8.873zm3.986-8.492c.306-.678.543-1.209.703-1.571l.182-.412.047-.107.012-.027.003-.007v-.003l-.916-.398-.917-.399v.002a.673.673 0 00-.014.032l-.046.103-.18.406c-.158.357-.392.883-.697 1.556l1.822.825z" fill="url(#paint2_linear)"/><path d="M212.544 11.286l.15.477-.15-.477zm65.425-2.955a.5.5 0 01-.088.702l-3.554 2.761a.5.5 0 11-.613-.79l3.158-2.454-2.454-3.158a.5.5 0 11.789-.614l2.762 3.553zm-.395.307l-.062.496h-.01a16.822 16.822 0 00-.14-.017c-.099-.013-.247-.03-.441-.053-.389-.045-.962-.109-1.7-.186l.104-.994a157.558 157.558 0 012.157.24l.115.013.029.004h.007l.002.001h.001l-.062.496zm-7.012-.196a270.931 270.931 0 00-4.654-.35l.066-.998c1.712.114 3.279.234 4.672.351l-.084.997zm-9.324-.622c-1.49-.074-3.049-.14-4.664-.191l.032-1c1.621.052 3.186.118 4.681.192l-.049.999zm-9.33-.298a231.29 231.29 0 00-4.664-.017l-.006-1a234.34 234.34 0 014.684.017l-.014 1zm-9.33.065c-1.544.045-3.102.108-4.662.193l-.054-.999c1.569-.085 3.135-.148 4.687-.193l.029 1zm-9.314.51c-1.555.13-3.104.283-4.639.463l-.117-.993a139.68 139.68 0 014.673-.466l.083.997zm-9.255 1.095a94.868 94.868 0 00-4.576.834l-.204-.979a95.96 95.96 0 014.624-.843l.156.988zm-9.09 1.917c-.755.207-1.497.425-2.225.654l-.3-.954a62.92 62.92 0 012.26-.664l.265.964zm-2.225.654a39.85 39.85 0 00-2.396.84l-.36-.934c.813-.313 1.632-.6 2.456-.86l.3.954zm-7.034 2.928a57.614 57.614 0 00-4.421 2.538l-.535-.845a58.764 58.764 0 014.498-2.582l.458.89zm-8.632 5.428a83.163 83.163 0 00-4.012 3.169l-.643-.766a84.45 84.45 0 014.061-3.207l.594.804zm-7.843 6.563a113.82 113.82 0 00-3.664 3.58l-.714-.7a113.99 113.99 0 013.696-3.611l.682.731zm-7.173 7.316a140.27 140.27 0 00-3.363 3.866l-.766-.643a140.651 140.651 0 013.387-3.894l.742.67zm-6.59 7.852a150.045 150.045 0 00-3.088 4.089l-.809-.59a154.39 154.39 0 013.109-4.115l.788.616zm-6.03 8.28a88.76 88.76 0 00-1.305 1.992l-.067.106-.016.027-.004.006-.001.002-.425-.263-.425-.263v-.001l.001-.002.005-.007.018-.028.068-.11.271-.424c.238-.37.591-.91 1.051-1.593l.829.558zm43.152-38.844l.301.954-.301-.954zm65.819-3.261a1 1 0 01-.176 1.403l-7.106 5.522a1 1 0 11-1.227-1.579l6.317-4.909-4.909-6.317a1 1 0 011.579-1.227l5.522 7.107zm-.789.613l-.125.992h-.008l-.028-.004a159.77 159.77 0 00-2.243-.25l.207-1.99a158.226 158.226 0 012.281.255l.029.004h.01l.001.001-.124.992zm-7.054.302a269.363 269.363 0 00-4.646-.35l.133-1.995c1.715.114 3.285.235 4.681.352l-.168 1.993zm-9.307-.62a266.625 266.625 0 00-4.655-.192l.064-1.998c1.624.052 3.192.117 4.69.192l-.099 1.997zm-9.311-.298a230.87 230.87 0 00-4.654-.017l-.014-2a232.79 232.79 0 014.695.017l-.027 2zm-9.309.065c-1.541.045-3.094.108-4.65.192l-.108-1.997c1.574-.085 3.143-.15 4.7-.194l.058 1.999zm-9.288.509a138.27 138.27 0 00-4.622.46l-.233-1.986c1.553-.182 3.119-.337 4.689-.467l.166 1.993zm-9.218 1.09a94.07 94.07 0 00-4.552.83l-.408-1.958a96.133 96.133 0 014.648-.848l.312 1.976zm-9.036 1.906c-.749.205-1.485.421-2.206.648l-.601-1.908a63.449 63.449 0 012.278-.67l.529 1.93zm-2.206.648c-.793.25-1.583.527-2.368.829l-.718-1.867a42.004 42.004 0 012.485-.87l.601 1.908zm-6.956 2.896a57.127 57.127 0 00-4.383 2.516l-1.069-1.69a59.25 59.25 0 014.536-2.604l.916 1.778zm-8.563 5.385a83.235 83.235 0 00-3.989 3.15l-1.286-1.532a84.775 84.775 0 014.085-3.226l1.19 1.608zm-7.8 6.527a112.05 112.05 0 00-3.647 3.564l-1.429-1.4a114.38 114.38 0 013.712-3.627l1.364 1.463zm-7.143 7.285a138.542 138.542 0 00-3.351 3.852L177.5 36.9a139.19 139.19 0 013.399-3.908l1.484 1.34zm-6.567 7.825a150.216 150.216 0 00-3.078 4.075l-1.617-1.178a154.357 154.357 0 013.119-4.13l1.576 1.233zm-6.009 8.251a93.258 93.258 0 00-1.378 2.11l-.004.006-.001.001-.85-.526-.85-.526v-.002l.002-.002.004-.007.019-.03.07-.111c.061-.098.153-.241.272-.428.24-.372.595-.915 1.057-1.601l1.659 1.116z" fill="url(#paint3_linear)"/><path d="M187.378 98.8l-.061.497.061-.496zM242.589 81v-.5.5zm35.484 17.825a.5.5 0 01-.524.475l-4.494-.219a.5.5 0 11.048-.999l3.996.195.194-3.995a.5.5 0 01.999.048l-.219 4.495zm-.499-.024l-.371.335h-.001a.013.013 0 00-.005-.006l-.02-.022a9.707 9.707 0 00-.083-.09 50.32 50.32 0 00-1.627-1.641l.694-.72a51.113 51.113 0 011.663 1.678l.089.095c.01.011.017.02.023.025a.033.033 0 00.006.007l.001.002h.001l-.37.337zm-5.829-4.758a71.097 71.097 0 00-3.948-3.068l.585-.81a72.165 72.165 0 014.004 3.11l-.641.768zm-8.103-5.834a56.38 56.38 0 00-4.365-2.413l.443-.897a57.11 57.11 0 014.443 2.456l-.521.854zm-8.933-4.39a39.793 39.793 0 00-4.754-1.44l.227-.973c1.669.39 3.297.89 4.874 1.474l-.347.938zm-9.646-2.217a30.246 30.246 0 00-2.474-.102v-1c.858 0 1.71.036 2.556.106l-.082.996zm-2.474-.102c-.804 0-1.605.038-2.403.11l-.09-.997a27.847 27.847 0 012.493-.113v1zm-7.155.922a43.1 43.1 0 00-4.624 1.44l-.348-.938a44.196 44.196 0 014.732-1.473l.24.97zm-9.112 3.311c-1.464.67-2.926 1.39-4.388 2.138l-.455-.89a114.707 114.707 0 014.426-2.157l.417.91zm-8.725 4.408c-1.442.766-2.89 1.536-4.342 2.287l-.46-.888c1.447-.748 2.889-1.515 4.334-2.282l.468.883zm-8.748 4.477a74.438 74.438 0 01-4.526 1.968l-.366-.93a73.765 73.765 0 004.466-1.942l.426.904zm-9.212 3.56a36.48 36.48 0 01-4.858 1.031l-.137-.99a35.4 35.4 0 004.724-1.004l.271.963zm-9.829 1.309a27.274 27.274 0 01-2.491-.19l.122-.993a26.26 26.26 0 002.4.183l-.031 1zm-2.491-.19a41.904 41.904 0 01-2.612-.408l.185-.983c.847.16 1.699.294 2.549.398l-.122.993zm-7.737-1.644a71.56 71.56 0 01-4.993-1.66l.35-.936a70.224 70.224 0 004.922 1.636l-.279.96zm-9.857-3.657a64.558 64.558 0 01-2.214-1.046l-.122-.062-.032-.016-.008-.004-.002-.002h-.001l.23-.444.229-.444h.002l.007.004.029.015.117.059a63.882 63.882 0 002.175 1.028l-.41.912zm17.655 4.805l-.122.992.122-.992zM242.589 81v-1 1zm35.984 17.85a1 1 0 01-1.048.95l-8.989-.438a1 1 0 11.097-1.998l7.991.39.389-7.991a1 1 0 111.997.097l-.437 8.99zm-.999-.05l-.741.672h-.001l-.004-.005-.019-.02a51.75 51.75 0 00-1.689-1.71l1.388-1.44a53.069 53.069 0 011.682 1.697l.091.098a.753.753 0 00.03.033l.002.003h.001l-.74.673zm-6.149-4.373a71.102 71.102 0 00-3.92-3.046l1.17-1.622a72.542 72.542 0 014.031 3.132l-1.281 1.536zm-8.043-5.792a55.784 55.784 0 00-4.327-2.391l.887-1.793a57.88 57.88 0 014.482 2.477l-1.042 1.707zm-8.847-4.348a39.27 39.27 0 00-4.694-1.42l.455-1.948a41.09 41.09 0 014.933 1.493l-.694 1.875zm-9.513-2.186a29.71 29.71 0 00-2.433-.101v-2c.872 0 1.738.037 2.597.107l-.164 1.994zM242.589 82c-.789 0-1.575.037-2.359.107l-.179-1.992a28.333 28.333 0 012.538-.115v2zm-7.035.907c-1.527.377-3.049.86-4.571 1.424l-.694-1.876a44.645 44.645 0 014.785-1.49l.48 1.942zm-9.024 3.28c-1.455.667-2.91 1.384-4.369 2.13l-.91-1.781a115.517 115.517 0 014.446-2.167l.833 1.819zm-8.698 4.396c-1.442.765-2.893 1.537-4.347 2.29l-.919-1.777c1.443-.746 2.883-1.513 4.328-2.28l.938 1.767zm-8.769 4.487a75.18 75.18 0 01-4.557 1.982l-.732-1.862a73.052 73.052 0 004.436-1.928l.853 1.808zm-9.291 3.59a36.845 36.845 0 01-4.924 1.044l-.275-1.98a34.897 34.897 0 004.657-.99l.542 1.925zm-9.979 1.327a27.747 27.747 0 01-2.537-.194l.243-1.985c.79.097 1.574.156 2.355.18l-.061 1.999zm-2.537-.194a42.179 42.179 0 01-2.643-.412l.369-1.966c.838.157 1.68.29 2.517.393l-.243 1.985zm-7.815-1.66a71.671 71.671 0 01-5.028-1.67l.698-1.875a69.887 69.887 0 004.887 1.625l-.557 1.92zm-9.923-3.681a64.91 64.91 0 01-2.234-1.056l-.124-.063a1.456 1.456 0 00-.042-.021l-.002-.001h-.002l.46-.89.459-.888.001.001.007.003.027.015.114.057.451.223c.395.192.975.467 1.706.796l-.821 1.824z" fill="url(#paint4_linear)"/><path d="M212.81 188.688l.283-.412-.283.412zm65.117 15.958a.5.5 0 010 .708l-3.182 3.182a.5.5 0 01-.707-.708l2.829-2.828-2.829-2.828a.5.5 0 01.707-.708l3.182 3.182zm-.353.354v.5h-.042l-.12-.001-.466-.005c-.408-.006-1.009-.019-1.78-.043l.032-1c.765.025 1.36.037 1.763.043l.459.005.116.001h.038v.5zm-7.254.217c-1.445-.091-3.07-.212-4.841-.371l.09-.996c1.761.158 3.377.278 4.813.369l-.062.998zm-9.653-.866a179.35 179.35 0 01-4.803-.622l.142-.99c1.651.237 3.248.441 4.776.619l-.115.993zm-9.591-1.377a160.01 160.01 0 01-4.766-.896l.2-.98c1.603.327 3.185.623 4.736.89l-.17.986zm-9.494-1.943a129.71 129.71 0 01-4.694-1.215l.269-.963c1.555.434 3.111.835 4.658 1.205l-.233.973zm-9.34-2.616c-1.538-.5-3.067-1.035-4.579-1.609l.354-.935c1.496.567 3.011 1.098 4.534 1.593l-.309.951zm-9.074-3.453a75.857 75.857 0 01-4.38-2.112l.464-.886a74.53 74.53 0 004.322 2.084l-.406.914zm-8.604-4.527a58.026 58.026 0 01-2.037-1.334l.566-.825c.654.449 1.322.886 2.001 1.311l-.53.848zm-2.037-1.334a57.333 57.333 0 01-2.038-1.469l.602-.798c.672.506 1.34.987 2.002 1.442l-.566.825zm-5.938-4.626a103.267 103.267 0 01-3.705-3.368l.69-.724a101.09 101.09 0 003.669 3.335l-.654.757zm-7.258-6.888a166.712 166.712 0 01-3.431-3.639l.738-.675a164.831 164.831 0 003.41 3.617l-.717.697zm-6.759-7.37a234.32 234.32 0 01-3.237-3.805l.768-.64a233.142 233.142 0 003.224 3.789l-.755.656zm-6.398-7.675a298.26 298.26 0 01-3.092-3.925l.791-.612a289.716 289.716 0 003.081 3.911l-.78.626zm-6.119-7.896a354.058 354.058 0 01-2.969-4.015l.808-.589a352.173 352.173 0 002.961 4.004l-.8.6zm-5.884-8.073a365.397 365.397 0 01-2.849-4.081l.824-.567c.84 1.221 1.792 2.589 2.841 4.07l-.816.578zm-5.66-8.235c-.439-.66-.778-1.177-1.008-1.528l-.261-.402-.066-.103-.017-.026-.005-.007-.001-.001v-.001l.421-.27.421-.27.001.002.004.006.016.026.066.101.259.398c.228.35.565.864 1.002 1.522l-.832.553zm44.299 50.35l.566-.824-.566.824zm65.471 15.605a1 1 0 010 1.414l-6.364 6.364a.999.999 0 11-1.414-1.414L276.16 205l-5.657-5.657a.999.999 0 111.414-1.414l6.364 6.364zm-.707.707v1h-.044l-.121-.001-.47-.005c-.412-.006-1.015-.019-1.789-.044l.064-1.999a98.782 98.782 0 002.324.049h.036v1zm-7.286.716a183.667 183.667 0 01-4.853-.372l.179-1.992c1.756.158 3.367.277 4.8.368l-.126 1.996zm-9.679-.868a185.12 185.12 0 01-4.816-.624l.284-1.98c1.646.236 3.239.44 4.763.617l-.231 1.987zm-9.618-1.381c-1.565-.27-3.162-.569-4.781-.899l.4-1.96c1.598.326 3.175.621 4.721.888l-.34 1.971zm-9.526-1.95c-1.563-.374-3.137-.78-4.712-1.219l.538-1.927c1.549.433 3.099.832 4.64 1.201l-.466 1.945zm-9.378-2.627a102.415 102.415 0 01-4.602-1.616l.709-1.87a99.959 99.959 0 004.512 1.584l-.619 1.902zm-9.122-3.471a75.867 75.867 0 01-4.409-2.126l.928-1.772a73.838 73.838 0 004.292 2.07l-.811 1.828zm-8.666-4.56a59.06 59.06 0 01-2.055-1.346l1.132-1.649c.648.445 1.31.878 1.983 1.299l-1.06 1.696zm-2.055-1.346a59.011 59.011 0 01-2.055-1.481l1.202-1.598a57.08 57.08 0 001.985 1.43l-1.132 1.649zm-5.982-4.66a102.554 102.554 0 01-3.723-3.384l1.38-1.448a101.658 101.658 0 003.65 3.318l-1.307 1.514zm-7.289-6.917a167.602 167.602 0 01-3.442-3.65l1.476-1.351c1.125 1.23 2.26 2.435 3.399 3.606l-1.433 1.395zm-6.778-7.391a235.32 235.32 0 01-3.244-3.813l1.537-1.28a227.84 227.84 0 003.216 3.78l-1.509 1.313zm-6.411-7.691a284.878 284.878 0 01-3.097-3.931l1.581-1.224a303.739 303.739 0 003.076 3.905l-1.56 1.25zm-6.129-7.908a354.944 354.944 0 01-2.973-4.021l1.616-1.177a360.425 360.425 0 002.957 3.998l-1.6 1.2zm-5.892-8.084a366.29 366.29 0 01-2.853-4.087l1.648-1.133c.839 1.219 1.79 2.585 2.837 4.064l-1.632 1.156zm-5.669-8.247c-.439-.661-.779-1.179-1.01-1.532l-.262-.403-.067-.104-.017-.026-.004-.007-.001-.002-.001-.001.842-.54.841-.54h.001v.002a.015.015 0 01.004.006l.017.025.065.101.257.396c.228.348.564.861 1.001 1.518l-1.666 1.107z" fill="url(#paint5_linear)"/><defs><linearGradient id="paint0_linear" x1="1" y1="21.867" x2="90.473" y2="56.447" gradientUnits="userSpaceOnUse"><stop stop-color="#FC3698"/><stop offset=".826" stop-color="#FC3698" stop-opacity=".5"/><stop offset="1" stop-color="#FC3698" stop-opacity="0"/></linearGradient><linearGradient id="paint1_linear" x1="1" y1="125.33" x2="90.507" y2="95.679" gradientUnits="userSpaceOnUse"><stop stop-color="#FC3698"/><stop offset=".826" stop-color="#FC3698" stop-opacity=".5"/><stop offset="1" stop-color="#FC3698" stop-opacity="0"/></linearGradient><linearGradient id="paint2_linear" x1="1" y1="232.867" x2="90.438" y2="158.52" gradientUnits="userSpaceOnUse"><stop stop-color="#FC3698"/><stop offset=".826" stop-color="#FC3698" stop-opacity=".5"/><stop offset="1" stop-color="#FC3698" stop-opacity="0"/></linearGradient><linearGradient id="paint3_linear" x1="277.574" y1="6.983" x2="166.892" y2="50.256" gradientUnits="userSpaceOnUse"><stop stop-color="#FC3698"/><stop offset=".826" stop-color="#FC3698" stop-opacity=".5"/><stop offset="1" stop-color="#FC3698" stop-opacity="0"/></linearGradient><linearGradient id="paint4_linear" x1="277.91" y1="101.671" x2="174.877" y2="123.057" gradientUnits="userSpaceOnUse"><stop stop-color="#FC3698"/><stop offset=".826" stop-color="#FC3698" stop-opacity=".5"/><stop offset="1" stop-color="#FC3698" stop-opacity="0"/></linearGradient><linearGradient id="paint5_linear" x1="277.574" y1="205" x2="217.052" y2="105.81" gradientUnits="userSpaceOnUse"><stop stop-color="#FC3698"/><stop offset=".826" stop-color="#FC3698" stop-opacity=".5"/><stop offset="1" stop-color="#FC3698" stop-opacity="0"/></linearGradient></defs></svg>