<svg width="280" height="256" viewBox="0 0 280 256" fill="none" xmlns="http://www.w3.org/2000/svg">
<path d="M48.8634 28.7001L49.0567 28.239L48.8634 28.7001ZM0.606736 22.0316C0.436203 22.2488 0.474029 22.5631 0.691223 22.7337L4.2306 25.5127C4.4478 25.6832 4.76211 25.6454 4.93264 25.4282C5.10318 25.211 5.06535 24.8967 4.84816 24.7261L1.70204 22.2559L4.17226 19.1098C4.34279 18.8926 4.30496 18.5783 4.08777 18.4078C3.87057 18.2372 3.55626 18.2751 3.38573 18.4923L0.606736 22.0316ZM1 22.3404C1.05974 22.8368 1.05972 22.8368 1.05971 22.8368C1.05971 22.8368 1.0597 22.8368 1.0597 22.8368C1.0597 22.8368 1.05971 22.8368 1.05973 22.8368C1.05978 22.8368 1.05988 22.8368 1.06004 22.8368C1.06035 22.8368 1.06087 22.8367 1.0616 22.8366C1.06306 22.8364 1.06536 22.8362 1.0685 22.8358C1.07478 22.8351 1.08439 22.8339 1.0973 22.8325C1.12312 22.8295 1.16213 22.8251 1.21397 22.8194C1.31766 22.8081 1.47268 22.7918 1.67625 22.7721C2.08341 22.7325 2.68472 22.6791 3.45786 22.6241L3.38684 21.6266C2.60465 21.6823 1.99479 21.7364 1.5796 21.7767C1.372 21.7969 1.21306 21.8136 1.10558 21.8253C1.05183 21.8312 1.01095 21.8358 0.983285 21.839C0.96945 21.8406 0.958918 21.8418 0.951733 21.8426C0.94814 21.8431 0.945384 21.8434 0.943469 21.8436C0.942512 21.8437 0.941766 21.8438 0.94123 21.8439C0.940963 21.8439 0.940748 21.8439 0.940586 21.844C0.940505 21.844 0.940437 21.844 0.940382 21.844C0.940355 21.844 0.940324 21.844 0.94031 21.844C0.940283 21.844 0.940258 21.844 1 22.3404ZM8.29548 22.3996C9.74643 22.3651 11.3789 22.3539 13.1587 22.3848L13.176 21.3849C11.3815 21.3538 9.73528 21.365 8.27167 21.3999L8.29548 22.3996ZM18.006 22.5668C19.5526 22.6564 21.1694 22.7804 22.8406 22.9475L22.94 21.9524C21.2541 21.7839 19.6234 21.6588 18.0638 21.5685L18.006 22.5668ZM27.6615 23.5364C29.2269 23.7633 30.8236 24.0306 32.4406 24.3443L32.631 23.3626C30.9975 23.0457 29.3851 22.7758 27.805 22.5467L27.6615 23.5364ZM37.1743 25.3888C38.7251 25.7741 40.2843 26.2057 41.8427 26.6885L42.1387 25.7333C40.5611 25.2445 38.9835 24.8079 37.4154 24.4183L37.1743 25.3888ZM46.4223 28.2637C47.1743 28.5494 47.9239 28.8484 48.6701 29.1613L49.0567 28.239C48.2998 27.9217 47.5397 27.6185 46.7775 27.3289L46.4223 28.2637ZM48.6701 29.1613C49.4165 29.4741 50.1735 29.8086 50.9389 30.1624L51.3585 29.2547C50.583 28.8963 49.8151 28.5569 49.0567 28.239L48.6701 29.1613ZM55.3997 32.3836C56.8421 33.1491 58.298 33.9638 59.7543 34.8135L60.2582 33.9498C58.7918 33.0941 57.3241 32.2728 55.8684 31.5003L55.3997 32.3836ZM64.0254 37.3998C65.4415 38.2868 66.8451 39.1937 68.2237 40.1072L68.7761 39.2735C67.391 38.3559 65.9802 37.4442 64.5562 36.5523L64.0254 37.3998ZM72.3607 42.9145C73.7684 43.8916 75.1327 44.8601 76.4383 45.8034L77.0239 44.9928C75.7137 44.0462 74.3442 43.074 72.9309 42.093L72.3607 42.9145ZM80.4625 48.7646C81.9183 49.855 83.2553 50.8771 84.4432 51.7981L85.0559 51.0078C83.864 50.0837 82.5226 49.0582 81.062 47.9642L80.4625 48.7646ZM88.3736 54.9008C88.9901 55.397 89.4706 55.7889 89.7967 56.0566C89.9597 56.1904 90.0842 56.2931 90.1677 56.3623C90.2095 56.3969 90.2411 56.4231 90.2621 56.4406C90.2726 56.4494 90.2805 56.456 90.2858 56.4603C90.2884 56.4625 90.2903 56.4641 90.2916 56.4652C90.2923 56.4657 90.2927 56.4661 90.293 56.4664C90.2932 56.4665 90.2933 56.4666 90.2934 56.4667C90.2934 56.4667 90.2934 56.4667 90.2934 56.4667C90.2934 56.4667 90.2934 56.4667 90.2934 56.4667C90.2934 56.4667 90.2934 56.4667 90.6139 56.0829C90.9343 55.6991 90.9343 55.6991 90.9343 55.6991C90.9343 55.6991 90.9343 55.6991 90.9343 55.6991C90.9343 55.699 90.9342 55.699 90.9342 55.699C90.9341 55.6989 90.9339 55.6988 90.9337 55.6986C90.9334 55.6983 90.9328 55.6978 90.9321 55.6973C90.9307 55.6961 90.9286 55.6943 90.9259 55.6921C90.9204 55.6875 90.9122 55.6807 90.9015 55.6717C90.8799 55.6538 90.8478 55.6271 90.8055 55.5921C90.7208 55.522 90.5953 55.4184 90.4311 55.2836C90.1027 55.0141 89.6198 54.6202 89.0006 54.1218L88.3736 54.9008ZM48.8634 28.7001L49.25 27.7779L48.8634 28.7001ZM0.213471 21.7229C-0.127594 22.1572 -0.0519415 22.7859 0.382446 23.1269L7.4612 28.6849C7.89559 29.026 8.52422 28.9503 8.86529 28.5159C9.20635 28.0816 9.1307 27.4529 8.69631 27.1119L2.40408 22.1714L7.34451 15.8792C7.68558 15.4448 7.60992 14.8162 7.17554 14.4751C6.74115 14.1341 6.11252 14.2097 5.77145 14.6441L0.213471 21.7229ZM1 22.3404C1.11948 23.3332 1.11944 23.3333 1.11941 23.3333C1.1194 23.3333 1.11937 23.3333 1.11935 23.3333C1.11932 23.3333 1.11931 23.3333 1.1193 23.3333C1.1193 23.3333 1.11934 23.3333 1.11944 23.3333C1.11964 23.3332 1.12005 23.3332 1.12067 23.3331C1.1219 23.333 1.12398 23.3327 1.12689 23.3324C1.1327 23.3317 1.14186 23.3306 1.15431 23.3292C1.17921 23.3263 1.21727 23.322 1.26817 23.3165C1.36995 23.3054 1.52302 23.2893 1.72458 23.2697C2.12772 23.2306 2.72475 23.1775 3.49337 23.1228L3.35133 21.1279C2.56462 21.1839 1.95047 21.2384 1.53127 21.2791C1.32166 21.2994 1.16077 21.3163 1.05138 21.3283C0.996688 21.3342 0.95487 21.339 0.926277 21.3422C0.91198 21.3439 0.90099 21.3452 0.893348 21.3461C0.889528 21.3465 0.886544 21.3469 0.884404 21.3471C0.883334 21.3472 0.882474 21.3473 0.881826 21.3474C0.881502 21.3475 0.881231 21.3475 0.881013 21.3475C0.880903 21.3475 0.880808 21.3475 0.880725 21.3476C0.880684 21.3476 0.880631 21.3476 0.880611 21.3476C0.880562 21.3476 0.880517 21.3476 1 22.3404ZM8.30739 22.8995C9.75201 22.8651 11.3776 22.8539 13.15 22.8847L13.1847 20.885C11.3828 20.8537 9.7297 20.865 8.25976 20.9001L8.30739 22.8995ZM17.9771 23.066C19.5172 23.1552 21.127 23.2787 22.7908 23.445L22.9898 21.4549C21.2965 21.2856 19.6588 21.16 18.0927 21.0693L17.9771 23.066ZM27.5898 24.0312C29.1478 24.2571 30.7366 24.5231 32.3454 24.8352L32.7262 22.8718C31.0845 22.5533 29.4642 22.282 27.8767 22.0519L27.5898 24.0312ZM37.0537 25.8741C38.5959 26.2572 40.1459 26.6862 41.6948 27.1661L42.2866 25.2557C40.6994 24.7639 39.1127 24.3248 37.5359 23.9331L37.0537 25.8741ZM46.2447 28.7311C46.9915 29.0149 47.7359 29.3118 48.4768 29.6224L49.25 27.7779C48.4878 27.4584 47.7225 27.1531 46.9552 26.8615L46.2447 28.7311ZM48.4768 29.6224C49.2172 29.9328 49.9687 30.2648 50.7291 30.6163L51.5683 28.8009C50.7878 28.4401 50.0143 28.0983 49.25 27.7779L48.4768 29.6224ZM55.1653 32.8253C56.601 33.5872 58.051 34.3986 59.5023 35.2454L60.5102 33.5179C59.0387 32.6593 57.5651 31.8346 56.1028 31.0587L55.1653 32.8253ZM63.76 37.8235C65.1721 38.708 66.5721 39.6127 67.9476 40.524L69.0522 38.8567C67.6639 37.9369 66.2496 37.023 64.8216 36.1286L63.76 37.8235ZM72.0756 43.3252C73.4805 44.3004 74.8422 45.2671 76.1455 46.2087L77.3167 44.5875C76.0042 43.6392 74.6321 42.6652 73.216 41.6822L72.0756 43.3252ZM80.1628 49.1648C81.6161 50.2534 82.9509 51.2738 84.1369 52.1932L85.3623 50.6126C84.1684 49.687 82.8248 48.6598 81.3618 47.564L80.1628 49.1648ZM88.0601 55.2903C88.6753 55.7855 89.1545 56.1764 89.4795 56.4431C89.6419 56.5764 89.7658 56.6787 89.8488 56.7474C89.8903 56.7818 89.9216 56.8078 89.9424 56.8251C89.9528 56.8337 89.9606 56.8402 89.9657 56.8444C89.9682 56.8466 89.9701 56.8481 89.9713 56.8492C89.972 56.8497 89.9724 56.85 89.9727 56.8503C89.9728 56.8504 89.9729 56.8505 89.973 56.8505C89.973 56.8505 89.973 56.8505 89.973 56.8505C89.973 56.8505 89.973 56.8505 89.973 56.8505C89.973 56.8505 89.973 56.8505 90.6139 56.0829C91.2548 55.3153 91.2548 55.3153 91.2548 55.3153C91.2548 55.3153 91.2547 55.3152 91.2547 55.3152C91.2547 55.3152 91.2546 55.3152 91.2546 55.3151C91.2545 55.315 91.2543 55.3149 91.2541 55.3147C91.2537 55.3144 91.2531 55.3139 91.2524 55.3133C91.2509 55.3121 91.2488 55.3103 91.246 55.3079C91.2403 55.3032 91.2321 55.2963 91.2211 55.2873C91.1993 55.2691 91.167 55.2423 91.1244 55.207C91.0392 55.1365 90.9131 55.0323 90.7483 54.8971C90.4188 54.6266 89.9346 54.2317 89.3142 53.7323L88.0601 55.2903Z" fill="url(#paint0_linear)"/>
<path d="M44.3172 119.486L44.3172 118.986L44.3172 119.486ZM0.56973 125.075C0.429068 125.313 0.507677 125.62 0.745308 125.76L4.61773 128.053C4.85537 128.193 5.16203 128.115 5.3027 127.877C5.44336 127.639 5.36475 127.333 5.12712 127.192L1.68496 125.154L3.7225 121.712C3.86316 121.475 3.78455 121.168 3.54692 121.027C3.30929 120.887 3.00262 120.965 2.86196 121.203L0.56973 125.075ZM1 125.33C1.12415 125.814 1.12415 125.814 1.12414 125.814C1.12415 125.814 1.12415 125.814 1.12415 125.814C1.12417 125.814 1.1242 125.814 1.12424 125.814C1.12433 125.814 1.12448 125.814 1.12468 125.814C1.12509 125.814 1.12573 125.814 1.12661 125.814C1.12835 125.813 1.13102 125.813 1.13461 125.812C1.14179 125.81 1.15265 125.807 1.16713 125.803C1.19609 125.796 1.23955 125.785 1.29707 125.771C1.41213 125.742 1.58347 125.699 1.80775 125.645C2.25632 125.535 2.91659 125.377 3.76171 125.183L3.53781 124.209C2.68808 124.404 2.02347 124.563 1.57087 124.673C1.34456 124.728 1.17126 124.771 1.0543 124.801C0.995823 124.815 0.951433 124.826 0.921551 124.834C0.90661 124.838 0.895296 124.841 0.887662 124.843C0.883844 124.844 0.880947 124.844 0.878976 124.845C0.87799 124.845 0.877236 124.845 0.876715 124.845C0.876454 124.846 0.876251 124.846 0.876107 124.846C0.876034 124.846 0.875977 124.846 0.875934 124.846C0.875912 124.846 0.875891 124.846 0.87588 124.846C0.875862 124.846 0.875848 124.846 1 125.33ZM9.10712 124.029C10.7142 123.703 12.5176 123.354 14.4736 123.003L14.2971 122.019C12.3329 122.371 10.522 122.721 8.90806 123.049L9.10712 124.029ZM19.8684 122.101C21.6064 121.832 23.4166 121.572 25.2772 121.333L25.1496 120.341C23.2798 120.582 21.461 120.842 19.7153 121.113L19.8684 122.101ZM30.7022 120.714C32.4963 120.536 34.3153 120.384 36.1421 120.265L36.0774 119.267C34.2383 119.387 32.4079 119.54 30.6036 119.719L30.7022 120.714ZM41.5926 120.02C42.504 119.998 43.4129 119.986 44.3172 119.986L44.3172 118.986C43.4045 118.986 42.4876 118.998 41.5687 119.02L41.5926 120.02ZM44.3172 119.986C45.2031 119.986 46.0975 119.943 46.9979 119.861L46.9071 118.865C46.0349 118.945 45.1708 118.986 44.3172 118.986L44.3172 119.986ZM52.2806 118.972C53.9825 118.564 55.6908 118.045 57.39 117.441L57.0547 116.498C55.3846 117.093 53.7106 117.601 52.0475 117.999L52.2806 118.972ZM62.3287 115.443C63.9457 114.715 65.5414 113.926 67.1021 113.099L66.6336 112.215C65.0898 113.034 63.5133 113.813 61.9179 114.532L62.3287 115.443ZM71.725 110.484C73.2818 109.551 74.7846 108.597 76.2171 107.648L75.6649 106.814C74.2435 107.756 72.7534 108.701 71.2107 109.627L71.725 110.484ZM80.5804 104.63C82.14 103.506 83.5664 102.429 84.829 101.446L84.2146 100.657C82.9607 101.633 81.5442 102.703 79.9956 103.819L80.5804 104.63ZM88.953 98.1058C89.5934 97.5651 90.0918 97.1325 90.4306 96.8345C90.6 96.6855 90.7295 96.5702 90.8169 96.4919C90.8606 96.4528 90.8938 96.4229 90.9162 96.4027C90.9274 96.3926 90.9358 96.3849 90.9416 96.3796C90.9445 96.377 90.9467 96.375 90.9482 96.3737C90.9489 96.373 90.9495 96.3725 90.9499 96.3721C90.9501 96.3719 90.9503 96.3717 90.9504 96.3716C90.9505 96.3716 90.9505 96.3715 90.9505 96.3715C90.9506 96.3715 90.9506 96.3715 90.9506 96.3715C90.9506 96.3714 90.9506 96.3714 90.6139 96.0018C90.2772 95.6322 90.2772 95.6322 90.2772 95.6322C90.2772 95.6322 90.2772 95.6322 90.2772 95.6322C90.2772 95.6322 90.2771 95.6322 90.2771 95.6323C90.2771 95.6323 90.277 95.6324 90.2768 95.6325C90.2765 95.6328 90.2761 95.6332 90.2755 95.6338C90.2742 95.6349 90.2723 95.6367 90.2697 95.639C90.2644 95.6438 90.2564 95.651 90.2458 95.6607C90.2244 95.6799 90.1923 95.7089 90.1497 95.747C90.0645 95.8234 89.9372 95.9367 89.7702 96.0836C89.4361 96.3774 88.9428 96.8057 88.3079 97.3417L88.953 98.1058ZM44.3172 119.486L44.3172 118.486L44.3172 119.486ZM0.139461 124.821C-0.141864 125.296 0.0153531 125.909 0.490616 126.191L8.23547 130.775C8.71073 131.056 9.32407 130.899 9.60539 130.424C9.88672 129.949 9.7295 129.335 9.25424 129.054L2.36992 124.979L6.445 118.095C6.72632 117.619 6.5691 117.006 6.09384 116.725C5.61858 116.443 5.00524 116.601 4.72392 117.076L0.139461 124.821ZM1 125.33C1.2483 126.299 1.24829 126.299 1.24827 126.299C1.24827 126.299 1.24826 126.299 1.24826 126.299C1.24827 126.299 1.24828 126.299 1.24831 126.299C1.24837 126.299 1.24849 126.299 1.24867 126.299C1.24902 126.299 1.24961 126.298 1.25042 126.298C1.25206 126.298 1.25461 126.297 1.25809 126.296C1.26504 126.294 1.27567 126.292 1.28992 126.288C1.31842 126.281 1.36141 126.27 1.41846 126.256C1.53256 126.227 1.70293 126.185 1.92619 126.13C2.37274 126.022 3.03084 125.864 3.87366 125.671L3.42587 123.721C2.57383 123.917 1.90705 124.077 1.45243 124.187C1.22511 124.243 1.05082 124.286 0.932915 124.316C0.873962 124.33 0.829104 124.342 0.798761 124.349C0.78359 124.353 0.772047 124.356 0.764185 124.358C0.760254 124.359 0.757244 124.36 0.75516 124.36C0.754118 124.361 0.753308 124.361 0.75273 124.361C0.752442 124.361 0.752211 124.361 0.752038 124.361C0.751952 124.361 0.751881 124.361 0.751823 124.361C0.751795 124.361 0.751763 124.361 0.751749 124.361C0.751721 124.361 0.751696 124.361 1 125.33ZM9.20665 124.519C10.8104 124.194 12.61 123.845 14.5619 123.495L14.2088 121.527C12.2406 121.88 10.4258 122.231 8.80853 122.559L9.20665 124.519ZM19.945 122.595C21.679 122.326 23.485 122.068 25.3409 121.829L25.0858 119.845C23.2114 120.086 21.3883 120.348 19.6387 120.619L19.945 122.595ZM30.7515 121.211C32.5405 121.034 34.3539 120.882 36.1745 120.764L36.045 118.768C34.1998 118.888 32.3637 119.042 30.5543 119.221L30.7515 121.211ZM41.6045 120.519C42.5122 120.498 43.4171 120.486 44.3172 120.486L44.3172 118.486C43.4004 118.486 42.4795 118.498 41.5567 118.52L41.6045 120.519ZM44.3172 120.486C45.2193 120.486 46.1289 120.443 47.0433 120.359L46.8617 118.368C46.0036 118.446 45.1547 118.486 44.3172 118.486L44.3172 120.486ZM52.3972 119.458C54.1185 119.045 55.844 118.522 57.5577 117.912L56.8871 116.027C55.2315 116.617 53.5746 117.119 51.9309 117.513L52.3972 119.458ZM62.534 115.899C64.1619 115.166 65.7673 114.373 67.3363 113.54L66.3994 111.774C64.8639 112.588 63.2971 113.362 61.7126 114.076L62.534 115.899ZM71.9822 110.913C73.546 109.975 75.0551 109.018 76.4932 108.065L75.3888 106.398C73.973 107.335 72.4892 108.277 70.9535 109.198L71.9822 110.913ZM80.8727 105.036C82.4379 103.908 83.8692 102.827 85.1362 101.84L83.9073 100.262C82.6578 101.235 81.2463 102.301 79.7032 103.413L80.8727 105.036ZM89.2756 98.4878C89.9187 97.9449 90.4196 97.51 90.7608 97.21C90.9313 97.06 91.062 96.9436 91.1505 96.8644C91.1947 96.8247 91.2284 96.7944 91.2514 96.7737C91.2628 96.7633 91.2716 96.7554 91.2776 96.7499C91.2806 96.7472 91.2829 96.7451 91.2845 96.7436C91.2853 96.7429 91.286 96.7423 91.2865 96.7419C91.2867 96.7416 91.2869 96.7415 91.287 96.7413C91.2871 96.7413 91.2872 96.7412 91.2872 96.7412C91.2873 96.7411 91.2873 96.7411 91.2873 96.7411C91.2873 96.7411 91.2874 96.741 90.6139 96.0018C89.9404 95.2626 89.9404 95.2626 89.9405 95.2626C89.9405 95.2626 89.9405 95.2626 89.9405 95.2626C89.9405 95.2626 89.9405 95.2626 89.9405 95.2626C89.9405 95.2626 89.9404 95.2626 89.9403 95.2627C89.9401 95.2629 89.9397 95.2633 89.9391 95.2638C89.938 95.2648 89.9362 95.2665 89.9337 95.2687C89.9287 95.2733 89.921 95.2802 89.9106 95.2896C89.8898 95.3084 89.8582 95.3369 89.8161 95.3746C89.732 95.4499 89.6059 95.5622 89.44 95.7081C89.1082 95.9999 88.6174 96.426 87.9854 96.9596L89.2756 98.4878Z" fill="url(#paint1_linear)"/>
<path d="M56.8209 214.315L56.4917 213.939L56.8209 214.315ZM0.662303 232.475C0.45866 232.661 0.444766 232.978 0.631271 233.181L3.67054 236.5C3.85705 236.703 4.17332 236.717 4.37697 236.531C4.58061 236.344 4.5945 236.028 4.408 235.824L1.70643 232.874L4.65626 230.173C4.8599 229.986 4.87379 229.67 4.68729 229.466C4.50078 229.263 4.1845 229.249 3.98086 229.435L0.662303 232.475ZM1 232.843C0.978057 233.343 0.978086 233.343 0.978118 233.343C0.978134 233.343 0.978169 233.343 0.9782 233.343C0.978261 233.343 0.978336 233.343 0.978425 233.343C0.978602 233.343 0.978833 233.343 0.979119 233.343C0.979691 233.343 0.980481 233.343 0.981487 233.343C0.9835 233.343 0.98638 233.343 0.990122 233.343C0.997606 233.344 1.00854 233.344 1.02287 233.345C1.05153 233.346 1.09378 233.347 1.14927 233.349C1.26023 233.352 1.4241 233.357 1.63785 233.36C2.06536 233.367 2.69249 233.371 3.49519 233.359L3.48046 232.359C2.68868 232.371 2.0719 232.367 1.65411 232.36C1.44523 232.357 1.2861 232.353 1.17973 232.349C1.12655 232.348 1.08656 232.346 1.06013 232.345C1.04692 232.345 1.0371 232.345 1.03072 232.344C1.02753 232.344 1.0252 232.344 1.02374 232.344C1.023 232.344 1.02249 232.344 1.02219 232.344C1.02204 232.344 1.02194 232.344 1.0219 232.344C1.02188 232.344 1.02187 232.344 1.02188 232.344C1.02189 232.344 1.0219 232.344 1.0219 232.344C1.02192 232.344 1.02194 232.344 1 232.843ZM8.52385 233.134C10.0222 233.026 11.7041 232.87 13.5326 232.646L13.4111 231.654C11.6003 231.875 9.93494 232.03 8.45187 232.137L8.52385 233.134ZM18.5184 231.912C20.0986 231.639 21.7472 231.317 23.4472 230.935L23.228 229.959C21.5454 230.337 19.9133 230.657 18.3485 230.926L18.5184 231.912ZM28.3273 229.704C29.9057 229.261 31.5122 228.765 33.135 228.209L32.811 227.263C31.2069 227.812 29.6183 228.303 28.0569 228.741L28.3273 229.704ZM37.8487 226.436C39.3793 225.807 40.9143 225.12 42.4441 224.372L42.0047 223.474C40.4953 224.212 38.98 224.89 37.4684 225.511L37.8487 226.436ZM46.8927 222.003C48.3316 221.171 49.7574 220.278 51.1618 219.32L50.5981 218.494C49.2151 219.437 47.8103 220.317 46.392 221.138L46.8927 222.003ZM55.2155 216.315C55.8675 215.79 56.5126 215.249 57.15 214.692L56.4917 213.939C55.8648 214.487 55.2301 215.019 54.5885 215.536L55.2155 216.315ZM57.15 214.692C57.7226 214.191 58.2977 213.653 58.8745 213.082L58.1707 212.371C57.6071 212.93 57.0471 213.453 56.4917 213.939L57.15 214.692ZM62.0645 209.614C63.0428 208.462 64.0222 207.231 64.9979 205.938L64.1996 205.336C63.2338 206.616 62.2664 207.831 61.3022 208.967L62.0645 209.614ZM67.7446 202.128C68.619 200.862 69.4871 199.558 70.3454 198.227L69.505 197.685C68.6518 199.008 67.7896 200.303 66.9219 201.559L67.7446 202.128ZM72.8317 194.256C73.6428 192.924 74.4415 191.577 75.2245 190.228L74.3595 189.726C73.5797 191.07 72.7847 192.41 71.9776 193.736L72.8317 194.256ZM77.5352 186.157C78.3036 184.775 79.0521 183.4 79.777 182.046L78.8954 181.574C78.1727 182.924 77.4268 184.294 76.6612 185.671L77.5352 186.157ZM81.9574 177.9C82.6995 176.465 83.4086 175.068 84.0799 173.727L83.1856 173.28C82.5162 174.617 81.8091 176.01 81.069 177.441L81.9574 177.9ZM86.1471 169.531C86.8935 167.992 87.5693 166.572 88.1644 165.305L87.2592 164.879C86.6658 166.143 85.9918 167.559 85.2473 169.095L86.1471 169.531ZM90.1269 161.051C90.4331 160.374 90.6693 159.844 90.829 159.484C90.9088 159.304 90.9696 159.166 91.0104 159.073C91.0308 159.026 91.0463 158.991 91.0566 158.967C91.0618 158.955 91.0657 158.946 91.0684 158.94C91.0697 158.937 91.0707 158.935 91.0714 158.933C91.0717 158.933 91.0719 158.932 91.0721 158.932C91.0722 158.931 91.0723 158.931 91.0723 158.931C91.0723 158.931 91.0724 158.931 91.0724 158.931C91.0724 158.931 91.0724 158.931 91.0724 158.931C91.0724 158.931 91.0724 158.931 90.6139 158.732C90.1554 158.532 90.1554 158.532 90.1554 158.532C90.1554 158.532 90.1554 158.532 90.1554 158.532C90.1554 158.532 90.1554 158.532 90.1553 158.532C90.1553 158.532 90.1553 158.532 90.1552 158.533C90.155 158.533 90.1548 158.533 90.1545 158.534C90.1539 158.536 90.1529 158.538 90.1517 158.541C90.1492 158.546 90.1454 158.555 90.1403 158.567C90.1301 158.59 90.1149 158.625 90.0947 158.671C90.0544 158.763 89.9941 158.9 89.9147 159.079C89.756 159.437 89.5209 159.964 89.2158 160.638L90.1269 161.051ZM56.8209 214.315L56.1626 213.563L56.8209 214.315ZM0.324606 232.106C-0.0826801 232.479 -0.110467 233.112 0.262543 233.519L6.34108 240.156C6.71409 240.563 7.34665 240.591 7.75394 240.218C8.16122 239.845 8.18901 239.212 7.816 238.805L2.41285 232.906L8.31251 227.502C8.7198 227.129 8.74758 226.497 8.37457 226.09C8.00156 225.682 7.36901 225.654 6.96172 226.027L0.324606 232.106ZM1 232.843C0.956114 233.842 0.956169 233.842 0.956226 233.842C0.95625 233.842 0.956311 233.842 0.956359 233.842C0.956454 233.843 0.956563 233.843 0.956686 233.843C0.956931 233.843 0.957231 233.843 0.957585 233.843C0.958293 233.843 0.959219 233.843 0.960363 233.843C0.962649 233.843 0.965804 233.843 0.969822 233.843C0.977857 233.843 0.989342 233.844 1.00423 233.844C1.03401 233.846 1.0774 233.847 1.13404 233.849C1.2473 233.852 1.41353 233.856 1.62972 233.86C2.06209 233.867 2.69439 233.871 3.50256 233.859L3.47309 231.859C2.68678 231.871 2.07517 231.867 1.66225 231.86C1.45579 231.857 1.29903 231.853 1.19496 231.85C1.14293 231.848 1.10407 231.847 1.07877 231.846C1.06612 231.845 1.05685 231.845 1.05102 231.845C1.04811 231.845 1.04605 231.845 1.04486 231.844C1.04426 231.844 1.04388 231.844 1.04372 231.844C1.04364 231.844 1.04361 231.844 1.04364 231.844C1.04365 231.844 1.04368 231.844 1.04372 231.844C1.04374 231.844 1.04378 231.844 1.04379 231.844C1.04384 231.844 1.04389 231.844 1 232.843ZM8.55984 233.633C10.0658 233.524 11.756 233.367 13.5934 233.143L13.3504 231.157C11.5484 231.378 9.89132 231.532 8.41588 231.638L8.55984 233.633ZM18.6034 232.405C20.1913 232.131 21.8481 231.807 23.5567 231.423L23.1185 229.471C21.4445 229.847 19.8206 230.165 18.2635 230.434L18.6034 232.405ZM28.4624 230.185C30.0493 229.74 31.6648 229.241 33.297 228.682L32.649 226.79C31.0543 227.336 29.4747 227.824 27.9218 228.26L28.4624 230.185ZM38.0389 226.899C39.5789 226.265 41.1238 225.575 42.6638 224.821L41.7851 223.025C40.2858 223.758 38.7804 224.431 37.2782 225.049L38.0389 226.899ZM47.1431 222.436C48.5922 221.598 50.0286 220.698 51.4436 219.733L50.3163 218.081C48.9439 219.017 47.5497 219.89 46.1416 220.705L47.1431 222.436ZM55.529 216.704C56.1862 216.175 56.8366 215.63 57.4792 215.068L56.1626 213.563C55.5408 214.106 54.9114 214.634 54.275 215.146L55.529 216.704ZM57.4792 215.068C58.0603 214.56 58.6431 214.015 59.2264 213.437L57.8188 212.016C57.2617 212.568 56.7093 213.085 56.1626 213.563L57.4792 215.068ZM62.4457 209.938C63.431 208.777 64.4164 207.539 65.397 206.239L63.8005 205.035C62.8396 206.308 61.8781 207.516 60.921 208.644L62.4457 209.938ZM68.1559 202.412C69.0337 201.142 69.9048 199.833 70.7656 198.498L69.0847 197.414C68.2342 198.733 67.375 200.024 66.5106 201.275L68.1559 202.412ZM73.2587 194.516C74.0718 193.181 74.8723 191.831 75.657 190.478L73.9269 189.475C73.1488 190.816 72.3556 192.154 71.5505 193.476L73.2587 194.516ZM77.9722 186.4C78.742 185.015 79.4917 183.639 80.2178 182.282L78.4546 181.338C77.7331 182.686 76.9884 184.053 76.2242 185.428L77.9722 186.4ZM82.4015 178.13C83.1448 176.692 83.8549 175.294 84.527 173.951L82.7385 173.056C82.07 174.392 81.3638 175.782 80.6249 177.212L82.4015 178.13ZM86.597 169.749C87.3444 168.208 88.0211 166.786 88.617 165.517L86.8067 164.667C86.2141 165.929 85.5409 167.343 84.7974 168.876L86.597 169.749ZM90.5825 161.257C90.8892 160.579 91.1259 160.048 91.2861 159.686C91.3662 159.506 91.4272 159.367 91.4683 159.274C91.4888 159.227 91.5043 159.191 91.5148 159.167C91.5201 159.155 91.524 159.146 91.5267 159.14C91.528 159.137 91.5291 159.135 91.5298 159.133C91.5301 159.132 91.5304 159.132 91.5306 159.131C91.5307 159.131 91.5307 159.131 91.5308 159.131C91.5308 159.131 91.5308 159.131 91.5309 159.131C91.5309 159.13 91.5309 159.13 91.5309 159.13C91.5309 159.13 91.5309 159.13 90.6139 158.732C89.6969 158.333 89.6969 158.333 89.6969 158.333C89.6969 158.333 89.6969 158.333 89.6969 158.333C89.6969 158.333 89.6969 158.333 89.6969 158.333C89.6968 158.333 89.6968 158.333 89.6967 158.333C89.6966 158.333 89.6964 158.334 89.6961 158.335C89.6955 158.336 89.6946 158.338 89.6933 158.341C89.6909 158.346 89.6871 158.355 89.6821 158.367C89.6721 158.39 89.657 158.424 89.6369 158.47C89.5967 158.561 89.5367 158.698 89.4576 158.876C89.2993 159.233 89.0648 159.759 88.7602 160.432L90.5825 161.257Z" fill="url(#paint2_linear)"/>
<path d="M212.544 11.2863L212.694 11.7632L212.544 11.2863ZM277.969 8.33146C278.138 8.54951 278.099 8.86363 277.881 9.03307L274.327 11.7942C274.109 11.9637 273.795 11.9243 273.626 11.7062C273.456 11.4882 273.496 11.1741 273.714 11.0046L276.872 8.55024L274.418 5.39175C274.248 5.1737 274.288 4.85958 274.506 4.69014C274.724 4.5207 275.038 4.56011 275.207 4.77816L277.969 8.33146ZM277.574 8.63826C277.511 9.13437 277.512 9.13437 277.512 9.13437C277.511 9.13437 277.511 9.13437 277.511 9.13437C277.511 9.13437 277.511 9.13436 277.511 9.13436C277.511 9.13435 277.511 9.13433 277.511 9.13431C277.511 9.13427 277.51 9.1342 277.509 9.1341C277.508 9.13392 277.506 9.13363 277.502 9.13325C277.496 9.13248 277.487 9.13132 277.474 9.12979C277.45 9.12672 277.412 9.12214 277.362 9.11615C277.263 9.10418 277.115 9.08658 276.921 9.06416C276.532 9.01931 275.959 8.95517 275.221 8.87819L275.325 7.88359C276.067 7.96097 276.644 8.02551 277.036 8.07076C277.232 8.09338 277.381 8.11118 277.482 8.12334C277.533 8.12943 277.571 8.1341 277.597 8.13727C277.609 8.13885 277.619 8.14006 277.626 8.14088C277.629 8.14129 277.632 8.1416 277.633 8.14181C277.634 8.14191 277.635 8.142 277.635 8.14205C277.635 8.14208 277.636 8.1421 277.636 8.14212C277.636 8.14212 277.636 8.14213 277.636 8.14214C277.636 8.14214 277.636 8.14214 277.636 8.14214C277.636 8.14214 277.636 8.14214 277.574 8.63826ZM270.562 8.44165C269.175 8.32508 267.613 8.20504 265.908 8.09134L265.974 7.09356C267.686 7.20767 269.253 7.32814 270.646 7.44517L270.562 8.44165ZM261.238 7.81969C259.748 7.74576 258.189 7.6806 256.574 7.62872L256.606 6.62924C258.227 6.68132 259.792 6.74672 261.287 6.82092L261.238 7.81969ZM251.908 7.52169C250.384 7.50106 248.826 7.4944 247.244 7.50491L247.238 6.50494C248.826 6.49438 250.391 6.50107 251.922 6.52178L251.908 7.52169ZM242.578 7.58709C241.034 7.63188 239.476 7.69517 237.916 7.77975L237.862 6.78122C239.431 6.69616 240.997 6.63253 242.549 6.58751L242.578 7.58709ZM233.264 8.09751C231.709 8.22677 230.16 8.37994 228.625 8.55976L228.508 7.56655C230.055 7.38533 231.616 7.23107 233.181 7.10095L233.264 8.09751ZM224.009 9.19165C222.455 9.43724 220.927 9.71447 219.433 10.0264L219.229 9.04747C220.74 8.73194 222.285 8.45182 223.853 8.20391L224.009 9.19165ZM214.919 11.1094C214.164 11.3164 213.422 11.5342 212.694 11.7632L212.394 10.8093C213.134 10.5764 213.888 10.3551 214.654 10.145L214.919 11.1094ZM212.694 11.7632C211.891 12.016 211.092 12.2964 210.298 12.6023L209.938 11.6691C210.751 11.356 211.57 11.0687 212.394 10.8093L212.694 11.7632ZM205.66 14.6915C204.163 15.4622 202.687 16.3131 201.239 17.2291L200.704 16.3839C202.176 15.4535 203.676 14.5878 205.202 13.8024L205.66 14.6915ZM197.028 20.1188C195.659 21.1316 194.32 22.1928 193.016 23.2878L192.373 22.5218C193.692 21.4148 195.047 20.3409 196.434 19.3149L197.028 20.1188ZM189.185 26.6821C187.922 27.8606 186.699 29.0591 185.521 30.262L184.807 29.5624C185.994 28.3496 187.228 27.1404 188.503 25.9508L189.185 26.6821ZM182.012 33.9975C180.829 35.3077 179.706 36.6034 178.649 37.8638L177.883 37.2212C178.947 35.9522 180.078 34.6473 181.27 33.3273L182.012 33.9975ZM175.422 41.8497C174.271 43.3208 173.238 44.698 172.334 45.9386L171.525 45.3494C172.436 44.1006 173.476 42.7144 174.634 41.2337L175.422 41.8497ZM169.392 50.13C168.936 50.8076 168.587 51.3421 168.353 51.7066C168.235 51.8888 168.146 52.0286 168.087 52.1225C168.057 52.1694 168.035 52.2049 168.02 52.2285C168.013 52.2403 168.008 52.2491 168.004 52.2549C168.002 52.2578 168.001 52.26 168 52.2614C168 52.2621 167.999 52.2626 167.999 52.2629C167.999 52.263 167.999 52.2631 167.999 52.2632C167.999 52.2632 167.999 52.2632 167.999 52.2632C167.999 52.2632 167.999 52.2632 167.999 52.2632C167.999 52.2632 167.999 52.2632 167.574 52C167.149 51.7368 167.149 51.7368 167.149 51.7367C167.149 51.7367 167.149 51.7367 167.149 51.7367C167.149 51.7366 167.149 51.7366 167.149 51.7365C167.149 51.7364 167.149 51.7362 167.149 51.736C167.149 51.7355 167.15 51.7349 167.15 51.734C167.151 51.7323 167.153 51.7299 167.155 51.7267C167.159 51.7203 167.165 51.7109 167.173 51.6985C167.188 51.6736 167.211 51.6369 167.241 51.5887C167.302 51.4923 167.393 51.35 167.512 51.1651C167.75 50.7953 168.103 50.2553 168.563 49.5718L169.392 50.13ZM212.544 11.2863L212.845 12.2401L212.544 11.2863ZM278.363 8.02466C278.702 8.46076 278.623 9.089 278.187 9.42788L271.081 14.9502C270.645 15.2891 270.016 15.2103 269.678 14.7742C269.339 14.3381 269.417 13.7098 269.854 13.371L276.171 8.46223L271.262 2.14524C270.923 1.70915 271.002 1.08091 271.438 0.742028C271.874 0.403151 272.502 0.481962 272.841 0.918058L278.363 8.02466ZM277.574 8.63826C277.449 9.63048 277.449 9.63048 277.449 9.63048C277.449 9.63048 277.449 9.63048 277.449 9.63048C277.449 9.63048 277.449 9.63048 277.449 9.63048C277.449 9.63047 277.449 9.63046 277.449 9.63044C277.449 9.6304 277.448 9.63034 277.447 9.63025C277.446 9.63008 277.444 9.6298 277.441 9.62943C277.435 9.62869 277.426 9.62755 277.413 9.62604C277.389 9.62302 277.352 9.61849 277.303 9.61256C277.204 9.60069 277.057 9.58318 276.864 9.56086C276.477 9.51621 275.905 9.45227 275.17 9.37549L275.377 7.38629C276.121 7.46387 276.699 7.52861 277.093 7.57406C277.29 7.59678 277.44 7.61467 277.542 7.62694C277.593 7.63307 277.632 7.6378 277.658 7.64101C277.671 7.64262 277.681 7.64385 277.687 7.64469C277.691 7.64511 277.693 7.64544 277.695 7.64566C277.696 7.64577 277.697 7.64586 277.697 7.64592C277.698 7.64595 277.698 7.64598 277.698 7.646C277.698 7.64601 277.698 7.64601 277.698 7.64602C277.698 7.64602 277.698 7.64603 277.698 7.64603C277.698 7.64603 277.698 7.64603 277.574 8.63826ZM270.52 8.9399C269.136 8.82354 267.577 8.70373 265.874 8.59023L266.007 6.59466C267.722 6.70898 269.292 6.82967 270.688 6.94692L270.52 8.9399ZM261.213 8.31908C259.726 8.24528 258.17 8.18024 256.558 8.12847L256.622 6.1295C258.246 6.18167 259.814 6.2472 261.312 6.32154L261.213 8.31908ZM251.902 8.02164C250.38 8.00106 248.826 7.99441 247.248 8.0049L247.234 6.00495C248.827 5.99436 250.395 6.00107 251.929 6.02183L251.902 8.02164ZM242.593 8.08688C241.052 8.13156 239.499 8.19468 237.943 8.27902L237.835 6.28195C239.409 6.19665 240.978 6.13285 242.535 6.08772L242.593 8.08688ZM233.305 8.59579C231.756 8.72462 230.212 8.87725 228.683 9.05636L228.45 7.06995C230.003 6.88802 231.569 6.73321 233.139 6.60267L233.305 8.59579ZM224.087 9.68551C222.541 9.92996 221.02 10.2057 219.535 10.5158L219.127 8.55803C220.646 8.24067 222.199 7.95911 223.775 7.71004L224.087 9.68551ZM215.051 11.5916C214.302 11.7971 213.566 12.0131 212.845 12.2401L212.244 10.3324C212.99 10.0975 213.75 9.87449 214.522 9.66282L215.051 11.5916ZM212.845 12.2401C212.052 12.4897 211.262 12.7666 210.477 13.0689L209.759 11.2025C210.581 10.8858 211.41 10.595 212.244 10.3324L212.845 12.2401ZM205.889 15.136C204.406 15.8994 202.943 16.7428 201.506 17.6517L200.437 15.9613C201.92 15.0238 203.433 14.1505 204.973 13.3578L205.889 15.136ZM197.326 20.5208C195.966 21.527 194.635 22.5817 193.337 23.6708L192.051 22.1389C193.377 21.0258 194.74 19.9455 196.136 18.9129L197.326 20.5208ZM189.526 27.0478C188.269 28.2206 187.051 29.4138 185.879 30.6117L184.45 29.2127C185.642 27.9948 186.881 26.7803 188.162 25.5852L189.526 27.0478ZM182.383 34.3325C181.204 35.6379 180.085 36.929 179.032 38.1851L177.5 36.8999C178.567 35.6266 179.702 34.3171 180.899 32.9922L182.383 34.3325ZM175.816 42.1577C174.669 43.624 173.639 44.9967 172.738 46.2331L171.121 45.0549C172.035 43.8019 173.078 42.4113 174.24 40.9257L175.816 42.1577ZM169.807 50.4091C169.353 51.0838 169.006 51.6154 168.773 51.9773C168.656 52.1582 168.568 52.2967 168.51 52.3894C168.481 52.4357 168.459 52.4705 168.444 52.4935C168.437 52.505 168.432 52.5136 168.429 52.5191C168.427 52.5218 168.426 52.5238 168.425 52.525C168.424 52.5257 168.424 52.5261 168.424 52.5263C168.424 52.5264 168.424 52.5265 168.424 52.5265C168.424 52.5265 168.424 52.5265 168.424 52.5265C168.424 52.5265 168.424 52.5265 168.424 52.5265C168.424 52.5265 168.424 52.5265 167.574 52C166.724 51.4735 166.724 51.4735 166.724 51.4735C166.724 51.4735 166.724 51.4734 166.724 51.4734C166.724 51.4733 166.724 51.4733 166.724 51.4732C166.724 51.473 166.724 51.4728 166.724 51.4725C166.724 51.472 166.725 51.4713 166.726 51.4704C166.727 51.4685 166.728 51.4659 166.73 51.4626C166.735 51.4559 166.741 51.4461 166.749 51.4334C166.764 51.408 166.788 51.3707 166.819 51.3218C166.88 51.2242 166.972 51.0806 167.091 50.8944C167.331 50.522 167.686 49.9791 168.148 49.2927L169.807 50.4091Z" fill="url(#paint3_linear)"/>
<path d="M187.378 98.8006L187.317 99.2969L187.378 98.8006ZM242.589 81V80.5V81ZM278.073 98.8249C278.06 99.1007 277.825 99.3134 277.549 99.3L273.055 99.081C272.779 99.0676 272.566 98.8331 272.58 98.5573C272.593 98.2815 272.828 98.0688 273.103 98.0822L277.099 98.2768L277.293 94.2816C277.307 94.0058 277.541 93.7931 277.817 93.8065C278.093 93.8199 278.306 94.0544 278.292 94.3302L278.073 98.8249ZM277.574 98.8006C277.203 99.1365 277.203 99.1365 277.203 99.1365C277.203 99.1365 277.203 99.1366 277.203 99.1366C277.203 99.1366 277.203 99.1366 277.203 99.1365C277.203 99.1365 277.203 99.1364 277.203 99.1363C277.203 99.1361 277.203 99.1357 277.202 99.1352C277.201 99.1341 277.2 99.1323 277.197 99.1299C277.193 99.1251 277.186 99.1176 277.177 99.1076C277.159 99.0877 277.131 99.0576 277.094 99.0179C277.019 98.9385 276.908 98.8205 276.761 98.6683C276.468 98.3638 276.032 97.9221 275.467 97.3767L276.161 96.6572C276.736 97.2115 277.18 97.6617 277.481 97.974C277.632 98.1302 277.747 98.252 277.824 98.3352C277.863 98.3768 277.893 98.4087 277.913 98.4304C277.923 98.4413 277.93 98.4496 277.936 98.4554C277.938 98.4582 277.94 98.4604 277.942 98.462C277.942 98.4628 277.943 98.4634 277.943 98.4638C277.944 98.464 277.944 98.4642 277.944 98.4644C277.944 98.4644 277.944 98.4645 277.944 98.4645C277.944 98.4646 277.944 98.4646 277.944 98.4646C277.944 98.4646 277.944 98.4646 277.574 98.8006ZM271.745 94.0429C270.583 93.0733 269.26 92.0305 267.797 90.9752L268.382 90.1643C269.866 91.2348 271.208 92.2922 272.386 93.2751L271.745 94.0429ZM263.642 88.2086C262.261 87.3656 260.802 86.5503 259.277 85.7958L259.72 84.8995C261.275 85.6684 262.76 86.4983 264.163 87.3551L263.642 88.2086ZM254.709 83.8182C253.167 83.2476 251.579 82.759 249.955 82.3797L250.182 81.4059C251.851 81.7956 253.479 82.2967 255.056 82.8804L254.709 83.8182ZM245.063 81.6023C244.244 81.5351 243.419 81.5 242.589 81.5V80.5C243.447 80.5 244.299 80.5363 245.145 80.6057L245.063 81.6023ZM242.589 81.5C241.785 81.5 240.984 81.5376 240.186 81.6093L240.096 80.6133C240.923 80.539 241.754 80.5 242.589 80.5V81.5ZM235.434 82.4217C233.886 82.8043 232.346 83.2929 230.81 83.8619L230.462 82.9242C232.028 82.3444 233.604 81.844 235.194 81.4509L235.434 82.4217ZM226.322 85.7331C224.858 86.4035 223.396 87.1237 221.934 87.8713L221.479 86.9808C222.95 86.2291 224.424 85.5021 225.905 84.8239L226.322 85.7331ZM217.597 90.1415C216.155 90.907 214.707 91.6774 213.255 92.4285L212.795 91.5403C214.242 90.7922 215.684 90.0247 217.129 89.2582L217.597 90.1415ZM208.849 94.6183C207.351 95.3248 205.843 95.989 204.323 96.5861L203.957 95.6554C205.452 95.0681 206.939 94.4132 208.423 93.7138L208.849 94.6183ZM199.637 98.1779C198.035 98.6289 196.417 98.9819 194.779 99.2093L194.642 98.2188C196.228 97.9985 197.802 97.6557 199.366 97.2153L199.637 98.1779ZM189.808 99.4869C188.983 99.4617 188.152 99.3994 187.317 99.2969L187.439 98.3043C188.243 98.403 189.043 98.4631 189.839 98.4874L189.808 99.4869ZM187.317 99.2969C186.445 99.1898 185.572 99.0518 184.705 98.8892L184.89 97.9064C185.737 98.0654 186.589 98.2001 187.439 98.3043L187.317 99.2969ZM179.58 97.6533C177.797 97.1354 176.108 96.5602 174.587 95.9936L174.937 95.0565C176.438 95.616 178.103 96.1831 179.859 96.6929L179.58 97.6533ZM169.723 93.996C168.977 93.6603 168.384 93.3786 167.977 93.1805C167.773 93.0814 167.616 93.0032 167.509 92.9495C167.455 92.9227 167.415 92.902 167.387 92.8879C167.373 92.8809 167.363 92.8755 167.355 92.8718C167.352 92.87 167.349 92.8686 167.347 92.8676C167.346 92.8671 167.346 92.8667 167.345 92.8664C167.345 92.8663 167.345 92.8662 167.344 92.8661C167.344 92.8661 167.344 92.866 167.344 92.866C167.344 92.866 167.344 92.866 167.344 92.866C167.344 92.866 167.344 92.8659 167.574 92.4218C167.803 91.9777 167.803 91.9777 167.803 91.9777L167.803 91.9777C167.803 91.9777 167.803 91.9777 167.803 91.9777C167.803 91.9777 167.804 91.9778 167.804 91.9779C167.804 91.978 167.805 91.9783 167.805 91.9787C167.807 91.9795 167.809 91.9807 167.812 91.9823C167.819 91.9855 167.828 91.9905 167.841 91.9971C167.867 92.0103 167.906 92.0301 167.958 92.056C168.061 92.1078 168.214 92.1841 168.414 92.2812C168.813 92.4754 169.397 92.7528 170.133 93.0841L169.723 93.996ZM187.378 98.8006L187.256 99.7931L187.378 98.8006ZM242.589 81V80V81ZM278.573 98.8492C278.546 99.4009 278.077 99.8263 277.525 99.7994L268.536 99.3615C267.984 99.3346 267.559 98.8656 267.586 98.314C267.612 97.7624 268.081 97.337 268.633 97.3638L276.624 97.7531L277.013 89.7626C277.04 89.2109 277.509 88.7855 278.06 88.8124C278.612 88.8393 279.037 89.3083 279.01 89.8599L278.573 98.8492ZM277.574 98.8006C276.833 99.4724 276.833 99.4725 276.833 99.4725C276.833 99.4725 276.833 99.4726 276.833 99.4726C276.833 99.4726 276.833 99.4726 276.833 99.4726C276.833 99.4727 276.833 99.4727 276.833 99.4726C276.833 99.4725 276.833 99.4722 276.832 99.4718C276.832 99.4709 276.83 99.4693 276.828 99.4671C276.824 99.4628 276.818 99.4558 276.809 99.4463C276.792 99.4272 276.765 99.398 276.728 99.3593C276.656 99.2817 276.546 99.1657 276.401 99.0154C276.111 98.7149 275.68 98.2774 275.12 97.7365L276.508 96.2974C277.087 96.8562 277.536 97.3106 277.841 97.6269C277.993 97.7851 278.11 97.9088 278.19 97.9938C278.229 98.0363 278.26 98.0692 278.281 98.0918C278.291 98.1032 278.299 98.1119 278.305 98.1181C278.308 98.1212 278.31 98.1236 278.311 98.1254C278.312 98.1263 278.313 98.127 278.313 98.1276C278.314 98.1278 278.314 98.1281 278.314 98.1283C278.314 98.1284 278.314 98.1284 278.314 98.1285C278.314 98.1286 278.314 98.1286 278.314 98.1286C278.314 98.1287 278.314 98.1287 277.574 98.8006ZM271.425 94.4268C270.271 93.4638 268.956 92.4283 267.505 91.3806L268.675 89.7589C270.169 90.837 271.521 91.9017 272.706 92.8911L271.425 94.4268ZM263.382 88.6354C262.012 87.7992 260.566 86.9912 259.055 86.244L259.942 84.4513C261.511 85.2275 263.009 86.0647 264.424 86.9284L263.382 88.6354ZM254.535 84.2871C253.011 83.723 251.443 83.2408 249.841 82.8666L250.296 80.919C251.987 81.3139 253.635 81.8213 255.229 82.4115L254.535 84.2871ZM245.022 82.1007C244.216 82.0345 243.405 82 242.589 82V80C243.461 80 244.327 80.0369 245.186 80.1074L245.022 82.1007ZM242.589 82C241.8 82 241.014 82.0368 240.23 82.1073L240.051 80.1153C240.892 80.0397 241.738 80 242.589 80V82ZM235.554 82.907C234.027 83.2845 232.505 83.7671 230.983 84.3308L230.289 82.4553C231.869 81.8701 233.463 81.3638 235.074 80.9655L235.554 82.907ZM226.53 86.1877C225.075 86.8542 223.62 87.571 222.161 88.3165L221.251 86.5356C222.726 85.7818 224.208 85.0514 225.697 84.3693L226.53 86.1877ZM217.832 90.5832C216.39 91.3482 214.939 92.12 213.485 92.8726L212.566 91.0962C214.009 90.3495 215.449 89.5835 216.894 88.8165L217.832 90.5832ZM209.063 95.0705C207.557 95.7807 206.038 96.4494 204.506 97.0515L203.774 95.1901C205.257 94.6076 206.734 93.9574 208.21 93.2615L209.063 95.0705ZM199.772 98.6591C198.151 99.1156 196.511 99.4737 194.848 99.7045L194.573 97.7235C196.134 97.5067 197.685 97.169 199.23 96.734L199.772 98.6591ZM189.793 99.9867C188.952 99.961 188.107 99.8976 187.256 99.7931L187.499 97.808C188.289 97.9049 189.073 97.9638 189.854 97.9876L189.793 99.9867ZM187.256 99.7931C186.372 99.6847 185.489 99.545 184.613 99.3806L184.982 97.4149C185.82 97.5723 186.662 97.7052 187.499 97.808L187.256 99.7931ZM179.441 98.1334C177.643 97.6116 175.943 97.0323 174.413 96.4621L175.111 94.588C176.603 95.144 178.256 95.7069 179.998 96.2128L179.441 98.1334ZM169.518 94.4519C168.767 94.114 168.169 93.8302 167.758 93.6301C167.552 93.53 167.393 93.4509 167.284 93.3963C167.23 93.369 167.188 93.3479 167.16 93.3334C167.146 93.3261 167.135 93.3205 167.127 93.3166C167.123 93.3146 167.12 93.3131 167.118 93.312C167.117 93.3115 167.116 93.311 167.116 93.3107C167.115 93.3106 167.115 93.3104 167.115 93.3103C167.115 93.3103 167.115 93.3102 167.115 93.3102C167.115 93.3101 167.114 93.3101 167.114 93.3101C167.114 93.3101 167.114 93.3101 167.574 92.4218C168.033 91.5336 168.033 91.5336 168.033 91.5335C168.033 91.5335 168.033 91.5335 168.033 91.5335C168.033 91.5335 168.033 91.5335 168.033 91.5335C168.033 91.5335 168.033 91.5335 168.033 91.5336C168.033 91.5337 168.034 91.5339 168.034 91.5342C168.036 91.5349 168.038 91.536 168.041 91.5375C168.047 91.5405 168.056 91.5453 168.068 91.5517C168.093 91.5644 168.131 91.5837 168.182 91.6092C168.283 91.6601 168.435 91.7354 168.633 91.8315C169.028 92.0238 169.608 92.2991 170.339 92.6281L169.518 94.4519Z" fill="url(#paint4_linear)"/>
<path d="M212.81 188.688L213.093 188.276L212.81 188.688ZM277.927 204.646C278.123 204.842 278.123 205.158 277.927 205.354L274.745 208.536C274.55 208.731 274.233 208.731 274.038 208.536C273.843 208.34 273.843 208.024 274.038 207.828L276.867 205L274.038 202.172C273.843 201.976 273.843 201.66 274.038 201.464C274.233 201.269 274.55 201.269 274.745 201.464L277.927 204.646ZM277.574 205C277.574 205.5 277.574 205.5 277.574 205.5C277.574 205.5 277.574 205.5 277.574 205.5C277.574 205.5 277.574 205.5 277.573 205.5C277.573 205.5 277.573 205.5 277.573 205.5C277.572 205.5 277.572 205.5 277.571 205.5C277.569 205.5 277.566 205.5 277.563 205.5C277.556 205.5 277.546 205.5 277.532 205.5C277.505 205.5 277.465 205.5 277.412 205.499C277.307 205.498 277.151 205.497 276.946 205.494C276.538 205.488 275.937 205.475 275.166 205.451L275.198 204.451C275.963 204.476 276.558 204.488 276.961 204.494C277.163 204.497 277.317 204.498 277.42 204.499C277.471 204.5 277.51 204.5 277.536 204.5C277.549 204.5 277.558 204.5 277.565 204.5C277.568 204.5 277.57 204.5 277.572 204.5C277.572 204.5 277.573 204.5 277.573 204.5C277.574 204.5 277.574 204.5 277.574 204.5C277.574 204.5 277.574 204.5 277.574 204.5C277.574 204.5 277.574 204.5 277.574 204.5C277.574 204.5 277.574 204.5 277.574 205ZM270.32 205.217C268.875 205.126 267.25 205.005 265.479 204.846L265.569 203.85C267.33 204.008 268.946 204.128 270.382 204.219L270.32 205.217ZM260.667 204.351C259.131 204.173 257.524 203.967 255.864 203.729L256.006 202.739C257.657 202.976 259.254 203.18 260.782 203.358L260.667 204.351ZM251.076 202.974C249.516 202.705 247.924 202.407 246.31 202.078L246.51 201.098C248.113 201.425 249.695 201.721 251.246 201.988L251.076 202.974ZM241.582 201.031C240.024 200.658 238.456 200.254 236.888 199.816L237.157 198.853C238.712 199.287 240.268 199.688 241.815 200.058L241.582 201.031ZM232.242 198.415C230.704 197.915 229.175 197.38 227.663 196.806L228.017 195.871C229.513 196.438 231.028 196.969 232.551 197.464L232.242 198.415ZM223.168 194.962C221.678 194.3 220.215 193.597 218.788 192.85L219.252 191.964C220.659 192.701 222.102 193.394 223.574 194.048L223.168 194.962ZM214.564 190.435C213.873 190.003 213.194 189.558 212.527 189.101L213.093 188.276C213.747 188.725 214.415 189.162 215.094 189.587L214.564 190.435ZM212.527 189.101C211.852 188.637 211.172 188.147 210.489 187.632L211.091 186.834C211.763 187.34 212.431 187.821 213.093 188.276L212.527 189.101ZM206.589 184.475C205.357 183.411 204.12 182.284 202.884 181.107L203.574 180.383C204.799 181.55 206.024 182.666 207.243 183.718L206.589 184.475ZM199.331 177.587C198.181 176.404 197.035 175.188 195.9 173.948L196.638 173.273C197.767 174.506 198.905 175.715 200.048 176.89L199.331 177.587ZM192.572 170.217C191.477 168.958 190.397 167.687 189.335 166.412L190.103 165.772C191.161 167.042 192.237 168.308 193.327 169.561L192.572 170.217ZM186.174 162.542C185.116 161.222 184.084 159.911 183.082 158.617L183.873 158.005C184.871 159.294 185.9 160.602 186.954 161.916L186.174 162.542ZM180.055 154.646C179.019 153.266 178.027 151.922 177.086 150.631L177.894 150.042C178.832 151.33 179.822 152.669 180.855 154.046L180.055 154.646ZM174.171 146.573C173.119 145.088 172.165 143.717 171.322 142.492L172.146 141.925C172.986 143.146 173.938 144.514 174.987 145.995L174.171 146.573ZM168.511 138.338C168.072 137.678 167.733 137.161 167.503 136.81C167.388 136.634 167.301 136.499 167.242 136.408C167.213 136.363 167.191 136.328 167.176 136.305C167.168 136.294 167.163 136.285 167.159 136.279C167.157 136.276 167.155 136.274 167.154 136.272C167.154 136.272 167.154 136.271 167.153 136.271C167.153 136.27 167.153 136.27 167.153 136.27C167.153 136.27 167.153 136.27 167.153 136.27C167.153 136.27 167.153 136.27 167.153 136.27C167.153 136.27 167.153 136.27 167.574 136C167.995 135.73 167.995 135.73 167.995 135.73C167.995 135.73 167.995 135.73 167.995 135.73C167.995 135.73 167.995 135.73 167.995 135.73C167.995 135.73 167.995 135.73 167.995 135.73C167.995 135.731 167.995 135.731 167.996 135.732C167.997 135.733 167.998 135.735 168 135.738C168.003 135.744 168.009 135.752 168.016 135.764C168.031 135.786 168.053 135.82 168.082 135.865C168.14 135.955 168.227 136.088 168.341 136.263C168.569 136.613 168.906 137.127 169.343 137.785L168.511 138.338ZM212.81 188.688L213.376 187.864L212.81 188.688ZM278.281 204.293C278.671 204.683 278.671 205.317 278.281 205.707L271.917 212.071C271.526 212.462 270.893 212.462 270.503 212.071C270.112 211.681 270.112 211.047 270.503 210.657L276.16 205L270.503 199.343C270.112 198.953 270.112 198.319 270.503 197.929C270.893 197.538 271.526 197.538 271.917 197.929L278.281 204.293ZM277.574 205C277.574 206 277.574 206 277.574 206C277.574 206 277.574 206 277.574 206C277.574 206 277.573 206 277.573 206C277.573 206 277.573 206 277.573 206C277.572 206 277.571 206 277.57 206C277.568 206 277.566 206 277.562 206C277.555 206 277.544 206 277.53 206C277.503 206 277.462 206 277.409 205.999C277.302 205.998 277.144 205.997 276.939 205.994C276.527 205.988 275.924 205.975 275.15 205.95L275.214 203.951C275.976 203.976 276.568 203.988 276.969 203.994C277.169 203.997 277.322 203.999 277.423 203.999C277.474 204 277.512 204 277.538 204C277.55 204 277.56 204 277.566 204C277.569 204 277.571 204 277.572 204C277.573 204 277.573 204 277.574 204C277.574 204 277.574 204 277.574 204C277.574 204 277.574 204 277.574 204C277.574 204 277.574 204 277.574 204C277.574 204 277.574 204 277.574 205ZM270.288 205.716C268.839 205.624 267.21 205.504 265.435 205.344L265.614 203.352C267.37 203.51 268.981 203.629 270.414 203.72L270.288 205.716ZM260.609 204.848C259.069 204.669 257.458 204.462 255.793 204.224L256.077 202.244C257.723 202.48 259.316 202.684 260.84 202.861L260.609 204.848ZM250.991 203.467C249.426 203.197 247.829 202.898 246.21 202.568L246.61 200.608C248.208 200.934 249.785 201.229 251.331 201.496L250.991 203.467ZM241.465 201.517C239.902 201.143 238.328 200.737 236.753 200.298L237.291 198.371C238.84 198.804 240.39 199.203 241.931 199.572L241.465 201.517ZM232.087 198.89C230.543 198.388 229.006 197.85 227.485 197.274L228.194 195.404C229.683 195.968 231.189 196.495 232.706 196.988L232.087 198.89ZM222.965 195.419C221.466 194.753 219.993 194.046 218.556 193.293L219.484 191.521C220.88 192.252 222.314 192.942 223.776 193.591L222.965 195.419ZM214.299 190.859C213.602 190.423 212.917 189.974 212.244 189.513L213.376 187.864C214.024 188.309 214.686 188.742 215.359 189.163L214.299 190.859ZM212.244 189.513C211.562 189.044 210.877 188.55 210.189 188.032L211.391 186.434C212.058 186.936 212.72 187.413 213.376 187.864L212.244 189.513ZM206.262 184.853C205.023 183.784 203.78 182.651 202.539 181.469L203.919 180.021C205.139 181.183 206.358 182.293 207.569 183.339L206.262 184.853ZM198.973 177.936C197.818 176.749 196.67 175.529 195.531 174.286L197.007 172.935C198.132 174.165 199.267 175.37 200.406 176.541L198.973 177.936ZM192.195 170.545C191.098 169.284 190.015 168.009 188.951 166.732L190.488 165.452C191.543 166.719 192.617 167.983 193.704 169.232L192.195 170.545ZM185.784 162.854C184.724 161.533 183.69 160.219 182.687 158.923L184.268 157.699C185.265 158.986 186.292 160.291 187.344 161.604L185.784 162.854ZM179.655 154.946C178.618 153.564 177.624 152.218 176.682 150.925L178.298 149.748C179.235 151.033 180.223 152.371 181.255 153.746L179.655 154.946ZM173.763 146.862C172.71 145.375 171.754 144.002 170.91 142.775L172.558 141.642C173.397 142.861 174.348 144.227 175.395 145.706L173.763 146.862ZM168.094 138.615C167.655 137.954 167.315 137.436 167.084 137.083C166.969 136.907 166.881 136.771 166.822 136.68C166.793 136.634 166.77 136.6 166.755 136.576C166.748 136.564 166.742 136.556 166.738 136.55C166.736 136.547 166.735 136.544 166.734 136.543C166.733 136.542 166.733 136.541 166.733 136.541C166.732 136.541 166.732 136.54 166.732 136.54C166.732 136.54 166.732 136.54 166.732 136.54C166.732 136.54 166.732 136.54 166.732 136.54C166.732 136.54 166.732 136.54 167.574 136C168.415 135.46 168.415 135.46 168.415 135.46C168.415 135.46 168.415 135.46 168.415 135.46C168.415 135.46 168.415 135.46 168.415 135.46C168.415 135.46 168.415 135.46 168.416 135.46C168.416 135.461 168.416 135.461 168.416 135.462C168.417 135.463 168.419 135.465 168.42 135.468C168.424 135.473 168.429 135.482 168.437 135.493C168.451 135.515 168.473 135.549 168.502 135.594C168.559 135.683 168.646 135.816 168.759 135.99C168.987 136.338 169.323 136.851 169.76 137.508L168.094 138.615Z" fill="url(#paint5_linear)"/>
<defs>
<linearGradient id="paint0_linear" x1="1" y1="21.8667" x2="90.4732" y2="56.4471" gradientUnits="userSpaceOnUse">
<stop stop-color="#FC3698"/>
<stop offset="0.826042" stop-color="#FC3698" stop-opacity="0.5"/>
<stop offset="1" stop-color="#FC3698" stop-opacity="0"/>
</linearGradient>
<linearGradient id="paint1_linear" x1="1" y1="125.33" x2="90.5068" y2="95.6786" gradientUnits="userSpaceOnUse">
<stop stop-color="#FC3698"/>
<stop offset="0.826042" stop-color="#FC3698" stop-opacity="0.5"/>
<stop offset="1" stop-color="#FC3698" stop-opacity="0"/>
</linearGradient>
<linearGradient id="paint2_linear" x1="1" y1="232.867" x2="90.4379" y2="158.52" gradientUnits="userSpaceOnUse">
<stop stop-color="#FC3698"/>
<stop offset="0.826042" stop-color="#FC3698" stop-opacity="0.5"/>
<stop offset="1" stop-color="#FC3698" stop-opacity="0"/>
</linearGradient>
<linearGradient id="paint3_linear" x1="277.574" y1="6.98319" x2="166.892" y2="50.256" gradientUnits="userSpaceOnUse">
<stop stop-color="#FC3698"/>
<stop offset="0.826042" stop-color="#FC3698" stop-opacity="0.5"/>
<stop offset="1" stop-color="#FC3698" stop-opacity="0"/>
</linearGradient>
<linearGradient id="paint4_linear" x1="277.91" y1="101.671" x2="174.877" y2="123.057" gradientUnits="userSpaceOnUse">
<stop stop-color="#FC3698"/>
<stop offset="0.826042" stop-color="#FC3698" stop-opacity="0.5"/>
<stop offset="1" stop-color="#FC3698" stop-opacity="0"/>
</linearGradient>
<linearGradient id="paint5_linear" x1="277.574" y1="205" x2="217.052" y2="105.81" gradientUnits="userSpaceOnUse">
<stop stop-color="#FC3698"/>
<stop offset="0.826042" stop-color="#FC3698" stop-opacity="0.5"/>
<stop offset="1" stop-color="#FC3698" stop-opacity="0"/>
</linearGradient>
</defs>
</svg>
