<svg width="1917" height="72" fill="none" xmlns="http://www.w3.org/2000/svg"><path fill="#E5E5E5" d="M0 0h1917v72H0z"/><g clip-path="url(#clip0)"><path fill="#fff" d="M0-1415h1920v5816H0z"/><g clip-path="url(#clip1)"><path fill-rule="evenodd" clip-rule="evenodd" d="M622.162 66L715.185.47 814.71 66 912.735.47 1009.76 66 1105.78.47 1204.81 66 1316.17.47 1416.36 66H1920v1039h-603.22l-112.52-66-99.09 65.37-96.1-65.37-97.092 65.37-98.095-65.37-99.596 65.37-93.09-65.37-106.101 66H0V66h406.608L517.152.47 622.162 66z" fill="#FCF9FF"/><path d="M-24 66h429.608L516.152 0l105.01 66 93.023-66 99.525 66 98.025-66 97.025 66 96.02-66 99.03 66 111.36-66 100.19 66H1967" stroke="#8867A3" stroke-dasharray="10 10"/></g></g><defs><clipPath id="clip0"><path fill="#fff" transform="translate(0 -1415)" d="M0 0h1920v5816H0z"/></clipPath><clipPath id="clip1"><path fill="#fff" d="M0 0h1920v1106H0z"/></clipPath></defs></svg>