<svg width="768" height="694" viewBox="0 0 768 694" fill="none" xmlns="http://www.w3.org/2000/svg">
<path d="M-45 374.75L50 322L145 374.75V479.828L50 533L-45 479.828V374.75Z" fill="#F9F9F9"/>
<path d="M52 535.75L147 483L242 535.75V640.828L147 694L52 640.828V535.75Z" fill="#F9F9F9"/>
<path d="M-140 213.75L-45 161L50 213.75V318.828L-45 372L-140 318.828V213.75Z" fill="#F9F9F9"/>
<path d="M634 213.75L729 161L824 213.75V318.828L729 372L634 318.828V213.75Z" fill="#F9F9F9"/>
<path d="M537 52.75L632 0L727 52.75V157.828L632 211L537 157.828V52.75Z" fill="#F9F9F9"/>
<path d="M-45 52.75L50 0L145 52.75V157.828L50 211L-45 157.828V52.75Z" fill="#F9F9F9"/>
</svg>
