<svg width="527" height="403" fill="none" xmlns="http://www.w3.org/2000/svg"><path d="M88.594 20.582l.194-.46-.194.46zM.607 8.564a.5.5 0 00.085.702l3.54 2.776a.5.5 0 10.618-.787L1.702 8.787 4.17 5.64a.5.5 0 00-.787-.617L.607 8.564zM1 8.872l.06.497h.002l.007-.001a16.197 16.197 0 01.146-.017 100.681 100.681 0 012.268-.22l-.085-.997a101.675 101.675 0 00-2.455.241H.94l.06.497zm7.417-.082c1.464-.08 3.12-.151 4.95-.204l-.03-1c-1.837.054-3.502.126-4.974.206l.054.998zm9.893-.287c1.569-.008 3.223 0 4.953.03l.017-1c-1.738-.03-3.4-.038-4.976-.03l.006 1zm9.883.172c1.6.064 3.25.148 4.945.254l.062-.998c-1.702-.107-3.36-.19-4.967-.255l-.04 1zm9.872.621c1.613.14 3.258.3 4.93.485l.109-.994a206.37 206.37 0 00-4.953-.487l-.086.996zm9.83 1.087c1.611.218 3.243.46 4.892.726l.16-.987a193.251 193.251 0 00-4.919-.73l-.134.99zm9.765 1.582c1.602.303 3.216.632 4.838.987l.214-.977a176.636 176.636 0 00-4.866-.993l-.186.983zm9.65 2.114c1.587.397 3.18.82 4.775 1.272l.273-.962a159.746 159.746 0 00-4.806-1.28l-.243.97zm9.508 2.697c1.561.498 3.12 1.025 4.677 1.581l.337-.941a145.746 145.746 0 00-4.71-1.593l-.303.953zm9.295 3.328c.764.305 1.526.618 2.286.939l.389-.922c-.766-.323-1.535-.638-2.304-.946l-.371.929zm2.286.939c.768.323 1.542.66 2.32 1.008l.409-.913c-.785-.351-1.566-.69-2.34-1.017l-.389.922zm6.925 3.167a176.42 176.42 0 014.53 2.307l.467-.884a175.14 175.14 0 00-4.557-2.32l-.44.897zm9.008 4.74c1.468.822 2.94 1.666 4.412 2.53l.506-.861a241.593 241.593 0 00-4.43-2.541l-.488.873zm8.78 5.15a313.75 313.75 0 014.322 2.695l.536-.844a317.732 317.732 0 00-4.336-2.703l-.522.852zm8.604 5.457a389.12 389.12 0 014.244 2.821l.559-.83a384.452 384.452 0 00-4.255-2.827l-.548.837zm8.448 5.692c1.417.98 2.812 1.957 4.181 2.927l.578-.816a460.75 460.75 0 00-4.19-2.933l-.569.822zm8.32 5.89a519.248 519.248 0 014.12 3.014l.594-.804a505.864 505.864 0 00-4.128-3.02l-.586.81zm8.194 6.055a551.711 551.711 0 014.068 3.095l.609-.793a558.983 558.983 0 00-4.075-3.1l-.602.798zm8.099 6.221a525.643 525.643 0 013.989 3.155l.625-.78a537.482 537.482 0 00-3.998-3.162l-.616.787zm7.943 6.35a229.585 229.585 0 011.832 1.512l.095.08a.38.38 0 00.03.024l.001.001L165 71l.322-.383h-.001l-.002-.002a8.86 8.86 0 01-.126-.106l-.378-.314c-.333-.276-.824-.682-1.461-1.203l-.634.773zM88.594 20.583l.388-.921-.388.921zM.213 8.255a1 1 0 00.17 1.404l7.083 5.553A1 1 0 008.7 13.638L2.404 8.702 7.34 2.406a1 1 0 00-1.574-1.234L.213 8.255zM1 8.872l.12.993h.002a1.768 1.768 0 01.034-.004 29.013 29.013 0 01.574-.063c.406-.042 1.01-.102 1.796-.17l-.171-1.992a102.287 102.287 0 00-2.463.242l-.009.001H.881a.013.013 0 00-.001 0l.12.993zm7.444.417c1.46-.079 3.112-.15 4.936-.203l-.057-1.999c-1.842.053-3.511.125-4.987.205l.108 1.997zm9.868-.286c1.566-.008 3.216 0 4.942.03l.035-2a219.4 219.4 0 00-4.987-.03l.01 2zm9.86.172c1.598.064 3.244.147 4.934.253l.126-1.996a218.665 218.665 0 00-4.98-.256l-.08 1.999zm9.85.62c1.61.138 3.25.298 4.917.483l.22-1.988c-1.684-.186-3.34-.348-4.965-.488l-.172 1.992zm9.805 1.083c1.608.218 3.236.459 4.88.725l.32-1.974a193.643 193.643 0 00-4.931-.733l-.269 1.982zm9.74 1.578c1.598.303 3.207.63 4.824.984l.428-1.953c-1.637-.358-3.264-.69-4.88-.996l-.372 1.965zm9.621 2.108c1.583.396 3.171.818 4.761 1.268l.545-1.924c-1.61-.456-3.218-.884-4.82-1.284l-.486 1.94zm9.478 2.688a142.11 142.11 0 014.66 1.576L82 16.945a144.14 144.14 0 00-4.725-1.598l-.609 1.905zm9.261 3.316c.761.304 1.52.616 2.278.935l.777-1.842c-.77-.325-1.54-.641-2.313-.95l-.742 1.857zm2.278.935c.764.323 1.535.658 2.31 1.004l.817-1.826c-.788-.352-1.572-.692-2.35-1.02l-.777 1.842zm6.898 3.156c1.494.733 3.001 1.501 4.518 2.3l.933-1.768a175.32 175.32 0 00-4.57-2.327l-.88 1.795zm8.985 4.728a243.19 243.19 0 014.403 2.525l1.013-1.725a243.82 243.82 0 00-4.44-2.545l-.976 1.745zm8.763 5.14a316.87 316.87 0 014.315 2.69l1.072-1.688a319.737 319.737 0 00-4.343-2.708l-1.044 1.706zm8.591 5.449c1.426.934 2.84 1.874 4.238 2.817l1.118-1.659a386.79 386.79 0 00-4.26-2.831l-1.096 1.673zm8.438 5.685c1.415.978 2.809 1.954 4.176 2.923l1.156-1.632a463.615 463.615 0 00-4.194-2.936l-1.138 1.645zm8.311 5.884a531.876 531.876 0 014.116 3.01l1.188-1.608a524.365 524.365 0 00-4.131-3.022l-1.173 1.62zm8.186 6.048c1.42 1.07 2.777 2.104 4.064 3.092l1.219-1.586a563.127 563.127 0 00-4.079-3.103l-1.204 1.597zm8.091 6.216a525.892 525.892 0 013.986 3.152l1.249-1.563a518.796 518.796 0 00-4.002-3.164l-1.233 1.575zm7.936 6.344c.634.519 1.123.923 1.453 1.197l.374.31.095.08.023.02a.06.06 0 01.006.004l.001.001h.001L165 71l.643-.766-.002-.002a.026.026 0 01-.006-.005l-.025-.02-.097-.081a278.327 278.327 0 00-1.843-1.52l-1.266 1.546z" fill="url(#paint0_linear)"/><path d="M80.274 187.241v-.5.5zM.569 197.746a.5.5 0 00.177.685l3.876 2.286a.5.5 0 10.508-.861l-3.445-2.033 2.032-3.445a.5.5 0 10-.861-.508l-2.287 3.876zM1 198l.125.484h.002l.007-.002.03-.008.116-.029.46-.116a215.61 215.61 0 011.784-.436l-.233-.972c-.782.188-1.385.336-1.793.438l-.464.116a3.36 3.36 0 01-.118.03l-.03.008-.008.002-.002.001L1 198zm7.415-1.238c1.445-.323 3.08-.68 4.883-1.06l-.207-.978c-1.806.38-3.445.738-4.894 1.062l.218.976zm9.793-2.063c1.557-.309 3.199-.626 4.914-.945l-.184-.983c-1.719.32-3.364.637-4.925.947l.195.981zm9.838-1.834a435.79 435.79 0 014.943-.832l-.16-.987a418.1 418.1 0 00-4.955.834l.172.985zm9.886-1.602a383.06 383.06 0 014.955-.709l-.135-.991c-1.683.23-3.34.467-4.968.711l.148.989zm9.92-1.351c1.64-.201 3.299-.392 4.972-.572l-.107-.994c-1.678.18-3.342.372-4.987.573l.121.993zm9.95-1.068c1.654-.152 3.318-.291 4.988-.415l-.074-.997c-1.676.125-3.346.264-5.005.416l.091.996zm9.979-.74c1.665-.093 3.331-.17 4.996-.228l-.035-.999c-1.672.058-3.345.135-5.017.228l.056.999zm9.995-.348c.835-.01 1.667-.015 2.498-.015v-1c-.835 0-1.672.005-2.51.015l.013 1zm2.498-.015c.808 0 1.621-.02 2.438-.059l-.048-.999c-.8.038-1.598.058-2.39.058v1zm7.308-.504a67.198 67.198 0 004.803-.822l-.204-.979a66.668 66.668 0 01-4.731.81l.132.991zm9.54-1.964a90.787 90.787 0 004.665-1.412l-.315-.949c-1.538.51-3.077.977-4.613 1.397l.264.964zm9.247-3.053a120.046 120.046 0 004.502-1.836l-.396-.919c-1.482.64-2.971 1.248-4.465 1.822l.359.933zm8.931-3.844a149.203 149.203 0 004.355-2.156l-.457-.889c-1.43.736-2.873 1.452-4.327 2.142l.429.903zm8.641-4.443a186.263 186.263 0 004.223-2.405l-.506-.863c-1.381.811-2.782 1.61-4.201 2.393l.484.875zm8.382-4.916a210.241 210.241 0 004.095-2.603l-.546-.838c-1.33.867-2.69 1.732-4.076 2.591l.527.85zm8.134-5.294a243.08 243.08 0 003.99-2.779l-.579-.815a243.595 243.595 0 01-3.974 2.767l.563.827zm7.905-5.618a269.406 269.406 0 003.892-2.935l-.61-.793a265.266 265.266 0 01-3.876 2.924l.594.804zm7.713-5.929a246.856 246.856 0 003.767-3.069l-.639-.769a240.449 240.449 0 01-3.753 3.057l.625.781zm7.467-6.214a136.692 136.692 0 001.678-1.486l.088-.08.022-.02.006-.006.001-.001h.001L165 144l-.338-.369v.001l-.001.001a.022.022 0 00-.006.005l-.021.019-.085.078-.34.305c-.299.268-.744.663-1.324 1.168l.657.754zm-83.268 41.279v-1 1zM.139 197.492a1 1 0 00.353 1.369l7.751 4.573a1 1 0 101.017-1.722l-6.89-4.065 4.064-6.89a1 1 0 00-1.722-1.017l-4.573 7.752zM1 198l.25.968h.002l.007-.002.028-.007.116-.03.457-.115c.404-.1 1.003-.248 1.78-.434l-.466-1.945a216.202 216.202 0 00-2.382.586l-.03.008-.009.002H.751v.001L1 198zm7.524-.75c1.444-.323 3.077-.679 4.877-1.058l-.413-1.957c-1.808.38-3.45.739-4.9 1.063l.436 1.952zm9.781-2.061c1.556-.308 3.195-.624 4.908-.944l-.366-1.966c-1.721.321-3.368.639-4.931.948l.39 1.962zm9.827-1.831c1.599-.279 3.247-.557 4.937-.831l-.32-1.974c-1.699.275-3.354.554-4.96.835l.343 1.97zm9.874-1.601c1.62-.242 3.272-.479 4.949-.707l-.27-1.982c-1.686.23-3.346.467-4.975.711l.296 1.978zm9.906-1.349c1.638-.2 3.294-.391 4.965-.571l-.214-1.988c-1.68.18-3.347.372-4.994.574l.243 1.985zm9.936-1.066c1.651-.152 3.312-.29 4.979-.414l-.148-1.995c-1.679.125-3.351.265-5.014.417l.183 1.992zm9.96-.739c1.662-.093 3.326-.169 4.986-.227l-.07-1.999a248.41 248.41 0 00-5.027.229l.112 1.997zm9.975-.347c.832-.01 1.662-.015 2.49-.015v-2c-.836 0-1.675.005-2.515.015l.025 2zm2.49-.015c.818 0 1.639-.02 2.463-.06l-.095-1.997a50.83 50.83 0 01-2.367.057v2zm7.375-.508a68.031 68.031 0 004.838-.828l-.406-1.959a65.853 65.853 0 01-4.696.804l.264 1.983zm9.606-1.977a92.453 92.453 0 004.69-1.42l-.629-1.899a89.54 89.54 0 01-4.588 1.389l.527 1.93zm9.294-3.069a119.69 119.69 0 004.521-1.844l-.792-1.837a117.776 117.776 0 01-4.446 1.814l.717 1.867zm8.966-3.859c1.469-.698 2.927-1.42 4.37-2.163l-.915-1.779a148.837 148.837 0 01-4.313 2.135l.858 1.807zm8.668-4.457a183.04 183.04 0 004.235-2.412l-1.012-1.725a185.456 185.456 0 01-4.189 2.386l.966 1.751zm8.405-4.929a211.168 211.168 0 004.104-2.609l-1.092-1.676a213.41 213.41 0 01-4.066 2.585l1.054 1.7zm8.152-5.306a255.035 255.035 0 003.998-2.784l-1.159-1.63c-1.28.91-2.603 1.833-3.966 2.761l1.127 1.653zm7.921-5.629a263.123 263.123 0 003.899-2.941l-1.219-1.585a264.663 264.663 0 01-3.87 2.918l1.19 1.608zm7.727-5.94a260.824 260.824 0 003.775-3.075l-1.279-1.538a250.477 250.477 0 01-3.745 3.05l1.249 1.563zm7.484-6.228a171.222 171.222 0 001.685-1.493l.088-.08.023-.021.006-.006.002-.001v-.001h.001L165 144l-.676-.737-.001.001-.005.005a131.433 131.433 0 01-1.761 1.562l1.314 1.508z" fill="url(#paint1_linear)"/><path d="M103.156 360.968l.33.376-.33-.376zM.662 394.589a.5.5 0 00-.03.706l3.038 3.319a.5.5 0 00.738-.675l-2.702-2.951 2.95-2.701a.5.5 0 10-.675-.737l-3.319 3.039zm.338.368l-.022.5H.99l.032.002.123.004a87.426 87.426 0 002.334.037l.002-1a84.92 84.92 0 01-1.831-.023l-.47-.013-.119-.005-.029-.001h-.009l-.022.499zm7.495.455c1.487-.052 3.169-.132 5.022-.253l-.065-.998c-1.843.12-3.514.2-4.992.252l.035.999zm10.003-.649c1.58-.147 3.244-.323 4.982-.532l-.12-.993a188.49 188.49 0 01-4.955.53l.093.995zm9.957-1.199c1.603-.237 3.255-.502 4.95-.799l-.173-.985a188.18 188.18 0 01-4.924.795l.147.989zm9.868-1.73c1.605-.326 3.24-.681 4.901-1.068l-.226-.974c-1.651.385-3.278.738-4.874 1.063l.199.979zm9.775-2.275c1.593-.419 3.204-.868 4.83-1.347l-.283-.96c-1.616.477-3.218.923-4.801 1.34l.254.967zm9.612-2.839a157.97 157.97 0 004.737-1.64l-.342-.94a157.554 157.554 0 01-4.707 1.631l.312.949zm9.42-3.435a145.33 145.33 0 004.62-1.952l-.405-.914c-1.53.678-3.06 1.324-4.589 1.938l.374.928zm9.17-4.065a134.723 134.723 0 004.47-2.279l-.47-.882c-1.475.786-2.955 1.54-4.438 2.261l.438.9zm8.851-4.726a125.14 125.14 0 004.282-2.618l-.54-.843c-1.406.9-2.822 1.765-4.246 2.598l.504.863zm8.453-5.409a116.99 116.99 0 004.05-2.964l-.607-.794a117.56 117.56 0 01-4.016 2.939l.573.819zm7.969-6.102c.642-.537 1.279-1.084 1.913-1.639l-.659-.752c-.628.55-1.26 1.092-1.896 1.624l.642.767zm1.913-1.639a67.83 67.83 0 001.843-1.68l-.688-.727a64.107 64.107 0 01-1.814 1.655l.659.752zm5.396-5.268a107.726 107.726 0 003.329-3.737l-.761-.649a108.076 108.076 0 01-3.298 3.703l.73.683zm6.506-7.613a168.734 168.734 0 003.048-3.979l-.803-.596a166.708 166.708 0 01-3.03 3.955l.785.62zm5.987-8.038a241.07 241.07 0 002.844-4.125l-.829-.559a235.13 235.13 0 01-2.832 4.107l.817.577zm5.606-8.303a318.458 318.458 0 002.689-4.223l-.848-.531a294.95 294.95 0 01-2.681 4.21l.84.544zm5.313-8.486c.864-1.425 1.72-2.858 2.567-4.297l-.862-.507a381.554 381.554 0 01-2.56 4.286l.855.518zm5.08-8.624a459.79 459.79 0 002.466-4.355l-.873-.488a445.544 445.544 0 01-2.46 4.345l.867.498zm4.886-8.734c.807-1.476 1.6-2.944 2.379-4.4l-.882-.472a532.773 532.773 0 01-2.374 4.393l.877.479zm4.718-8.82a616.326 616.326 0 002.301-4.436l-.89-.457a593.938 593.938 0 01-2.297 4.429l.886.464zm4.567-8.891a691.182 691.182 0 002.24-4.486l-.896-.444a664.833 664.833 0 01-2.237 4.48l.893.45zm4.446-8.986a704.38 704.38 0 002.162-4.494l-.903-.43c-.68 1.426-1.4 2.925-2.159 4.487l.9.437zm4.306-9.033c.78-1.667 1.482-3.185 2.098-4.53l-.909-.417a594.174 594.174 0 01-2.095 4.523l.906.424zm4.165-9.094c.325-.729.574-1.292.742-1.673l.19-.434.048-.11.013-.028a.034.034 0 01.003-.008v-.001l.001-.001L165 259l-.459-.199-.001.002-.003.007a.231.231 0 01-.012.027l-.047.11-.189.431c-.167.38-.416.941-.74 1.668l.913.408zm-61.306 99.514l.66.752-.66-.752zM.325 394.22a1 1 0 00-.063 1.413l6.078 6.637a1 1 0 101.475-1.35l-5.402-5.9 5.9-5.403a1 1 0 00-1.35-1.475L.324 394.22zm.675.737l-.044.999h.001l.003.001h.009l.032.001.126.005a88.637 88.637 0 002.35.037l.005-2a83.842 83.842 0 01-2.286-.036l-.116-.004-.028-.001-.007-.001h-.001l-.044.999zm7.513.955c1.491-.052 3.178-.133 5.037-.254l-.13-1.996c-1.838.12-3.505.2-4.977.251l.07 1.999zm10.031-.651c1.584-.148 3.253-.324 4.995-.534l-.239-1.986c-1.724.208-3.375.383-4.942.529l.186 1.991zm9.984-1.203c1.608-.237 3.264-.503 4.963-.8l-.346-1.97c-1.68.294-3.319.557-4.91.792l.293 1.978zm9.895-1.734c1.61-.327 3.25-.683 4.915-1.071l-.453-1.948c-1.647.383-3.269.736-4.861 1.06l.399 1.959zm9.802-2.282c1.598-.42 3.214-.87 4.844-1.351l-.566-1.918c-1.61.475-3.208.92-4.787 1.335l.51 1.934zm9.642-2.847c1.575-.517 3.16-1.066 4.751-1.646l-.684-1.879a156.456 156.456 0 01-4.692 1.626l.625 1.899zm9.45-3.446a144.23 144.23 0 004.636-1.959l-.81-1.828c-1.525.675-3.05 1.319-4.573 1.932l.746 1.855zm9.202-4.08a133.99 133.99 0 004.487-2.287l-.942-1.764a134.888 134.888 0 01-4.42 2.253l.875 1.798zm8.884-4.743a126.258 126.258 0 004.299-2.629l-1.078-1.685c-1.4.896-2.811 1.758-4.23 2.587l1.01 1.727zm8.488-5.431a120.25 120.25 0 004.068-2.977l-1.216-1.588a115.118 115.118 0 01-3.999 2.926l1.147 1.639zm8.003-6.129c.645-.54 1.285-1.088 1.922-1.646l-1.319-1.504a109.07 109.07 0 01-1.887 1.617l1.284 1.533zm1.922-1.646a65.815 65.815 0 001.856-1.693l-1.375-1.453a64.495 64.495 0 01-1.8 1.642l1.319 1.504zm5.432-5.302a110.656 110.656 0 003.344-3.755l-1.523-1.297a108.144 108.144 0 01-3.282 3.686l1.461 1.366zm6.532-7.644a171.21 171.21 0 003.057-3.991l-1.605-1.194a166.4 166.4 0 01-3.021 3.944l1.569 1.241zm6.003-8.061a234.718 234.718 0 002.85-4.133l-1.658-1.118a237.931 237.931 0 01-2.826 4.098l1.634 1.153zm5.617-8.319a313.12 313.12 0 002.694-4.23l-1.696-1.061a303.034 303.034 0 01-2.676 4.203l1.678 1.088zm5.322-8.499a384.439 384.439 0 002.57-4.302l-1.724-1.015a396.22 396.22 0 01-2.556 4.281l1.71 1.036zm5.086-8.635a439.534 439.534 0 002.468-4.359l-1.745-.976a479.822 479.822 0 01-2.458 4.341l1.735.994zm4.891-8.742a552.595 552.595 0 002.381-4.404l-1.764-.943a548.481 548.481 0 01-2.372 4.388l1.755.959zm4.722-8.828c.786-1.5 1.554-2.982 2.303-4.44l-1.779-.914a633.703 633.703 0 01-2.296 4.426l1.772.928zm4.571-8.898c.772-1.533 1.52-3.032 2.241-4.49l-1.792-.887a663.462 663.462 0 01-2.235 4.477l1.786.9zm4.448-8.993a633.05 633.05 0 002.164-4.496l-1.805-.861c-.679 1.425-1.4 2.923-2.158 4.484l1.799.873zm4.31-9.039a635.18 635.18 0 002.1-4.534l-1.818-.833a676.425 676.425 0 01-2.093 4.52l1.811.847zm4.168-9.102c.326-.73.575-1.294.744-1.676l.19-.435.049-.111.012-.028.003-.007.001-.002v-.001L165 259l-.917-.398h-.001v.002l-.003.007a.466.466 0 00-.012.027l-.047.109-.189.43c-.167.379-.415.939-.739 1.665l1.826.816z" fill="url(#paint2_linear)"/><path d="M428.047 29.477l-.152-.476.152.476zm97.348-4.308a.5.5 0 01-.089.702l-3.558 2.755a.5.5 0 11-.612-.79l3.163-2.45-2.45-3.162a.5.5 0 01.791-.613l2.755 3.558zm-.395.307l-.063.496h-.002l-.007-.002-.029-.003a200.84 200.84 0 00-2.353-.272l.109-.994a206.266 206.266 0 012.25.259l.118.014.03.004.007.001h.003l-.063.497zm-7.304-.273a369.264 369.264 0 00-4.869-.423l.081-.997c1.799.145 3.434.29 4.881.425l-.093.995zm-9.722-.785a408.169 408.169 0 00-4.872-.304l.057-.998c1.702.096 3.333.198 4.883.304l-.068.998zm-9.743-.55c-1.583-.07-3.211-.132-4.878-.184l.031-1c1.672.053 3.305.116 4.891.186l-.044.999zm-9.747-.307a353.12 353.12 0 00-4.879-.057l.005-1c1.655.008 3.288.027 4.893.057l-.019 1zm-9.76-.045c-1.61.016-3.235.045-4.87.087l-.026-1c1.641-.042 3.271-.07 4.886-.087l.01 1zm-9.741.254c-1.618.07-3.242.154-4.867.255l-.062-.998c1.631-.101 3.262-.186 4.886-.256l.043 1zm-9.728.605a214.45 214.45 0 00-4.849.457l-.105-.994c1.618-.172 3.243-.324 4.872-.46l.082.997zm-9.687 1.032c-1.62.215-3.228.45-4.817.71l-.161-.988c1.6-.26 3.218-.497 4.847-.713l.131.991zm-9.605 1.57c-1.608.317-3.191.66-4.745 1.033l-.232-.973a123.41 123.41 0 014.783-1.042l.194.981zm-9.451 2.273c-.781.226-1.552.46-2.313.703l-.304-.952a90.929 90.929 0 012.338-.711l.279.96zm-2.313.703c-.806.258-1.609.533-2.409.827l-.344-.939a60.123 60.123 0 012.449-.84l.304.952zm-7.128 2.776a75.436 75.436 0 00-4.566 2.287l-.477-.879a76.194 76.194 0 014.626-2.317l.417.909zm-8.986 4.864a98.344 98.344 0 00-4.27 2.82l-.572-.82a98.9 98.9 0 014.314-2.848l.528.849zm-8.4 5.848a124.254 124.254 0 00-3.997 3.206l-.642-.768a126.006 126.006 0 014.03-3.231l.609.793zm-7.87 6.566a154.164 154.164 0 00-3.754 3.494l-.693-.72a153.652 153.652 0 013.778-3.517l.669.743zm-7.393 7.103a184.597 184.597 0 00-3.542 3.722l-.734-.68a185.377 185.377 0 013.561-3.742l.715.7zm-6.975 7.529a211.191 211.191 0 00-3.346 3.902l-.767-.641a210.693 210.693 0 013.362-3.921l.751.66zm-6.586 7.866a230.076 230.076 0 00-3.166 4.059l-.796-.606a229.442 229.442 0 013.181-4.077l.781.624zm-6.236 8.18a224.244 224.244 0 00-2.965 4.174l-.822-.569a219.573 219.573 0 012.979-4.194l.808.588zm-5.824 8.42c-.451.692-.795 1.232-1.027 1.598l-.261.417-.065.106-.016.026-.004.007-.001.001L361 91l-.427-.26.001-.001.001-.002.004-.007.017-.028.068-.11.265-.422c.233-.37.58-.915 1.035-1.611l.837.546zm65.246-59.628l-.304-.953.304.953zm97.744-4.614a1 1 0 01-.179 1.403l-7.116 5.51a.999.999 0 11-1.224-1.58l6.325-4.899-4.898-6.325a1 1 0 011.581-1.225l5.511 7.116zm-.791.613l-.126.992h-.002l-.007-.002-.029-.003-.115-.014-.456-.056c-.403-.047-1-.117-1.774-.201l.218-1.989a203.477 203.477 0 012.257.26l.119.015.03.004.008.001h.003l-.126.993zm-7.351.225c-1.44-.135-3.069-.278-4.862-.423l.161-1.993c1.802.145 3.439.29 4.888.425l-.187 1.991zm-9.709-.784c-1.544-.106-3.17-.208-4.866-.304l.113-1.997c1.704.096 3.338.2 4.89.306l-.137 1.995zm-9.731-.549c-1.581-.07-3.207-.132-4.872-.185l.063-1.999c1.674.053 3.309.116 4.897.186l-.088 1.998zm-9.734-.307c-1.599-.03-3.225-.05-4.872-.057l.009-2c1.658.008 3.293.027 4.9.057l-.037 2zm-9.746-.045c-1.608.016-3.23.045-4.862.087l-.052-2c1.644-.042 3.276-.07 4.894-.087l.02 2zm-9.724.254c-1.616.07-3.237.154-4.859.254l-.123-1.996c1.635-.101 3.268-.186 4.896-.256l.086 1.998zm-9.708.604c-1.618.134-3.232.285-4.838.455l-.211-1.989a224.18 224.18 0 014.884-.46l.165 1.994zm-9.663 1.029c-1.616.214-3.218.449-4.803.707l-.321-1.974a166.02 166.02 0 014.862-.716l.262 1.983zm-9.574 1.564c-1.602.316-3.179.659-4.725 1.029l-.466-1.945c1.575-.377 3.177-.725 4.803-1.046l.388 1.962zm-9.409 2.263a86.1 86.1 0 00-2.3.7l-.608-1.906a91.96 91.96 0 012.351-.715l.557 1.921zm-2.3.7a58.08 58.08 0 00-2.389.82l-.689-1.878a61 61 0 012.47-.848l.608 1.906zm-7.072 2.753a74.711 74.711 0 00-4.535 2.273l-.955-1.758a76.801 76.801 0 014.657-2.333l.833 1.818zm-8.929 4.835a97.275 97.275 0 00-4.249 2.805l-1.144-1.64c1.425-.994 2.871-1.95 4.335-2.863l1.058 1.698zm-8.361 5.82a125.212 125.212 0 00-3.981 3.192l-1.282-1.535a126.13 126.13 0 014.045-3.244l1.218 1.586zm-7.84 6.54a156.52 156.52 0 00-3.742 3.484l-1.386-1.442a155.275 155.275 0 013.791-3.528l1.337 1.487zm-7.37 7.082a183.303 183.303 0 00-3.532 3.712l-1.468-1.359a184.16 184.16 0 013.571-3.752l1.429 1.399zm-6.957 7.509a213.065 213.065 0 00-3.338 3.893l-1.534-1.283a216.595 216.595 0 013.37-3.93l1.502 1.32zm-6.57 7.848a233.298 233.298 0 00-3.16 4.05l-1.59-1.213a226.386 226.386 0 013.187-4.085l1.563 1.248zm-6.222 8.162a217.637 217.637 0 00-2.959 4.165l-1.644-1.139c.873-1.26 1.871-2.672 2.986-4.203l1.617 1.177zm-5.81 8.4c-.45.689-.793 1.226-1.023 1.59l-.259.415-.064.104-.016.026-.004.006-.001.001L361 91l-.853-.521v-.001l.001-.002.005-.008.018-.029.068-.11a122.379 122.379 0 011.306-2.044l1.675 1.093z" fill="url(#paint3_linear)"/><path d="M390.526 160.701l.061-.496-.061.496zM472.841 134v-.5.5zm52.658 26.727a.5.5 0 01-.525.473l-4.494-.232a.5.5 0 01.052-.999l3.995.207.206-3.995a.5.5 0 11.999.052l-.233 4.494zm-.499-.026l-.371.335-.001-.001-.001-.001-.004-.005-.021-.022-.081-.089a68.148 68.148 0 00-1.608-1.663l.707-.707a70.634 70.634 0 011.635 1.691l.086.094.022.024.006.007.002.001v.001l-.371.335zm-5.705-4.871a108.848 108.848 0 00-3.783-3.251l.634-.773a108.096 108.096 0 013.818 3.281l-.669.743zm-7.704-6.317a100.203 100.203 0 00-4.073-2.883l.557-.83c1.445.969 2.819 1.946 4.114 2.911l-.598.802zm-8.282-5.548a84.834 84.834 0 00-4.349-2.422l.46-.887a85.25 85.25 0 014.401 2.45l-.512.859zm-8.838-4.565a67.097 67.097 0 00-4.625-1.823l.331-.943a68.088 68.088 0 014.694 1.849l-.4.917zm-9.374-3.273a52.92 52.92 0 00-4.854-1.022l.159-.987c1.672.269 3.323.62 4.945 1.041l-.25.968zm-9.78-1.558a45.277 45.277 0 00-2.476-.069v-1c.848 0 1.692.024 2.531.071l-.055.998zm-2.476-.069c-.805 0-1.607.025-2.407.074l-.061-.998a40.55 40.55 0 012.468-.076v1zm-7.19.641a51.803 51.803 0 00-4.71 1.054l-.262-.964a52.667 52.667 0 014.8-1.076l.172.986zm-9.324 2.505a83.77 83.77 0 00-4.517 1.758l-.388-.922a84.642 84.642 0 014.571-1.778l.334.942zm-8.949 3.743a173.693 173.693 0 00-4.362 2.142l-.453-.891c1.46-.741 2.923-1.463 4.388-2.155l.427.904zm-8.682 4.385c-1.434.757-2.867 1.524-4.303 2.29l-.471-.882c1.435-.766 2.871-1.534 4.307-2.292l.467.884zm-8.614 4.577a262.298 262.298 0 01-4.344 2.236l-.449-.894c1.445-.725 2.887-1.47 4.329-2.227l.464.885zm-8.748 4.366c-1.488.69-2.983 1.349-4.484 1.966l-.38-.925a110.568 110.568 0 004.444-1.948l.42.907zm-9.072 3.702a65.163 65.163 0 01-4.701 1.427l-.253-.967a64.602 64.602 0 004.629-1.406l.325.946zm-9.51 2.46c-1.619.269-3.25.456-4.895.551l-.057-.999a44.979 44.979 0 004.788-.538l.164.986zm-9.827.545a39.72 39.72 0 01-2.46-.227l.122-.992c.803.099 1.603.172 2.399.221l-.061.998zm-2.46-.227a60.147 60.147 0 01-2.592-.379l.166-.986c.849.143 1.699.268 2.548.373l-.122.992zm-7.715-1.442a89.272 89.272 0 01-5.037-1.391l.294-.956c1.609.494 3.278.96 4.98 1.376l-.237.971zm-9.988-3.05a117.66 117.66 0 01-4.865-1.885l.382-.924c1.448.598 3.072 1.235 4.823 1.869l-.34.94zm-9.646-3.986a86.59 86.59 0 01-2.187-1.061l-.119-.06-.03-.016-.008-.004-.002-.001-.001-.001.231-.443.231-.444.002.001.007.004.028.014.114.059c.101.051.251.127.448.224.393.195.972.477 1.71.822l-.424.906zm27.41 7.982l.122-.993-.122.993zM472.841 134v-1 1zm53.158 26.753a1.001 1.001 0 01-1.051.947l-8.988-.466a1 1 0 11.104-1.997l7.989.414.413-7.99a1.001 1.001 0 011.998.104l-.465 8.988zm-.999-.052l-.743.67-.001-.001-.004-.005a.254.254 0 00-.019-.021l-.08-.087a64.764 64.764 0 00-1.594-1.648l1.414-1.415a71.803 71.803 0 011.31 1.343c.149.157.263.28.34.363l.088.096.023.025.006.007.002.002v.001h.001l-.743.67zm-6.04-4.499a106.584 106.584 0 00-3.765-3.236l1.268-1.546a109.139 109.139 0 013.836 3.296l-1.339 1.486zm-7.667-6.288a100.335 100.335 0 00-4.053-2.868l1.114-1.661c1.452.974 2.833 1.956 4.134 2.925l-1.195 1.604zm-8.24-5.519a83.913 83.913 0 00-4.323-2.408l.92-1.775a84.98 84.98 0 014.426 2.465l-1.023 1.718zm-8.783-4.537a66.084 66.084 0 00-4.59-1.809l.662-1.887a68.199 68.199 0 014.729 1.863l-.801 1.833zm-9.299-3.247a51.99 51.99 0 00-4.808-1.012l.318-1.975c1.689.272 3.355.627 4.992 1.051l-.502 1.936zm-9.682-1.543a44.259 44.259 0 00-2.448-.068v-2c.857 0 1.71.024 2.559.071l-.111 1.997zm-2.448-.068c-.794 0-1.586.025-2.376.073l-.122-1.996c.83-.051 1.662-.077 2.498-.077v2zm-7.105.633a51.102 51.102 0 00-4.664 1.045l-.524-1.93a52.96 52.96 0 014.846-1.085l.342 1.97zm-9.242 2.484a83.755 83.755 0 00-4.49 1.748l-.776-1.844a85.84 85.84 0 014.598-1.789l.668 1.885zm-8.902 3.724c-1.45.685-2.899 1.4-4.35 2.136l-.905-1.783c1.463-.743 2.93-1.467 4.401-2.161l.854 1.808zm-8.663 4.375c-1.432.757-2.864 1.523-4.301 2.29l-.942-1.765c1.435-.766 2.872-1.534 4.309-2.293l.934 1.768zm-8.614 4.578c-1.447.76-2.898 1.51-4.353 2.24l-.897-1.788a256.163 256.163 0 004.32-2.223l.93 1.771zm-8.771 4.377a112.023 112.023 0 01-4.504 1.974l-.76-1.849a110.178 110.178 0 004.423-1.94l.841 1.815zm-9.119 3.721a66.367 66.367 0 01-4.737 1.438l-.506-1.935a64.063 64.063 0 004.593-1.395l.65 1.892zm-9.591 2.48a46.484 46.484 0 01-4.948.557l-.115-1.997a44.304 44.304 0 004.735-.533l.328 1.973zm-9.94.551a40.802 40.802 0 01-2.491-.23l.245-1.985c.793.098 1.582.171 2.369.219l-.123 1.996zm-2.491-.23a59.575 59.575 0 01-2.613-.382l.332-1.972c.842.141 1.685.266 2.526.369l-.245 1.985zm-7.772-1.452a90.649 90.649 0 01-5.065-1.399l.587-1.912c1.602.491 3.261.955 4.953 1.368l-.475 1.943zm-10.039-3.065a118.944 118.944 0 01-4.886-1.894l.764-1.849c1.442.596 3.059 1.231 4.803 1.862l-.681 1.881zm-9.688-4.004a88.03 88.03 0 01-2.202-1.068l-.12-.062-.032-.016-.008-.004-.002-.002h-.002l.462-.887.462-.887h-.001.002l.006.004.028.014.111.057.444.222c.39.194.965.474 1.7.817l-.848 1.812z" fill="url(#paint4_linear)"/><path d="M428.444 293.651l-.283.412.283-.412zm96.91 23.995a.502.502 0 010 .708l-3.182 3.182a.502.502 0 01-.708-.708l2.829-2.828-2.829-2.828a.502.502 0 01.708-.708l3.182 3.182zM525 318v.5h-.043l-.123-.001-.484-.004c-.425-.006-1.053-.016-1.864-.037l.027-1c.806.021 1.428.031 1.849.037l.478.004.12.001h.04v.5zm-7.565.261a249.761 249.761 0 01-5.058-.305l.07-.997c1.855.13 3.544.228 5.038.303l-.05.999zm-10.078-.703a273.554 273.554 0 01-5.02-.491l.106-.994c1.741.186 3.413.348 5.002.489l-.088.996zm-10.053-1.076a269.97 269.97 0 01-4.995-.675l.144-.99c1.699.246 3.36.47 4.976.673l-.125.992zm-9.988-1.449c-1.638-.27-3.302-.562-4.986-.876l.183-.983c1.678.313 3.335.603 4.966.873l-.163.986zm-9.936-1.855a217.147 217.147 0 01-4.932-1.093l.228-.974c1.646.385 3.284.748 4.909 1.088l-.205.979zm-9.84-2.307a185.318 185.318 0 01-4.876-1.343l.279-.961c1.616.47 3.234.915 4.849 1.336l-.252.968zm-9.711-2.825c-1.603-.518-3.2-1.062-4.787-1.633l.339-.941c1.576.567 3.163 1.107 4.756 1.622l-.308.952zm-9.517-3.429a127.36 127.36 0 01-4.66-1.976l.409-.912a124.6 124.6 0 004.623 1.959l-.372.929zm-9.233-4.146a101.251 101.251 0 01-4.47-2.386l.493-.87c1.447.82 2.924 1.607 4.426 2.362l-.449.894zm-8.811-5.007a83.664 83.664 0 01-2.107-1.401l.566-.824c.684.47 1.379.932 2.082 1.384l-.541.841zm-2.107-1.401a82.304 82.304 0 01-2.123-1.51l.593-.806a82.028 82.028 0 002.096 1.492l-.566.824zm-6.258-4.723a129.37 129.37 0 01-3.971-3.389l.665-.748a125.798 125.798 0 003.939 3.363l-.633.774zm-7.819-6.928a184.664 184.664 0 01-3.737-3.652l.708-.705a190.775 190.775 0 003.717 3.632l-.688.725zm-7.372-7.39a256.702 256.702 0 01-3.554-3.82l.739-.674a260.073 260.073 0 003.54 3.805l-.725.689zm-7.033-7.707a326.573 326.573 0 01-3.412-3.944l.761-.649a318.288 318.288 0 003.402 3.932l-.751.661zm-6.764-7.94a409.898 409.898 0 01-3.297-4.042l.779-.627a396.568 396.568 0 003.289 4.032l-.771.637zm-6.541-8.123a480.38 480.38 0 01-3.193-4.114l.794-.608a477.977 477.977 0 003.185 4.104l-.786.618zm-6.346-8.269a510.015 510.015 0 01-3.112-4.189l.805-.592a532.04 532.04 0 003.106 4.181l-.799.6zm-6.169-8.388a549.49 549.49 0 01-3.039-4.26l.817-.577c.957 1.355 1.97 2.777 3.033 4.252l-.811.585zm-6.026-8.533a524.935 524.935 0 01-2.948-4.304l.828-.561c.866 1.279 1.851 2.72 2.942 4.296l-.822.569zm-5.847-8.638a281.42 281.42 0 01-1.315-2.012l-.069-.106a.503.503 0 00-.021-.034l-.002-.002.421-.27.421-.27v.001l.001.001.004.007.017.026.068.105.267.413c.236.363.587.899 1.043 1.591l-.835.55zm66.458 76.227l-.567.824.567-.824zm97.263 23.642a.999.999 0 010 1.414l-6.364 6.364a.999.999 0 11-1.414-1.414l5.657-5.657-5.657-5.657a.999.999 0 111.414-1.414l6.364 6.364zM525 318v1h-.044l-.125-.001-.488-.004c-.427-.006-1.057-.016-1.87-.038l.053-1.999c.803.021 1.424.032 1.842.037l.475.004.119.001H525v1zm-7.59.761a258.989 258.989 0 01-5.068-.306l.14-1.995c1.852.13 3.537.228 5.028.303l-.1 1.998zm-10.097-.705a274.57 274.57 0 01-5.029-.492l.212-1.988c1.739.186 3.407.347 4.993.488l-.176 1.992zm-10.071-1.078a269.759 269.759 0 01-5.004-.676l.287-1.98c1.695.246 3.353.469 4.966.672l-.249 1.984zm-10.008-1.452a243.56 243.56 0 01-4.996-.877l.367-1.967c1.674.313 3.327.602 4.955.871l-.326 1.973zm-9.956-1.859a212.916 212.916 0 01-4.944-1.096l.456-1.947c1.642.385 3.276.746 4.898 1.086l-.41 1.957zm-9.865-2.313a184.552 184.552 0 01-4.889-1.346l.558-1.921c1.612.468 3.225.912 4.836 1.332l-.505 1.935zm-9.737-2.832a155.158 155.158 0 01-4.803-1.638l.677-1.882c1.571.565 3.152 1.103 4.741 1.617l-.615 1.903zm-9.55-3.441a128.335 128.335 0 01-4.678-1.983l.817-1.826c1.517.68 3.053 1.33 4.605 1.952l-.744 1.857zm-9.271-4.163a101.688 101.688 0 01-4.492-2.398l.986-1.74c1.439.816 2.909 1.599 4.404 2.351l-.898 1.787zm-8.858-5.033a88.555 88.555 0 01-2.12-1.41l1.133-1.648c.68.467 1.37.926 2.07 1.376l-1.083 1.682zm-2.12-1.41a83.266 83.266 0 01-2.135-1.519l1.185-1.612a82.815 82.815 0 002.083 1.483l-1.133 1.648zm-6.291-4.748a130.568 130.568 0 01-3.986-3.402l1.329-1.496a127.134 127.134 0 003.923 3.35l-1.266 1.548zm-7.847-6.953a185.57 185.57 0 01-3.746-3.661l1.417-1.411a189.704 189.704 0 003.706 3.622l-1.377 1.45zm-7.389-7.408a257.296 257.296 0 01-3.561-3.827l1.478-1.348a253.729 253.729 0 003.533 3.798l-1.45 1.377zm-7.047-7.721a336.724 336.724 0 01-3.417-3.95l1.523-1.297a324.757 324.757 0 003.396 3.926l-1.502 1.321zm-6.773-7.951a408.264 408.264 0 01-3.301-4.047l1.558-1.254a395.373 395.373 0 003.284 4.026l-1.541 1.275zm-6.549-8.133a457.763 457.763 0 01-3.196-4.118l1.586-1.218c1.038 1.353 2.1 2.722 3.183 4.1l-1.573 1.236zm-6.353-8.278a511.004 511.004 0 01-3.115-4.193l1.611-1.184a550.316 550.316 0 003.103 4.177l-1.599 1.2zm-6.175-8.396a569.611 569.611 0 01-3.041-4.264l1.633-1.154a554.305 554.305 0 003.031 4.249l-1.623 1.169zm-6.031-8.54a501.373 501.373 0 01-2.951-4.309l1.656-1.122a503.066 503.066 0 002.939 4.293l-1.644 1.138zm-5.853-8.647a258.408 258.408 0 01-1.387-2.124l-.018-.027a.057.057 0 01-.004-.007l-.001-.002h-.001L361 215l.842-.54v.001l.001.001a.057.057 0 00.004.007l.017.026.067.104.267.411c.235.363.585.898 1.04 1.588l-1.669 1.102z" fill="url(#paint5_linear)"/><defs><linearGradient id="paint0_linear" x1="1" y1="8" x2="165" y2="71" gradientUnits="userSpaceOnUse"><stop stop-color="#FC3698"/><stop offset=".826" stop-color="#FC3698" stop-opacity=".5"/><stop offset="1" stop-color="#FC3698" stop-opacity="0"/></linearGradient><linearGradient id="paint1_linear" x1="1" y1="198" x2="165" y2="144" gradientUnits="userSpaceOnUse"><stop stop-color="#FC3698"/><stop offset=".826" stop-color="#FC3698" stop-opacity=".5"/><stop offset="1" stop-color="#FC3698" stop-opacity="0"/></linearGradient><linearGradient id="paint2_linear" x1="1" y1="395" x2="165" y2="259" gradientUnits="userSpaceOnUse"><stop stop-color="#FC3698"/><stop offset=".826" stop-color="#FC3698" stop-opacity=".5"/><stop offset="1" stop-color="#FC3698" stop-opacity="0"/></linearGradient><linearGradient id="paint3_linear" x1="525" y1="22.975" x2="359.4" y2="86.853" gradientUnits="userSpaceOnUse"><stop stop-color="#FC3698"/><stop offset=".826" stop-color="#FC3698" stop-opacity=".5"/><stop offset="1" stop-color="#FC3698" stop-opacity="0"/></linearGradient><linearGradient id="paint4_linear" x1="525.502" y1="165.006" x2="371.811" y2="196.714" gradientUnits="userSpaceOnUse"><stop stop-color="#FC3698"/><stop offset=".826" stop-color="#FC3698" stop-opacity=".5"/><stop offset="1" stop-color="#FC3698" stop-opacity="0"/></linearGradient><linearGradient id="paint5_linear" x1="525" y1="318" x2="434.605" y2="170.034" gradientUnits="userSpaceOnUse"><stop stop-color="#FC3698"/><stop offset=".826" stop-color="#FC3698" stop-opacity=".5"/><stop offset="1" stop-color="#FC3698" stop-opacity="0"/></linearGradient></defs></svg>