<svg width="22" height="22" fill="none" xmlns="http://www.w3.org/2000/svg"><path fill="#764F96" d="M0 0h22v22H0z"/><path d="M10.997 5.003c-2.457 0-4.791-.218-5.682 2.068C4.946 8.015 5 9.24 5 10.997c0 1.54-.05 2.988.315 3.925.889 2.287 3.242 2.068 5.68 2.068 2.354 0 4.78.245 5.683-2.068.369-.954.315-2.161.315-3.925 0-2.342.129-3.853-1.007-4.988-1.151-1.15-2.707-1.006-4.992-1.006h.003zm-.537 1.08c5.126-.008 5.779-.577 5.419 7.334-.128 2.798-2.26 2.49-4.881 2.49-4.779 0-4.916-.136-4.916-4.913 0-4.832.38-4.908 4.378-4.912v.001zm3.739.995a.72.72 0 100 1.439.72.72 0 000-1.439zm-3.202.841a3.078 3.078 0 100 6.155 3.078 3.078 0 100-6.155zm0 1.08c2.643 0 2.647 3.996 0 3.996-2.642 0-2.646-3.996 0-3.996z" fill="#fff"/></svg>