<svg width="16" height="16" fill="none" xmlns="http://www.w3.org/2000/svg"><path d="M8 .008C4.723.008 1.612-.284.423 2.764-.067 4.024.003 5.658.003 8c0 2.054-.065 3.985.42 5.234 1.186 3.05 4.323 2.757 7.575 2.757 3.138 0 6.373.327 7.576-2.758.492-1.27.42-2.881.42-5.233 0-3.122.172-5.137-1.343-6.65C13.117-.184 11.042.008 7.997.008H8zm-.716 1.44c6.835-.011 7.705-.77 7.225 9.777-.17 3.73-3.014 3.321-6.508 3.321-6.371 0-6.554-.182-6.554-6.55 0-6.444.505-6.545 5.837-6.55v.002zm4.985 1.326a.959.959 0 100 1.918.959.959 0 000-1.918zM8 3.895a4.104 4.104 0 100 8.207 4.104 4.104 0 100-8.207zm0 1.44c3.524 0 3.529 5.328 0 5.328-3.523 0-3.528-5.328 0-5.328z" fill="#fff"/></svg>