<svg width="16" height="12" fill="none" xmlns="http://www.w3.org/2000/svg"><path d="M10.72 6.307L6.694 8.263C6.536 8.347 6 8.235 6 8.059V4.043c0-.179.54-.29.699-.202l3.853 2.06c.162.09.331.319.168.406zM16 3.948C16 2.044 14.428.5 12.489.5H3.51C1.571.5 0 2.044 0 3.948v4.103C0 9.956 1.572 11.5 3.511 11.5h8.978C14.428 11.5 16 9.956 16 8.051V3.948z" fill="url(#paint0_linear)"/><defs><linearGradient id="paint0_linear" x1="16" y1="11.5" x2="-1.533" y2="7.838" gradientUnits="userSpaceOnUse"><stop stop-color="#EF2F36"/><stop offset="1" stop-color="#90191E"/></linearGradient></defs></svg>